B612Mono-Bold.ufo
<glyph name="exclam" format="2">
  <advance width="1300"/>
  <unicode hex="0021"/>
  <outline>
    <contour>
      <point x="652" y="1500" type="line" name="mh01"/>
      <point x="652" y="444" type="line" name="mh02"/>
      <point x="352" y="409" type="line" name="av02"/>
      <point x="352" y="1500" type="line" name="mh03"/>
    </contour>
    <contour>
      <point x="338" y="149" type="qcurve" name="ah01"/>
      <point x="338" y="183"/>
      <point x="364" y="242"/>
      <point x="408" y="287"/>
      <point x="467" y="313"/>
      <point x="501" y="313" type="qcurve" name="av01"/>
      <point x="535" y="313"/>
      <point x="594" y="287"/>
      <point x="638" y="242"/>
      <point x="664" y="183"/>
      <point x="664" y="149" type="qcurve" name="ah02"/>
      <point x="664" y="116"/>
      <point x="639" y="55"/>
      <point x="595" y="10"/>
      <point x="536" y="-17"/>
      <point x="502" y="-17" type="qcurve" name="ab01"/>
      <point x="468" y="-17"/>
      <point x="408" y="10"/>
      <point x="364" y="55"/>
      <point x="338" y="116"/>
    </contour>
  </outline>
</glyph>
<glyph name="quotedbl" format="2">
  <advance width="1300"/>
  <unicode hex="0022"/>
  <outline>
    <contour>
      <point x="861" y="1500" type="line" name="sh01"/>
      <point x="861" y="1367" type="line"/>
      <point x="861" y="1349"/>
      <point x="860" y="1300"/>
      <point x="858" y="1246"/>
      <point x="854" y="1191"/>
      <point x="851" y="1168" type="qcurve"/>
      <point x="828" y="1013" type="line"/>
      <point x="648" y="1013" type="line" name="sv01"/>
      <point x="625" y="1168" type="line"/>
      <point x="622" y="1191"/>
      <point x="618" y="1246"/>
      <point x="616" y="1300"/>
      <point x="615" y="1349"/>
      <point x="615" y="1367" type="qcurve"/>
      <point x="615" y="1500" type="line" name="ah02"/>
    </contour>
    <contour>
      <point x="561" y="1500" type="line" name="sh02"/>
      <point x="561" y="1367" type="line"/>
      <point x="561" y="1349"/>
      <point x="560" y="1300"/>
      <point x="558" y="1246"/>
      <point x="554" y="1191"/>
      <point x="551" y="1168" type="qcurve"/>
      <point x="528" y="1013" type="line"/>
      <point x="348" y="1013" type="line" name="sv02"/>
      <point x="325" y="1168" type="line"/>
      <point x="322" y="1191"/>
      <point x="318" y="1246"/>
      <point x="316" y="1300"/>
      <point x="315" y="1349"/>
      <point x="315" y="1367" type="qcurve"/>
      <point x="315" y="1500" type="line" name="ah01"/>
    </contour>
  </outline>
</glyph>
<glyph name="dollar" format="2">
  <advance width="1300"/>
  <unicode hex="0024"/>
  <outline>
    <contour>
      <point x="500" y="-14" type="line" name="hr00"/>
      <point x="394" y="-6"/>
      <point x="211" y="61"/>
      <point x="117" y="121" type="qcurve"/>
      <point x="255" y="348" type="line"/>
      <point x="277" y="333"/>
      <point x="334" y="299"/>
      <point x="398" y="267"/>
      <point x="467" y="240"/>
      <point x="500" y="233" type="qcurve"/>
      <point x="500" y="712" type="line"/>
      <point x="431" y="745"/>
      <point x="298" y="817"/>
      <point x="194" y="907"/>
      <point x="130" y="1022"/>
      <point x="130" y="1097" type="qcurve"/>
      <point x="130" y="1179"/>
      <point x="189" y="1312"/>
      <point x="290" y="1414"/>
      <point x="425" y="1483"/>
      <point x="500" y="1500" type="qcurve"/>
      <point x="500" y="1681" type="line" name="hr02"/>
      <point x="800" y="1719" type="line"/>
      <point x="800" y="1499" type="line"/>
      <point x="875" y="1482"/>
      <point x="1017" y="1418"/>
      <point x="1090" y="1369" type="qcurve"/>
      <point x="940" y="1178" type="line"/>
      <point x="898" y="1202"/>
      <point x="829" y="1238"/>
      <point x="800" y="1252" type="qcurve"/>
      <point x="800" y="866" type="line" name="hr01"/>
      <point x="865" y="835"/>
      <point x="989" y="759"/>
      <point x="1086" y="660"/>
      <point x="1145" y="532"/>
      <point x="1145" y="448" type="qcurve"/>
      <point x="1145" y="363"/>
      <point x="1090" y="224"/>
      <point x="994" y="116"/>
      <point x="865" y="39"/>
      <point x="790" y="16" type="qcurve"/>
      <point x="790" y="-190" type="line"/>
      <point x="500" y="-190" type="line"/>
    </contour>
    <contour>
      <point x="859" y="430" type="qcurve"/>
      <point x="859" y="484"/>
      <point x="793" y="564"/>
      <point x="742" y="596" type="qcurve"/>
      <point x="742" y="249" type="line"/>
      <point x="766" y="258"/>
      <point x="809" y="287"/>
      <point x="841" y="330"/>
      <point x="859" y="390"/>
    </contour>
    <contour>
      <point x="436" y="1125" type="qcurve"/>
      <point x="436" y="1096"/>
      <point x="455" y="1050"/>
      <point x="488" y="1013"/>
      <point x="532" y="984"/>
      <point x="558" y="972" type="qcurve"/>
      <point x="558" y="1268" type="line" name="hr03"/>
      <point x="533" y="1260"/>
      <point x="489" y="1237"/>
      <point x="456" y="1202"/>
      <point x="436" y="1156"/>
    </contour>
  </outline>
</glyph>
<glyph name="percent" format="2">
  <advance width="1300"/>
  <unicode hex="0025"/>
  <outline>
    <contour>
      <point x="461" y="0" type="line" name="hr00"/>
      <point x="157" y="0" type="line"/>
      <point x="821" y="1473" type="line"/>
      <point x="1125" y="1473" type="line"/>
    </contour>
    <contour>
      <point x="370" y="746" type="qcurve" name="av03"/>
      <point x="284" y="746"/>
      <point x="164" y="803"/>
      <point x="88" y="903"/>
      <point x="54" y="1041"/>
      <point x="54" y="1121" type="qcurve" name="ah04"/>
      <point x="54" y="1200"/>
      <point x="86" y="1335"/>
      <point x="160" y="1433"/>
      <point x="281" y="1489"/>
      <point x="370" y="1489" type="qcurve" name="av02"/>
      <point x="455" y="1489"/>
      <point x="575" y="1433"/>
      <point x="650" y="1335"/>
      <point x="685" y="1200"/>
      <point x="685" y="1121" type="qcurve" name="ah01"/>
      <point x="685" y="1041"/>
      <point x="653" y="903"/>
      <point x="579" y="803"/>
      <point x="458" y="746"/>
    </contour>
    <contour>
      <point x="423" y="1165" type="line"/>
      <point x="423" y="1190"/>
      <point x="420" y="1236"/>
      <point x="409" y="1270"/>
      <point x="386" y="1291"/>
      <point x="367" y="1291" type="qcurve"/>
      <point x="350" y="1291"/>
      <point x="330" y="1273"/>
      <point x="321" y="1242"/>
      <point x="319" y="1201"/>
      <point x="319" y="1178" type="qcurve" name="mh01"/>
      <point x="319" y="1084" type="line"/>
      <point x="319" y="1058"/>
      <point x="322" y="1012"/>
      <point x="333" y="977"/>
      <point x="355" y="956"/>
      <point x="375" y="956" type="qcurve"/>
      <point x="391" y="956"/>
      <point x="411" y="974"/>
      <point x="420" y="1005"/>
      <point x="423" y="1045"/>
      <point x="423" y="1068" type="qcurve"/>
    </contour>
    <contour>
      <point x="913" y="-16" type="qcurve" name="ab01"/>
      <point x="827" y="-16"/>
      <point x="707" y="41"/>
      <point x="632" y="141"/>
      <point x="597" y="279"/>
      <point x="597" y="359" type="qcurve" name="ah02"/>
      <point x="597" y="438"/>
      <point x="629" y="573"/>
      <point x="703" y="672"/>
      <point x="824" y="727"/>
      <point x="913" y="727" type="qcurve" name="av01"/>
      <point x="998" y="727"/>
      <point x="1118" y="672"/>
      <point x="1194" y="573"/>
      <point x="1228" y="438"/>
      <point x="1228" y="359" type="qcurve" name="ah03"/>
      <point x="1228" y="279"/>
      <point x="1196" y="141"/>
      <point x="1122" y="41"/>
      <point x="1001" y="-16"/>
    </contour>
    <contour>
      <point x="966" y="404" type="line"/>
      <point x="966" y="429"/>
      <point x="963" y="474"/>
      <point x="952" y="509"/>
      <point x="929" y="529"/>
      <point x="910" y="529" type="qcurve"/>
      <point x="893" y="529"/>
      <point x="874" y="511"/>
      <point x="865" y="480"/>
      <point x="862" y="439"/>
      <point x="862" y="417" type="qcurve" name="mh02"/>
      <point x="862" y="323" type="line"/>
      <point x="862" y="297"/>
      <point x="865" y="250"/>
      <point x="877" y="215"/>
      <point x="900" y="194"/>
      <point x="920" y="194" type="qcurve"/>
      <point x="936" y="194"/>
      <point x="954" y="212"/>
      <point x="963" y="243"/>
      <point x="966" y="283"/>
      <point x="966" y="306" type="qcurve"/>
    </contour>
  </outline>
</glyph>
<glyph name="quotesingle" format="2">
  <advance width="1300"/>
  <unicode hex="0027"/>
  <outline>
    <contour>
      <point x="230" y="1500" type="line" name="hr00"/>
      <point x="500" y="1500" type="line"/>
      <point x="500" y="1367" type="line"/>
      <point x="500" y="1331"/>
      <point x="486" y="1266"/>
      <point x="453" y="1197"/>
      <point x="399" y="1118"/>
      <point x="359" y="1068" type="qcurve"/>
      <point x="220" y="1068" type="line"/>
      <point x="222" y="1149"/>
      <point x="230" y="1301"/>
      <point x="230" y="1367" type="qcurve"/>
    </contour>
  </outline>
</glyph>
<glyph name="parenleft" format="2">
  <advance width="1300"/>
  <unicode hex="0028"/>
  <outline>
    <contour>
      <point x="379" y="1158" type="line" name="hr00"/>
      <point x="379" y="1251"/>
      <point x="399" y="1412"/>
      <point x="470" y="1532"/>
      <point x="605" y="1600"/>
      <point x="719" y="1600" type="qcurve" name="av01"/>
      <point x="744" y="1600"/>
      <point x="801" y="1593"/>
      <point x="858" y="1579"/>
      <point x="910" y="1558"/>
      <point x="931" y="1545" type="qcurve" name="ah01"/>
      <point x="841" y="1431" type="line"/>
      <point x="823" y="1431"/>
      <point x="774" y="1421"/>
      <point x="730" y="1380"/>
      <point x="700" y="1298"/>
      <point x="700" y="1227" type="qcurve"/>
      <point x="700" y="-46" type="line"/>
      <point x="700" y="-120"/>
      <point x="731" y="-200"/>
      <point x="773" y="-238"/>
      <point x="818" y="-245"/>
      <point x="833" y="-245" type="qcurve"/>
      <point x="931" y="-365" type="line" name="ah02"/>
      <point x="910" y="-378"/>
      <point x="858" y="-399"/>
      <point x="801" y="-413"/>
      <point x="744" y="-420"/>
      <point x="719" y="-420" type="qcurve" name="av02"/>
      <point x="605" y="-420"/>
      <point x="470" y="-347"/>
      <point x="399" y="-221"/>
      <point x="379" y="-55"/>
      <point x="379" y="38" type="qcurve"/>
    </contour>
  </outline>
</glyph>
<glyph name="parenright" format="2">
  <advance width="1300"/>
  <unicode hex="0029"/>
  <outline>
    <contour>
      <point x="1020" y="38" type="line" name="hr00"/>
      <point x="1020" y="-55"/>
      <point x="1000" y="-221"/>
      <point x="929" y="-347"/>
      <point x="794" y="-420"/>
      <point x="680" y="-420" type="qcurve" name="av02"/>
      <point x="654" y="-420"/>
      <point x="598" y="-413"/>
      <point x="541" y="-399"/>
      <point x="489" y="-378"/>
      <point x="468" y="-365" type="qcurve" name="ah02"/>
      <point x="566" y="-245" type="line"/>
      <point x="581" y="-245"/>
      <point x="626" y="-238"/>
      <point x="668" y="-200"/>
      <point x="699" y="-120"/>
      <point x="699" y="-46" type="qcurve"/>
      <point x="699" y="1227" type="line"/>
      <point x="699" y="1298"/>
      <point x="669" y="1380"/>
      <point x="625" y="1421"/>
      <point x="576" y="1431"/>
      <point x="558" y="1431" type="qcurve"/>
      <point x="468" y="1545" type="line" name="ah01"/>
      <point x="489" y="1558"/>
      <point x="541" y="1579"/>
      <point x="598" y="1593"/>
      <point x="654" y="1600"/>
      <point x="680" y="1600" type="qcurve" name="av01"/>
      <point x="794" y="1600"/>
      <point x="929" y="1532"/>
      <point x="1000" y="1412"/>
      <point x="1020" y="1251"/>
      <point x="1020" y="1158" type="qcurve"/>
    </contour>
  </outline>
</glyph>
<glyph name="plus" format="2">
  <advance width="1300"/>
  <unicode hex="002B"/>
  <outline>
    <contour>
      <point x="179" y="700" type="line" name="hr00"/>
      <point x="539" y="700" type="line"/>
      <point x="539" y="1117" type="line"/>
      <point x="759" y="1117" type="line"/>
      <point x="759" y="700" type="line"/>
      <point x="1119" y="700" type="line"/>
      <point x="1119" y="500" type="line"/>
      <point x="759" y="500" type="line"/>
      <point x="759" y="100" type="line"/>
      <point x="539" y="100" type="line"/>
      <point x="539" y="500" type="line"/>
      <point x="179" y="500" type="line"/>
    </contour>
  </outline>
</glyph>
<glyph name="comma" format="2">
  <advance width="1300"/>
  <unicode hex="002C"/>
  <outline>
    <contour>
      <point x="122" y="156" type="qcurve" name="ah01"/>
      <point x="122" y="191"/>
      <point x="150" y="254"/>
      <point x="199" y="301"/>
      <point x="264" y="329"/>
      <point x="300" y="329" type="qcurve" name="av01"/>
      <point x="334" y="329"/>
      <point x="398" y="304"/>
      <point x="448" y="255"/>
      <point x="478" y="183"/>
      <point x="478" y="136" type="qcurve" name="ah02"/>
      <point x="478" y="73"/>
      <point x="462" y="-48"/>
      <point x="413" y="-169"/>
      <point x="322" y="-296"/>
      <point x="247" y="-365" type="qcurve"/>
      <point x="185" y="-337" type="line"/>
      <point x="199" y="-311"/>
      <point x="223" y="-256"/>
      <point x="234" y="-228" type="qcurve"/>
      <point x="252" y="-180"/>
      <point x="282" y="-71"/>
      <point x="282" y="-17" type="qcurve" name="ab01"/>
      <point x="252" y="-16"/>
      <point x="194" y="7"/>
      <point x="149" y="51"/>
      <point x="122" y="114"/>
    </contour>
  </outline>
</glyph>
<glyph name="hyphen" format="2">
  <advance width="1300"/>
  <unicode hex="002D"/>
  <outline>
    <contour>
      <point x="335" y="624" type="line" name="hr00"/>
      <point x="962" y="624" type="line"/>
      <point x="962" y="400" type="line"/>
      <point x="335" y="400" type="line"/>
    </contour>
  </outline>
</glyph>
<glyph name="period" format="2">
  <advance width="1300"/>
  <unicode hex="002E"/>
  <outline>
    <contour>
      <point x="103" y="183" type="qcurve" name="ah01"/>
      <point x="103" y="224"/>
      <point x="134" y="296"/>
      <point x="188" y="350"/>
      <point x="259" y="381"/>
      <point x="300" y="381" type="qcurve" name="av01"/>
      <point x="341" y="381"/>
      <point x="413" y="350"/>
      <point x="467" y="296"/>
      <point x="498" y="224"/>
      <point x="498" y="183" type="qcurve" name="ah02"/>
      <point x="498" y="142"/>
      <point x="467" y="69"/>
      <point x="414" y="15"/>
      <point x="342" y="-17"/>
      <point x="302" y="-17" type="qcurve" name="ab01"/>
      <point x="261" y="-17"/>
      <point x="188" y="15"/>
      <point x="134" y="69"/>
      <point x="103" y="142"/>
    </contour>
  </outline>
</glyph>
<glyph name="slash" format="2">
  <advance width="1300"/>
  <unicode hex="002F"/>
  <outline>
    <contour>
      <point x="453" y="-100" type="line" name="hr00"/>
      <point x="101" y="-100" type="line"/>
      <point x="810" y="1600" type="line"/>
      <point x="1153" y="1600" type="line"/>
    </contour>
  </outline>
</glyph>
<glyph name="zero" format="2">
  <advance width="1300"/>
  <unicode hex="0030"/>
  <outline>
    <contour>
      <point x="628" y="-16" type="qcurve" name="hr00"/>
      <point x="535" y="-16"/>
      <point x="379" y="49"/>
      <point x="255" y="161"/>
      <point x="161" y="311"/>
      <point x="99" y="481"/>
      <point x="68" y="663"/>
      <point x="68" y="750" type="qcurve"/>
      <point x="68" y="840"/>
      <point x="94" y="1023"/>
      <point x="151" y="1194"/>
      <point x="240" y="1342"/>
      <point x="364" y="1453"/>
      <point x="526" y="1516"/>
      <point x="628" y="1516" type="qcurve"/>
      <point x="721" y="1516"/>
      <point x="877" y="1451"/>
      <point x="1001" y="1339"/>
      <point x="1095" y="1189"/>
      <point x="1157" y="1019"/>
      <point x="1188" y="837"/>
      <point x="1188" y="750" type="qcurve"/>
      <point x="1188" y="660"/>
      <point x="1161" y="477"/>
      <point x="1105" y="306"/>
      <point x="1016" y="158"/>
      <point x="891" y="47"/>
      <point x="729" y="-16"/>
    </contour>
    <contour>
      <point x="396" y="791" type="qcurve"/>
      <point x="396" y="740"/>
      <point x="405" y="616"/>
      <point x="426" y="491"/>
      <point x="462" y="373"/>
      <point x="515" y="281"/>
      <point x="587" y="226"/>
      <point x="635" y="226" type="qcurve"/>
      <point x="677" y="226"/>
      <point x="743" y="267"/>
      <point x="793" y="338"/>
      <point x="828" y="433"/>
      <point x="850" y="541"/>
      <point x="860" y="654"/>
      <point x="860" y="709" type="qcurve"/>
      <point x="860" y="760"/>
      <point x="851" y="884"/>
      <point x="830" y="1009"/>
      <point x="794" y="1127"/>
      <point x="741" y="1218"/>
      <point x="668" y="1273"/>
      <point x="620" y="1273" type="qcurve"/>
      <point x="578" y="1273"/>
      <point x="512" y="1232"/>
      <point x="462" y="1161"/>
      <point x="427" y="1066"/>
      <point x="406" y="959"/>
      <point x="396" y="845"/>
    </contour>
  </outline>
</glyph>
<glyph name="two" format="2">
  <advance width="1300"/>
  <unicode hex="0032"/>
  <outline>
    <contour>
      <point x="1122" y="0" type="line" name="hr00"/>
      <point x="1122" y="200" type="line"/>
      <point x="480" y="200" type="line"/>
      <point x="539" y="283"/>
      <point x="701" y="460"/>
      <point x="835" y="621" type="curve" smooth="yes"/>
      <point x="968" y="781"/>
      <point x="1097" y="899"/>
      <point x="1097" y="1086" type="curve" smooth="yes"/>
      <point x="1097" y="1298"/>
      <point x="922" y="1517"/>
      <point x="618" y="1517" type="curve" smooth="yes"/>
      <point x="360" y="1517"/>
      <point x="193" y="1387"/>
      <point x="116" y="1183" type="curve"/>
      <point x="349" y="1096" type="line"/>
      <point x="413" y="1221"/>
      <point x="494" y="1300"/>
      <point x="603" y="1300" type="curve" smooth="yes"/>
      <point x="711" y="1300"/>
      <point x="780" y="1197"/>
      <point x="780" y="1097" type="curve" smooth="yes"/>
      <point x="780" y="971"/>
      <point x="728" y="931"/>
      <point x="583" y="775" type="curve" smooth="yes"/>
      <point x="457" y="639"/>
      <point x="237" y="387"/>
      <point x="112" y="190" type="curve"/>
      <point x="112" y="0" type="line"/>
    </contour>
  </outline>
</glyph>
<glyph name="three" format="2">
  <advance width="1300"/>
  <unicode hex="0033"/>
  <outline>
    <contour>
      <point x="283" y="760" type="line" name="hr00"/>
      <point x="321" y="763"/>
      <point x="448" y="770"/>
      <point x="489" y="770" type="curve" smooth="yes"/>
      <point x="654" y="770"/>
      <point x="795" y="718"/>
      <point x="795" y="563" type="curve" smooth="yes"/>
      <point x="795" y="347"/>
      <point x="484" y="211"/>
      <point x="170" y="200" type="curve"/>
      <point x="170" y="0" type="line"/>
      <point x="613" y="0"/>
      <point x="1136" y="177"/>
      <point x="1136" y="573" type="curve" smooth="yes"/>
      <point x="1136" y="818"/>
      <point x="950" y="969"/>
      <point x="669" y="969" type="curve"/>
      <point x="825" y="1052" type="line"/>
      <point x="920" y="1137"/>
      <point x="1002" y="1222"/>
      <point x="1043" y="1327" type="curve"/>
      <point x="1043" y="1500" type="line"/>
      <point x="201" y="1500" type="line"/>
      <point x="180" y="1300" type="line"/>
      <point x="511" y="1300" type="line"/>
      <point x="771" y="1374" type="line"/>
      <point x="675" y="1221"/>
      <point x="401" y="1023"/>
      <point x="283" y="938" type="curve"/>
    </contour>
  </outline>
</glyph>
<glyph name="five" format="2">
  <advance width="1300"/>
  <unicode hex="0035"/>
  <outline>
    <contour>
      <point x="521" y="1300" type="line" name="hr00"/>
      <point x="1038" y="1300" type="line"/>
      <point x="1038" y="1500" type="line"/>
      <point x="172" y="1500" type="line"/>
      <point x="172" y="759" type="line"/>
      <point x="397" y="759" type="line"/>
      <point x="436" y="785"/>
      <point x="508" y="822"/>
      <point x="611" y="822" type="curve" smooth="yes"/>
      <point x="725" y="822"/>
      <point x="803" y="715"/>
      <point x="803" y="606" type="curve" smooth="yes"/>
      <point x="803" y="390"/>
      <point x="456" y="234"/>
      <point x="172" y="226" type="curve"/>
      <point x="172" y="0" type="line"/>
      <point x="604" y="0"/>
      <point x="1130" y="216"/>
      <point x="1130" y="626" type="curve" smooth="yes"/>
      <point x="1130" y="865"/>
      <point x="946" y="1059"/>
      <point x="637" y="1059" type="curve" smooth="yes"/>
      <point x="590" y="1059"/>
      <point x="553" y="1054"/>
      <point x="521" y="1046" type="curve"/>
    </contour>
  </outline>
</glyph>
<glyph name="six" format="2">
  <advance width="1300"/>
  <unicode hex="0036"/>
  <outline>
    <contour>
      <point x="1038" y="1498" type="line" name="hr00"/>
      <point x="970" y="1517"/>
      <point x="926" y="1517"/>
      <point x="902" y="1517" type="curve" smooth="yes"/>
      <point x="409" y="1517"/>
      <point x="95" y="1099"/>
      <point x="95" y="627" type="curve" smooth="yes"/>
      <point x="95" y="399"/>
      <point x="217" y="-17"/>
      <point x="648" y="-17" type="curve" smooth="yes"/>
      <point x="977" y="-17"/>
      <point x="1200" y="229"/>
      <point x="1200" y="525" type="curve" smooth="yes"/>
      <point x="1200" y="829"/>
      <point x="957" y="956"/>
      <point x="698" y="956" type="curve" smooth="yes"/>
      <point x="667" y="956"/>
      <point x="633" y="952"/>
      <point x="597" y="945" type="curve"/>
      <point x="432" y="800" type="line"/>
      <point x="480" y="1117"/>
      <point x="710" y="1300"/>
      <point x="893" y="1300" type="curve" smooth="yes"/>
      <point x="925" y="1300"/>
      <point x="969" y="1299"/>
      <point x="1004" y="1280" type="curve"/>
    </contour>
    <contour>
      <point x="684" y="756" type="curve" smooth="yes"/>
      <point x="786" y="756"/>
      <point x="863" y="650"/>
      <point x="863" y="516" type="curve" smooth="yes"/>
      <point x="863" y="368"/>
      <point x="796" y="200"/>
      <point x="651" y="200" type="curve" smooth="yes"/>
      <point x="553" y="200"/>
      <point x="481" y="309"/>
      <point x="449" y="434" type="curve"/>
      <point x="433" y="489"/>
      <point x="432" y="532"/>
      <point x="432" y="601" type="curve"/>
      <point x="483" y="666"/>
      <point x="588" y="756"/>
    </contour>
  </outline>
</glyph>
<glyph name="seven" format="2">
  <advance width="1300"/>
  <unicode hex="0037"/>
  <outline>
    <contour>
      <point x="140" y="1272" type="line" name="hr00"/>
      <point x="776" y="1272" type="line"/>
      <point x="760" y="1228"/>
      <point x="719" y="1162"/>
      <point x="672" y="1086" type="curve" smooth="yes"/>
      <point x="560" y="905"/>
      <point x="415" y="657"/>
      <point x="364" y="418" type="curve" smooth="yes"/>
      <point x="340" y="309"/>
      <point x="340" y="85"/>
      <point x="340" y="0" type="curve"/>
      <point x="677" y="0" type="line"/>
      <point x="677" y="103"/>
      <point x="677" y="250"/>
      <point x="688" y="346" type="curve" smooth="yes"/>
      <point x="712" y="546"/>
      <point x="857" y="789"/>
      <point x="969" y="976" type="curve"/>
      <point x="1065" y="1131"/>
      <point x="1147" y="1269"/>
      <point x="1147" y="1339" type="curve" smooth="yes"/>
      <point x="1147" y="1500" type="line"/>
      <point x="140" y="1500" type="line"/>
    </contour>
  </outline>
</glyph>
<glyph name="eight" format="2">
  <advance width="1300"/>
  <unicode hex="0038"/>
  <outline>
    <contour>
      <point x="616" y="1517" type="curve" smooth="yes" name="hr00"/>
      <point x="416" y="1517"/>
      <point x="155" y="1397"/>
      <point x="155" y="1124" type="curve" smooth="yes"/>
      <point x="155" y="1009"/>
      <point x="248" y="920"/>
      <point x="370" y="848" type="curve"/>
      <point x="203" y="769"/>
      <point x="82" y="631"/>
      <point x="82" y="441" type="curve" smooth="yes" name="hr01"/>
      <point x="82" y="142"/>
      <point x="345" y="-17"/>
      <point x="622" y="-17" type="curve" smooth="yes"/>
      <point x="906" y="-17"/>
      <point x="1187" y="119"/>
      <point x="1187" y="427" type="curve" smooth="yes"/>
      <point x="1187" y="617"/>
      <point x="1047" y="758"/>
      <point x="870" y="844" type="curve"/>
      <point x="978" y="906"/>
      <point x="1094" y="998"/>
      <point x="1094" y="1134" type="curve" smooth="yes" name="hr02"/>
      <point x="1094" y="1371"/>
      <point x="891" y="1517"/>
    </contour>
    <contour>
      <point x="862" y="422" type="curve" smooth="yes" name="hr03"/>
      <point x="862" y="282"/>
      <point x="743" y="200"/>
      <point x="623" y="200" type="curve" smooth="yes"/>
      <point x="519" y="200"/>
      <point x="406" y="292"/>
      <point x="406" y="421" type="curve" smooth="yes"/>
      <point x="406" y="564"/>
      <point x="493" y="656"/>
      <point x="607" y="711" type="curve"/>
      <point x="727" y="655"/>
      <point x="862" y="566"/>
    </contour>
    <contour>
      <point x="475" y="1156" type="curve" smooth="yes" name="hr04"/>
      <point x="475" y="1237"/>
      <point x="559" y="1300"/>
      <point x="634" y="1300" type="curve" smooth="yes"/>
      <point x="687" y="1300"/>
      <point x="774" y="1253"/>
      <point x="774" y="1152" type="curve" smooth="yes"/>
      <point x="774" y="1068"/>
      <point x="715" y="1004"/>
      <point x="643" y="964" type="curve"/>
      <point x="557" y="1004"/>
      <point x="475" y="1065"/>
    </contour>
  </outline>
</glyph>
<glyph name="nine" format="2">
  <advance width="1300"/>
  <unicode hex="0039"/>
  <outline>
    <contour>
      <point x="361" y="-17" type="line" name="hr00"/>
      <point x="889" y="26"/>
      <point x="1195" y="400"/>
      <point x="1195" y="873" type="curve" smooth="yes"/>
      <point x="1195" y="1113"/>
      <point x="1082" y="1517"/>
      <point x="641" y="1517" type="curve" smooth="yes"/>
      <point x="310" y="1517"/>
      <point x="100" y="1313"/>
      <point x="100" y="1017" type="curve" smooth="yes"/>
      <point x="100" y="731"/>
      <point x="327" y="544"/>
      <point x="619" y="544" type="curve" smooth="yes"/>
      <point x="642" y="544"/>
      <point x="664" y="545"/>
      <point x="685" y="548" type="curve"/>
      <point x="863" y="700" type="line"/>
      <point x="859" y="456"/>
      <point x="593" y="207"/>
      <point x="318" y="199" type="curve"/>
    </contour>
    <contour>
      <point x="628" y="761" type="curve" smooth="yes" name="hr01"/>
      <point x="504" y="761"/>
      <point x="430" y="891"/>
      <point x="430" y="1034" type="curve" smooth="yes"/>
      <point x="430" y="1178"/>
      <point x="524" y="1300"/>
      <point x="648" y="1300" type="curve" smooth="yes"/>
      <point x="778" y="1300"/>
      <point x="859" y="1114"/>
      <point x="867" y="945" type="curve"/>
      <point x="824" y="854"/>
      <point x="720" y="761"/>
    </contour>
  </outline>
</glyph>
<glyph name="colon" format="2">
  <advance width="1300"/>
  <unicode hex="003A"/>
  <outline>
    <contour>
      <point x="103" y="183" type="qcurve" name="ah03"/>
      <point x="103" y="224"/>
      <point x="134" y="296"/>
      <point x="188" y="350"/>
      <point x="259" y="381"/>
      <point x="300" y="381" type="qcurve" name="av03"/>
      <point x="341" y="381"/>
      <point x="413" y="350"/>
      <point x="467" y="296"/>
      <point x="498" y="224"/>
      <point x="498" y="183" type="qcurve" name="ah04"/>
      <point x="498" y="142"/>
      <point x="467" y="69"/>
      <point x="414" y="15"/>
      <point x="342" y="-17"/>
      <point x="302" y="-17" type="qcurve" name="ab01"/>
      <point x="261" y="-17"/>
      <point x="188" y="15"/>
      <point x="134" y="69"/>
      <point x="103" y="142"/>
    </contour>
    <contour>
      <point x="103" y="700" type="qcurve" name="ah01"/>
      <point x="103" y="741"/>
      <point x="134" y="813"/>
      <point x="188" y="867"/>
      <point x="259" y="898"/>
      <point x="300" y="898" type="qcurve" name="av02"/>
      <point x="341" y="898"/>
      <point x="413" y="867"/>
      <point x="467" y="813"/>
      <point x="498" y="741"/>
      <point x="498" y="700" type="qcurve" name="ah02"/>
      <point x="498" y="659"/>
      <point x="467" y="586"/>
      <point x="414" y="532"/>
      <point x="342" y="500"/>
      <point x="302" y="500" type="qcurve" name="av01"/>
      <point x="261" y="500"/>
      <point x="188" y="532"/>
      <point x="134" y="586"/>
      <point x="103" y="659"/>
    </contour>
  </outline>
</glyph>
<glyph name="less" format="2">
  <advance width="1300"/>
  <unicode hex="003C"/>
  <outline>
    <contour>
      <point x="1137" y="1277" type="line" name="hr00"/>
      <point x="1137" y="1009" type="line"/>
      <point x="470" y="654" type="line"/>
      <point x="1137" y="302" type="line"/>
      <point x="1137" y="34" type="line"/>
      <point x="130" y="545" type="line"/>
      <point x="130" y="770" type="line"/>
    </contour>
  </outline>
</glyph>
<glyph name="equal" format="2">
  <advance width="1300"/>
  <unicode hex="003D"/>
  <outline>
    <contour>
      <point x="200" y="800" type="line" name="hr00"/>
      <point x="1000" y="800" type="line" name="sv01"/>
      <point x="1000" y="581" type="line"/>
      <point x="200" y="581" type="line" name="av01"/>
    </contour>
    <contour>
      <point x="200" y="400" type="line"/>
      <point x="1000" y="400" type="line" name="sv02"/>
      <point x="1000" y="181" type="line"/>
      <point x="200" y="181" type="line" name="av02"/>
    </contour>
  </outline>
</glyph>
<glyph name="greater" format="2">
  <advance width="1300"/>
  <unicode hex="003E"/>
  <outline>
    <contour>
      <point x="1137" y="770" type="line" name="hr00"/>
      <point x="1137" y="545" type="line"/>
      <point x="130" y="34" type="line"/>
      <point x="130" y="302" type="line"/>
      <point x="797" y="654" type="line"/>
      <point x="130" y="1009" type="line"/>
      <point x="130" y="1278" type="line"/>
    </contour>
  </outline>
</glyph>
<glyph name="at" format="2">
  <advance width="1300"/>
  <unicode hex="0040"/>
  <outline>
    <contour>
      <point x="690" y="500" type="line" name="hr00"/>
      <point x="660" y="500" type="line"/>
      <point x="643" y="500"/>
      <point x="611" y="484"/>
      <point x="584" y="446"/>
      <point x="568" y="382"/>
      <point x="568" y="333" type="qcurve"/>
      <point x="568" y="293"/>
      <point x="579" y="242"/>
      <point x="597" y="212"/>
      <point x="621" y="200"/>
      <point x="635" y="200" type="qcurve"/>
      <point x="655" y="200"/>
      <point x="678" y="225"/>
      <point x="683" y="241" type="qcurve"/>
      <point x="688" y="257"/>
      <point x="690" y="283" type="qcurve" name="mh01"/>
    </contour>
    <contour>
      <point x="275" y="500" type="line"/>
      <point x="275" y="421"/>
      <point x="289" y="260"/>
      <point x="325" y="110"/>
      <point x="384" y="-20"/>
      <point x="474" y="-116"/>
      <point x="598" y="-172"/>
      <point x="681" y="-172" type="qcurve"/>
      <point x="725" y="-172"/>
      <point x="800" y="-160"/>
      <point x="857" y="-143"/>
      <point x="894" y="-126"/>
      <point x="901" y="-120" type="qcurve"/>
      <point x="901" y="-346" type="line"/>
      <point x="882" y="-357"/>
      <point x="769" y="-382"/>
      <point x="681" y="-382" type="qcurve"/>
      <point x="555" y="-382"/>
      <point x="361" y="-314"/>
      <point x="219" y="-192"/>
      <point x="123" y="-22"/>
      <point x="65" y="183"/>
      <point x="40" y="417"/>
      <point x="40" y="541" type="qcurve"/>
      <point x="40" y="668"/>
      <point x="82" y="904"/>
      <point x="162" y="1108"/>
      <point x="275" y="1275"/>
      <point x="418" y="1395"/>
      <point x="587" y="1460"/>
      <point x="682" y="1460" type="qcurve"/>
      <point x="783" y="1460"/>
      <point x="947" y="1396"/>
      <point x="1075" y="1280"/>
      <point x="1168" y="1118"/>
      <point x="1229" y="921"/>
      <point x="1258" y="696"/>
      <point x="1258" y="576" type="qcurve"/>
      <point x="1258" y="497"/>
      <point x="1249" y="345"/>
      <point x="1224" y="209"/>
      <point x="1180" y="96"/>
      <point x="1111" y="14"/>
      <point x="1014" y="-32"/>
      <point x="948" y="-32" type="qcurve"/>
      <point x="892" y="-32"/>
      <point x="810" y="2"/>
      <point x="756" y="47"/>
      <point x="730" y="91"/>
      <point x="730" y="100" type="qcurve"/>
      <point x="696" y="1" type="line"/>
      <point x="672" y="-8" type="line"/>
      <point x="660" y="-12"/>
      <point x="624" y="-17"/>
      <point x="601" y="-17" type="qcurve"/>
      <point x="541" y="-17"/>
      <point x="460" y="46"/>
      <point x="411" y="144"/>
      <point x="389" y="264"/>
      <point x="385" y="379"/>
      <point x="394" y="475"/>
      <point x="401" y="500" type="qcurve"/>
      <point x="413" y="537"/>
      <point x="452" y="609"/>
      <point x="515" y="665"/>
      <point x="606" y="700"/>
      <point x="670" y="700" type="qcurve"/>
      <point x="690" y="700" type="line"/>
      <point x="690" y="800" type="line" name="hr02"/>
      <point x="690" y="825"/>
      <point x="662" y="849"/>
      <point x="618" y="855"/>
      <point x="563" y="847"/>
      <point x="510" y="833"/>
      <point x="464" y="816"/>
      <point x="451" y="810" type="qcurve"/>
      <point x="451" y="986" type="line" name="hr01"/>
      <point x="472" y="1000"/>
      <point x="509" y="1013" type="qcurve"/>
      <point x="538" y="1023"/>
      <point x="628" y="1040"/>
      <point x="691" y="1040" type="qcurve"/>
      <point x="733" y="1040"/>
      <point x="809" y="1023"/>
      <point x="867" y="978"/>
      <point x="901" y="902"/>
      <point x="901" y="844" type="qcurve" name="mh02"/>
      <point x="901" y="283" type="line"/>
      <point x="902" y="259"/>
      <point x="907" y="241" type="qcurve"/>
      <point x="912" y="225"/>
      <point x="932" y="200"/>
      <point x="951" y="200" type="qcurve"/>
      <point x="976" y="200"/>
      <point x="1006" y="264"/>
      <point x="1022" y="357"/>
      <point x="1027" y="460"/>
      <point x="1027" y="500" type="qcurve"/>
      <point x="1027" y="534" type="line"/>
      <point x="1027" y="713"/>
      <point x="975" y="978"/>
      <point x="883" y="1154"/>
      <point x="756" y="1240"/>
      <point x="681" y="1240" type="qcurve"/>
      <point x="606" y="1240"/>
      <point x="460" y="1154"/>
      <point x="346" y="978"/>
      <point x="275" y="713"/>
      <point x="275" y="534" type="qcurve"/>
    </contour>
  </outline>
</glyph>
<glyph name="C" format="2">
  <advance width="1300"/>
  <unicode hex="0043"/>
  <guideline x="0" y="233" angle="0"/>
  <outline>
    <contour>
      <point x="1220" y="133" type="line" name="ah02"/>
      <point x="1118" y="52"/>
      <point x="895" y="-17"/>
      <point x="764" y="-17" type="qcurve" name="ab01"/>
      <point x="609" y="-17"/>
      <point x="363" y="108"/>
      <point x="191" y="322" name="mh01"/>
      <point x="100" y="608"/>
      <point x="100" y="769" type="qcurve" name="dh01"/>
      <point x="100" y="870"/>
      <point x="134" y="1059" name="mh02"/>
      <point x="204" y="1226"/>
      <point x="312" y="1363"/>
      <point x="461" y="1462" name="mv01"/>
      <point x="651" y="1517"/>
      <point x="768" y="1517" type="qcurve" name="at01"/>
      <point x="898" y="1517"/>
      <point x="1132" y="1429"/>
      <point x="1220" y="1344" type="qcurve" name="ah01"/>
      <point x="1072" y="1160" type="line" name="mv02"/>
      <point x="1039" y="1182"/>
      <point x="966" y="1222"/>
      <point x="892" y="1252"/>
      <point x="818" y="1270"/>
      <point x="784" y="1270" type="qcurve" name="sv01"/>
      <point x="689" y="1270"/>
      <point x="561" y="1192" name="mv03"/>
      <point x="483" y="1057"/>
      <point x="450" y="875"/>
      <point x="450" y="772" type="qcurve" name="dh02"/>
      <point x="450" y="711"/>
      <point x="467" y="584"/>
      <point x="502" y="464"/>
      <point x="557" y="358" name="mh03"/>
      <point x="632" y="279"/>
      <point x="728" y="233"/>
      <point x="788" y="233" type="qcurve" name="sv02"/>
      <point x="822" y="233"/>
      <point x="888" y="244"/>
      <point x="961" y="269"/>
      <point x="1047" y="310"/>
      <point x="1101" y="340" type="qcurve"/>
    </contour>
  </outline>
</glyph>
<glyph name="D" format="2">
  <advance width="1300"/>
  <unicode hex="0044"/>
  <guideline x="0" y="1450" angle="0"/>
  <guideline x="0" y="210" angle="0"/>
  <guideline x="278" y="0" angle="90"/>
  <outline>
    <contour>
      <point x="66" y="1500" type="line" name="at02"/>
      <point x="115" y="1505"/>
      <point x="225" y="1511"/>
      <point x="332" y="1515"/>
      <point x="427" y="1517"/>
      <point x="460" y="1517" type="qcurve" name="at01"/>
      <point x="628" y="1517"/>
      <point x="913" y="1436"/>
      <point x="1121" y="1264"/>
      <point x="1239" y="995"/>
      <point x="1239" y="807" type="qcurve" name="sh01"/>
      <point x="1239" y="662"/>
      <point x="1181" y="429"/>
      <point x="1076" y="250"/>
      <point x="930" y="121"/>
      <point x="755" y="39"/>
      <point x="557" y="0"/>
      <point x="452" y="0" type="qcurve" name="ab01"/>
      <point x="100" y="0" type="line" name="sh02"/>
      <point x="100" y="1262" type="line"/>
    </contour>
    <contour>
      <point x="451" y="1121" type="line"/>
      <point x="451" y="250" type="line" name="sh03"/>
      <point x="556" y="250"/>
      <point x="702" y="301"/>
      <point x="800" y="386"/>
      <point x="854" y="496"/>
      <point x="882" y="613"/>
      <point x="888" y="729"/>
      <point x="888" y="778" type="qcurve" name="ah01"/>
      <point x="888" y="890"/>
      <point x="853" y="1076"/>
      <point x="757" y="1210"/>
      <point x="587" y="1283"/>
      <point x="452" y="1283" type="qcurve" name="sh04"/>
      <point x="449" y="1283"/>
      <point x="442" y="1282"/>
      <point x="438" y="1282" type="qcurve" name="sv01"/>
      <point x="430" y="1282" type="line" name="sv02"/>
    </contour>
  </outline>
</glyph>
<glyph name="E" format="2">
  <advance width="1300"/>
  <unicode hex="0045"/>
  <outline>
    <contour>
      <point x="1137" y="228" type="line" name="dh02"/>
      <point x="1110" y="0" type="line" name="ab02"/>
      <point x="150" y="0" type="line" name="ab01"/>
      <point x="167" y="231" type="line" name="dh03"/>
      <point x="167" y="1263" type="line"/>
      <point x="132" y="1500" type="line" name="at01"/>
      <point x="1100" y="1500" type="line" name="ah01"/>
      <point x="1100" y="1272" type="line"/>
      <point x="503" y="1272" type="line" name="sv01"/>
      <point x="518" y="1134" type="line" name="sh01"/>
      <point x="518" y="916" type="line"/>
      <point x="1034" y="916" type="line" name="dv01"/>
      <point x="1034" y="703" type="line" name="dh01"/>
      <point x="518" y="703" type="line"/>
      <point x="518" y="360" type="line" name="dh04"/>
      <point x="510" y="228" type="line"/>
    </contour>
  </outline>
</glyph>
<glyph name="F" format="2">
  <advance width="1300"/>
  <unicode hex="0046"/>
  <outline>
    <contour>
      <point x="551" y="0" type="line" name="dh02"/>
      <point x="200" y="0" type="line" name="dh01"/>
      <point x="200" y="1263" type="line"/>
      <point x="165" y="1500" type="line" name="at01"/>
      <point x="1167" y="1500" type="line" name="dh04"/>
      <point x="1140" y="1272" type="line" name="sv01"/>
      <point x="536" y="1272" type="line"/>
      <point x="551" y="1134" type="line" name="sh01"/>
      <point x="551" y="916" type="line"/>
      <point x="1064" y="916" type="line" name="dh03"/>
      <point x="1064" y="703" type="line" name="dv01"/>
      <point x="551" y="703" type="line"/>
    </contour>
  </outline>
</glyph>
<glyph name="G" format="2">
  <advance width="1300"/>
  <unicode hex="0047"/>
  <outline>
    <contour>
      <point x="1251" y="221" type="line" name="sh01"/>
      <point x="1206" y="171"/>
      <point x="1094" y="84"/>
      <point x="958" y="20"/>
      <point x="799" y="-17"/>
      <point x="708" y="-17" type="qcurve" name="ab01"/>
      <point x="553" y="-17"/>
      <point x="307" y="108"/>
      <point x="135" y="322"/>
      <point x="44" y="608"/>
      <point x="44" y="769" type="qcurve" name="sh02"/>
      <point x="44" y="870"/>
      <point x="80" y="1059"/>
      <point x="154" y="1226"/>
      <point x="267" y="1363"/>
      <point x="419" y="1462"/>
      <point x="612" y="1517"/>
      <point x="730" y="1517" type="qcurve" name="at01"/>
      <point x="860" y="1517"/>
      <point x="1094" y="1429"/>
      <point x="1182" y="1344" type="qcurve" name="ah02"/>
      <point x="1034" y="1170" type="line" name="mh01"/>
      <point x="1001" y="1192"/>
      <point x="929" y="1232" name="mv01"/>
      <point x="854" y="1262" name="mh02"/>
      <point x="780" y="1280"/>
      <point x="745" y="1280" type="qcurve" name="sv01"/>
      <point x="650" y="1280"/>
      <point x="517" y="1199" name="mh03"/>
      <point x="433" y="1060"/>
      <point x="395" y="875"/>
      <point x="395" y="772" type="qcurve" name="sh03"/>
      <point x="395" y="711"/>
      <point x="412" y="582"/>
      <point x="447" y="459"/>
      <point x="502" y="351"/>
      <point x="577" y="269"/>
      <point x="673" y="221"/>
      <point x="733" y="221" type="qcurve" name="sv02"/>
      <point x="758" y="221"/>
      <point x="811" y="233"/>
      <point x="860" y="252"/>
      <point x="903" y="276"/>
      <point x="919" y="289" type="qcurve" name="ah01"/>
      <point x="919" y="616" type="line" name="sv03"/>
      <point x="625" y="635" type="line"/>
      <point x="625" y="840" type="line"/>
      <point x="1251" y="840" type="line" name="av01"/>
    </contour>
  </outline>
</glyph>
<glyph name="H" format="2">
  <advance width="1300"/>
  <unicode hex="0048"/>
  <outline>
    <contour>
      <point x="872" y="0" type="line" name="ah01"/>
      <point x="872" y="688" type="line" name="dv02"/>
      <point x="426" y="688" type="line" name="dv04"/>
      <point x="426" y="0" type="line" name="sh02"/>
      <point x="79" y="0" type="line" name="sh01"/>
      <point x="79" y="1263" type="line"/>
      <point x="48" y="1500" type="line"/>
      <point x="426" y="1520" type="line" name="sh03"/>
      <point x="426" y="916" type="line" name="dv03"/>
      <point x="872" y="916" type="line" name="dv01"/>
      <point x="872" y="1500" type="line" name="sh04"/>
      <point x="1218" y="1520" type="line" name="at01"/>
      <point x="1218" y="0" type="line" name="sh05"/>
    </contour>
  </outline>
</glyph>
<glyph name="J" format="2">
  <advance width="1300"/>
  <unicode hex="004A"/>
  <outline>
    <contour>
      <point x="338" y="1500" type="line" name="hr00"/>
      <point x="1110" y="1500" type="line" name="ah01"/>
      <point x="1110" y="446" type="line" name="dh02"/>
      <point x="1110" y="261"/>
      <point x="994" y="121" type="qcurve"/>
      <point x="967" y="88"/>
      <point x="888" y="37"/>
      <point x="792" y="2"/>
      <point x="681" y="-17"/>
      <point x="623" y="-17" type="qcurve" name="ab01"/>
      <point x="526" y="-17"/>
      <point x="379" y="18"/>
      <point x="267" y="78"/>
      <point x="182" y="156"/>
      <point x="146" y="200" type="qcurve" name="dv01"/>
      <point x="300" y="400" type="line" name="dv02"/>
      <point x="315" y="382"/>
      <point x="363" y="329"/>
      <point x="433" y="280"/>
      <point x="529" y="244"/>
      <point x="592" y="244" type="qcurve" name="sv01"/>
      <point x="622" y="244"/>
      <point x="682" y="263"/>
      <point x="729" y="309"/>
      <point x="759" y="386"/>
      <point x="759" y="444" type="qcurve" name="dh01"/>
      <point x="759" y="1132" type="line"/>
      <point x="779" y="1266" type="line"/>
      <point x="358" y="1266" type="line" name="sh01"/>
    </contour>
  </outline>
</glyph>
<glyph name="K" format="2">
  <advance width="1300"/>
  <unicode hex="004B"/>
  <outline>
    <contour>
      <point x="122" y="0" type="line" name="sh01"/>
      <point x="122" y="1263" type="line"/>
      <point x="89" y="1500" type="line" name="at01"/>
      <point x="473" y="1520" type="line" name="ah02"/>
      <point x="473" y="1035" type="line" name="ah03"/>
      <point x="864" y="1500" type="line" name="sh02"/>
      <point x="1232" y="1500" type="line" name="sh03"/>
      <point x="733" y="900" type="line" name="sh04"/>
      <point x="500" y="800" type="line" name="mh01"/>
      <point x="723" y="716" type="line" name="sh05"/>
      <point x="1253" y="0" type="line" name="sh07"/>
      <point x="873" y="0" type="line" name="sh06"/>
      <point x="473" y="540" type="line" name="ah04"/>
      <point x="473" y="0" type="line" name="ah01"/>
    </contour>
  </outline>
</glyph>
<glyph name="L" format="2">
  <advance width="1300"/>
  <unicode hex="004C"/>
  <outline>
    <contour>
      <point x="463" y="228" type="line" name="sv01"/>
      <point x="1153" y="228" type="line" name="ah01"/>
      <point x="1126" y="0" type="line" name="ab01"/>
      <point x="100" y="0" type="line"/>
      <point x="123" y="232" type="line" name="dh01"/>
      <point x="123" y="1263" type="line"/>
      <point x="89" y="1500" type="line"/>
      <point x="471" y="1520" type="line" name="at01"/>
      <point x="471" y="360" type="line" name="dh02"/>
    </contour>
  </outline>
</glyph>
<glyph name="O" format="2">
  <advance width="1300"/>
  <unicode hex="004F"/>
  <outline>
    <contour>
      <point x="649" y="-17" type="qcurve" name="ab01"/>
      <point x="551" y="-17"/>
      <point x="386" y="38"/>
      <point x="253" y="139"/>
      <point x="152" y="279"/>
      <point x="84" y="450"/>
      <point x="50" y="645"/>
      <point x="50" y="750" type="qcurve" name="ah01"/>
      <point x="50" y="907"/>
      <point x="124" y="1187"/>
      <point x="273" y="1395"/>
      <point x="498" y="1517"/>
      <point x="649" y="1517" type="qcurve" name="at01"/>
      <point x="796" y="1517"/>
      <point x="1019" y="1395"/>
      <point x="1170" y="1187"/>
      <point x="1247" y="907"/>
      <point x="1247" y="750" type="qcurve" name="ah02"/>
      <point x="1247" y="645"/>
      <point x="1214" y="450"/>
      <point x="1148" y="279"/>
      <point x="1049" y="139"/>
      <point x="916" y="38"/>
      <point x="749" y="-17"/>
    </contour>
    <contour>
      <point x="897" y="721" type="qcurve" name="sh01"/>
      <point x="897" y="783"/>
      <point x="890" y="913"/>
      <point x="871" y="1036"/>
      <point x="836" y="1145"/>
      <point x="779" y="1227"/>
      <point x="698" y="1274"/>
      <point x="643" y="1274" type="qcurve" name="sv01"/>
      <point x="591" y="1274"/>
      <point x="515" y="1231"/>
      <point x="461" y="1158"/>
      <point x="426" y="1061"/>
      <point x="407" y="952"/>
      <point x="400" y="837"/>
      <point x="400" y="783" type="qcurve" name="sh02"/>
      <point x="400" y="720"/>
      <point x="407" y="589"/>
      <point x="427" y="465"/>
      <point x="462" y="356"/>
      <point x="518" y="274"/>
      <point x="599" y="226"/>
      <point x="654" y="226" type="qcurve" name="sv02"/>
      <point x="706" y="226"/>
      <point x="782" y="269"/>
      <point x="836" y="344"/>
      <point x="870" y="442"/>
      <point x="890" y="552"/>
      <point x="897" y="667"/>
    </contour>
  </outline>
</glyph>
<glyph name="Q" format="2">
  <advance width="1300"/>
  <unicode hex="0051"/>
  <outline>
    <contour>
      <point x="393" y="783" type="qcurve" name="dh02"/>
      <point x="394" y="723"/>
      <point x="398" y="596"/>
      <point x="413" y="475"/>
      <point x="442" y="367"/>
      <point x="494" y="286"/>
      <point x="574" y="239"/>
      <point x="632" y="239" type="qcurve" name="sv01"/>
      <point x="620" y="261"/>
      <point x="583" y="335"/>
      <point x="544" y="413"/>
      <point x="510" y="482"/>
      <point x="500" y="500" type="qcurve" name="mh01"/>
      <point x="727" y="601" type="line"/>
      <point x="877" y="300" type="line" name="mv01"/>
      <point x="877" y="500" type="line"/>
      <point x="887" y="548"/>
      <point x="906" y="670"/>
      <point x="906" y="751" type="qcurve" name="dh03"/>
      <point x="906" y="813"/>
      <point x="896" y="939"/>
      <point x="873" y="1056"/>
      <point x="834" y="1159"/>
      <point x="776" y="1235"/>
      <point x="696" y="1279"/>
      <point x="644" y="1279" type="qcurve" name="sv02"/>
      <point x="595" y="1279"/>
      <point x="519" y="1236"/>
      <point x="463" y="1162"/>
      <point x="426" y="1063"/>
      <point x="403" y="953"/>
      <point x="393" y="837"/>
    </contour>
    <contour>
      <point x="1200" y="-180" type="line" name="ah01"/>
      <point x="1104" y="-180"/>
      <point x="962" y="-159"/>
      <point x="847" y="-99"/>
      <point x="750" y="11"/>
      <point x="700" y="100" type="qcurve"/>
      <point x="700" y="-11" type="line"/>
      <point x="649" y="-17"/>
      <point x="602" y="-17" type="qcurve" name="ab01"/>
      <point x="465" y="-17"/>
      <point x="259" y="110"/>
      <point x="121" y="323"/>
      <point x="51" y="600"/>
      <point x="51" y="750" type="qcurve" name="dh01"/>
      <point x="51" y="907"/>
      <point x="125" y="1187"/>
      <point x="274" y="1395"/>
      <point x="499" y="1517"/>
      <point x="650" y="1517" type="qcurve" name="at01"/>
      <point x="797" y="1517"/>
      <point x="1020" y="1405"/>
      <point x="1171" y="1208"/>
      <point x="1248" y="938"/>
      <point x="1248" y="780" type="qcurve" name="dh04"/>
      <point x="1248" y="688"/>
      <point x="1216" y="497"/>
      <point x="1152" y="323"/>
      <point x="1055" y="176"/>
      <point x="990" y="127" type="qcurve" name="av01"/>
      <point x="1008" y="97"/>
      <point x="1058" y="65"/>
      <point x="1114" y="52"/>
      <point x="1173" y="50"/>
      <point x="1200" y="50" type="qcurve"/>
    </contour>
  </outline>
</glyph>
<glyph name="R" format="2">
  <advance width="1300"/>
  <unicode hex="0052"/>
  <outline>
    <contour>
      <point x="449" y="600" type="line" name="dv01"/>
      <point x="449" y="0" type="line" name="sh02"/>
      <point x="124" y="0" type="line" name="sh01"/>
      <point x="124" y="1262" type="line"/>
      <point x="86" y="1488" type="line"/>
      <point x="176" y="1498"/>
      <point x="375" y="1517"/>
      <point x="465" y="1517" type="qcurve" name="at01"/>
      <point x="601" y="1517"/>
      <point x="832" y="1460"/>
      <point x="1001" y="1349"/>
      <point x="1096" y="1186"/>
      <point x="1096" y="1081" type="qcurve" name="sh03"/>
      <point x="1096" y="992"/>
      <point x="1039" y="845" name="mh01"/>
      <point x="936" y="729"/>
      <point x="790" y="647"/>
      <point x="700" y="624" type="qcurve" name="ih01"/>
      <point x="792" y="600" type="line"/>
      <point x="1200" y="0" type="line" name="mh02"/>
      <point x="835" y="0" type="line"/>
    </contour>
    <contour>
      <point x="449" y="1121" type="line" name="sh04"/>
      <point x="449" y="800" type="line" name="dv02"/>
      <point x="485" y="800" type="line"/>
      <point x="553" y="800"/>
      <point x="658" y="843"/>
      <point x="730" y="916"/>
      <point x="767" y="1013"/>
      <point x="767" y="1066" type="qcurve" name="ah01"/>
      <point x="767" y="1136"/>
      <point x="715" y="1226"/>
      <point x="634" y="1277"/>
      <point x="535" y="1296"/>
      <point x="489" y="1296" type="qcurve" name="sv01"/>
      <point x="473" y="1296"/>
      <point x="445" y="1295"/>
      <point x="433" y="1294" type="qcurve"/>
    </contour>
  </outline>
</glyph>
<glyph name="S" format="2">
  <advance width="1300"/>
  <unicode hex="0053"/>
  <outline>
    <contour>
      <point x="973" y="1178" type="line" name="mh01"/>
      <point x="927" y="1205"/>
      <point x="852" y="1242"/>
      <point x="788" y="1264"/>
      <point x="731" y="1274"/>
      <point x="703" y="1274" type="qcurve" name="sv01"/>
      <point x="666" y="1274"/>
      <point x="593" y="1260"/>
      <point x="535" y="1226"/>
      <point x="499" y="1168"/>
      <point x="499" y="1125" type="qcurve" name="sh02"/>
      <point x="499" y="1084"/>
      <point x="540" y="1025" name="sv02"/>
      <point x="607" y="979"/>
      <point x="692" y="941" name="mv01"/>
      <point x="736" y="921" type="qcurve" name="sh03"/>
      <point x="811" y="886" name="mv02"/>
      <point x="965" y="805" name="sv04"/>
      <point x="1089" y="695"/>
      <point x="1168" y="548"/>
      <point x="1168" y="448" type="qcurve" name="sh04"/>
      <point x="1168" y="332"/>
      <point x="1072" y="158"/>
      <point x="913" y="42"/>
      <point x="706" y="-17"/>
      <point x="596" y="-17" type="qcurve" name="ab01"/>
      <point x="470" y="-17" name="mh02"/>
      <point x="257" y="54" name="mv03"/>
      <point x="150" y="121" type="qcurve" name="mh03"/>
      <point x="288" y="348" type="line"/>
      <point x="315" y="330"/>
      <point x="389" y="290"/>
      <point x="472" y="257"/>
      <point x="556" y="236"/>
      <point x="594" y="236" type="qcurve" name="sv03"/>
      <point x="638" y="236"/>
      <point x="724" y="255"/>
      <point x="791" y="300"/>
      <point x="832" y="374"/>
      <point x="832" y="430" type="qcurve" name="ah01"/>
      <point x="832" y="484"/>
      <point x="783" y="562" name="av01"/>
      <point x="704" y="621"/>
      <point x="604" y="669" name="iv01"/>
      <point x="553" y="693" type="qcurve" name="ah02"/>
      <point x="481" y="727"/>
      <point x="345" y="803" name="av02"/>
      <point x="238" y="899"/>
      <point x="173" y="1019"/>
      <point x="173" y="1097" type="qcurve" name="sh01"/>
      <point x="173" y="1198"/>
      <point x="259" y="1355"/>
      <point x="401" y="1462"/>
      <point x="583" y="1517"/>
      <point x="679" y="1517" type="qcurve" name="at01"/>
      <point x="797" y="1517"/>
      <point x="1011" y="1444"/>
      <point x="1123" y="1369" type="qcurve" name="mh04"/>
    </contour>
  </outline>
</glyph>
<glyph name="T" format="2">
  <advance width="1300"/>
  <unicode hex="0054"/>
  <outline>
    <contour>
      <point x="469" y="0" type="line" name="dh01"/>
      <point x="469" y="1272" type="line" name="sv01"/>
      <point x="66" y="1272" type="line"/>
      <point x="66" y="1500" type="line" name="at01"/>
      <point x="1200" y="1500" type="line"/>
      <point x="1200" y="1272" type="line" name="sv02"/>
      <point x="802" y="1272" type="line" name="sv03"/>
      <point x="802" y="0" type="line" name="dh02"/>
    </contour>
  </outline>
</glyph>
<glyph name="U" format="2">
  <advance width="1300"/>
  <unicode hex="0055"/>
  <outline>
    <contour>
      <point x="1160" y="1500" type="line" name="at02"/>
      <point x="1160" y="534" type="line" name="sh01"/>
      <point x="1160" y="395"/>
      <point x="1086" y="188"/>
      <point x="946" y="51"/>
      <point x="745" y="-17"/>
      <point x="619" y="-17" type="qcurve" name="ih01"/>
      <point x="483" y="-17"/>
      <point x="295" y="69"/>
      <point x="178" y="227"/>
      <point x="126" y="448"/>
      <point x="126" y="582" type="qcurve" name="sh02"/>
      <point x="126" y="1263" type="line"/>
      <point x="92" y="1500" type="line"/>
      <point x="458" y="1520" type="line" name="at01"/>
      <point x="458" y="564" type="line" name="sh03"/>
      <point x="458" y="483"/>
      <point x="471" y="355"/>
      <point x="512" y="267"/>
      <point x="587" y="221"/>
      <point x="650" y="221" type="qcurve" name="ih02"/>
      <point x="700" y="221"/>
      <point x="768" y="258"/>
      <point x="810" y="332"/>
      <point x="828" y="442"/>
      <point x="828" y="516" type="qcurve" name="ah01"/>
      <point x="828" y="1500" type="line"/>
    </contour>
  </outline>
</glyph>
<glyph name="W" format="2">
  <advance width="1300"/>
  <unicode hex="0057"/>
  <outline>
    <contour>
      <point x="305" y="1520" type="line" name="sh01"/>
      <point x="418" y="959" type="line"/>
      <point x="426" y="400" type="line"/>
      <point x="436" y="400" type="line" name="ah03"/>
      <point x="479" y="701" type="line" name="mh01"/>
      <point x="530" y="1000" type="line" name="sh02"/>
      <point x="756" y="1000" type="line" name="sh03"/>
      <point x="813" y="701" type="line" name="mh02"/>
      <point x="865" y="400" type="line" name="ah01"/>
      <point x="875" y="400" type="line" name="mh03"/>
      <point x="873" y="957" type="line"/>
      <point x="975" y="1500" type="line" name="sh04"/>
      <point x="1266" y="1500" type="line" name="sh05"/>
      <point x="998" y="0" type="line" name="ah05"/>
      <point x="745" y="0" type="line" name="sh06"/>
      <point x="684" y="300" type="line" name="ah04"/>
      <point x="644" y="650" type="line" name="ah02"/>
      <point x="603" y="300" type="line"/>
      <point x="541" y="0" type="line" name="sh07"/>
      <point x="291" y="0" type="line"/>
      <point x="255" y="237"/>
      <point x="185" y="649"/>
      <point x="117" y="1016"/>
      <point x="52" y="1346"/>
      <point x="21" y="1500" type="qcurve" name="sh08"/>
    </contour>
  </outline>
</glyph>
<glyph name="X" format="2">
  <advance width="1300"/>
  <unicode hex="0058"/>
  <outline>
    <contour>
      <point x="920" y="0" type="line" name="hr00"/>
      <point x="608" y="583" type="line"/>
      <point x="587" y="400" type="line"/>
      <point x="359" y="0" type="line"/>
      <point x="16" y="0" type="line"/>
      <point x="477" y="797" type="line"/>
      <point x="430" y="878"/>
      <point x="75" y="1500" type="qcurve"/>
      <point x="423" y="1520" type="line"/>
      <point x="717" y="995" type="line"/>
      <point x="748" y="1199" type="line"/>
      <point x="909" y="1500" type="line"/>
      <point x="1254" y="1500" type="line"/>
      <point x="854" y="800" type="line"/>
      <point x="1283" y="0" type="line"/>
    </contour>
  </outline>
</glyph>
<glyph name="Y" format="2">
  <advance width="1300"/>
  <unicode hex="0059"/>
  <outline>
    <contour>
      <point x="571" y="1143" type="line" name="hr00"/>
      <point x="678" y="773" type="line" name="ih01"/>
      <point x="736" y="1143" type="line"/>
      <point x="918" y="1500" type="line" name="ah02"/>
      <point x="1253" y="1500" type="line" name="sh01"/>
      <point x="820" y="650" type="line" name="ih03"/>
      <point x="820" y="0" type="line" name="sh02"/>
      <point x="469" y="0" type="line" name="ah01"/>
      <point x="469" y="650" type="line" name="ih02"/>
      <point x="40" y="1500" type="line" name="ah03"/>
      <point x="379" y="1520" type="line" name="sh03"/>
    </contour>
  </outline>
</glyph>
<glyph name="Z" format="2">
  <advance width="1300"/>
  <unicode hex="005A"/>
  <outline>
    <contour>
      <point x="1156" y="228" type="line" name="iv03"/>
      <point x="1183" y="0" type="line" name="ab01"/>
      <point x="144" y="0" type="line" name="iv05"/>
      <point x="110" y="86" type="line"/>
      <point x="651" y="1187" type="line"/>
      <point x="789" y="1300" type="line" name="iv01"/>
      <point x="658" y="1272" type="line" name="sv01"/>
      <point x="200" y="1272" type="line" name="iv06"/>
      <point x="173" y="1500" type="line" name="at01"/>
      <point x="1087" y="1500" type="line" name="iv02"/>
      <point x="1128" y="1442" type="line"/>
      <point x="581" y="314" type="line"/>
      <point x="447" y="200" type="line" name="iv04"/>
      <point x="580" y="228" type="line" name="sv02"/>
    </contour>
  </outline>
</glyph>
<glyph name="bracketleft" format="2">
  <advance width="1300"/>
  <unicode hex="005B"/>
  <outline>
    <contour>
      <point x="281" y="1288" type="line" name="hr00"/>
      <point x="255" y="1520" type="line"/>
      <point x="955" y="1520" type="line"/>
      <point x="955" y="1302" type="line"/>
      <point x="605" y="1302" type="line"/>
      <point x="620" y="1154" type="line"/>
      <point x="620" y="-31" type="line"/>
      <point x="605" y="-179" type="line"/>
      <point x="955" y="-179" type="line"/>
      <point x="955" y="-398" type="line"/>
      <point x="255" y="-398" type="line"/>
      <point x="281" y="-166" type="line"/>
    </contour>
  </outline>
</glyph>
<glyph name="backslash" format="2">
  <advance width="1300"/>
  <unicode hex="005C"/>
  <outline>
    <contour>
      <point x="93" y="1600" type="line" name="hr00"/>
      <point x="435" y="1600" type="line"/>
      <point x="1141" y="-100" type="line"/>
      <point x="788" y="-100" type="line"/>
    </contour>
  </outline>
</glyph>
<glyph name="bracketright" format="2">
  <advance width="1300"/>
  <unicode hex="005D"/>
  <outline>
    <contour>
      <point x="1041" y="-166" type="line" name="hr00"/>
      <point x="1067" y="-398" type="line"/>
      <point x="367" y="-398" type="line"/>
      <point x="367" y="-179" type="line"/>
      <point x="716" y="-179" type="line"/>
      <point x="701" y="-31" type="line"/>
      <point x="701" y="1154" type="line"/>
      <point x="716" y="1302" type="line"/>
      <point x="367" y="1302" type="line"/>
      <point x="367" y="1520" type="line"/>
      <point x="1067" y="1520" type="line"/>
      <point x="1041" y="1288" type="line"/>
    </contour>
  </outline>
</glyph>
<glyph name="asciicircum" format="2">
  <advance width="1300"/>
  <unicode hex="005E"/>
  <outline>
    <contour>
      <point x="1250" y="866" type="line" name="sh01"/>
      <point x="950" y="866" type="line" name="ah02"/>
      <point x="650" y="1200" type="line" name="ih01"/>
      <point x="350" y="868" type="line" name="sh02"/>
      <point x="50" y="868" type="line" name="ah01"/>
      <point x="534" y="1500" type="line" name="ih02"/>
      <point x="743" y="1520" type="line" name="ih03"/>
    </contour>
  </outline>
</glyph>
<glyph name="underscore" format="2">
  <advance width="1300"/>
  <unicode hex="005F"/>
  <outline>
    <contour>
      <point x="100" y="-200" type="line" name="hr00"/>
      <point x="1200" y="-200" type="line"/>
      <point x="1200" y="-455" type="line" name="av02"/>
      <point x="100" y="-455" type="line" name="av01"/>
    </contour>
  </outline>
</glyph>
<glyph name="b" format="2">
  <advance width="1300"/>
  <unicode hex="0062"/>
  <outline>
    <contour>
      <point x="500" y="212" type="line" name="sh03"/>
      <point x="529" y="207"/>
      <point x="595" y="200"/>
      <point x="625" y="200" type="qcurve" name="sv01"/>
      <point x="688" y="200"/>
      <point x="769" y="275"/>
      <point x="816" y="392"/>
      <point x="835" y="533"/>
      <point x="835" y="598" type="qcurve" name="ah01"/>
      <point x="835" y="680"/>
      <point x="811" y="795"/>
      <point x="772" y="867"/>
      <point x="719" y="900"/>
      <point x="691" y="900" type="qcurve" name="sv02"/>
      <point x="630" y="900"/>
      <point x="538" y="858"/>
      <point x="500" y="826" type="qcurve"/>
    </contour>
    <contour>
      <point x="173" y="1398" type="line" name="sh01"/>
      <point x="151" y="1601" type="line"/>
      <point x="500" y="1632" type="line" name="sh02"/>
      <point x="500" y="974" type="line" name="iv01"/>
      <point x="597" y="1096" type="line"/>
      <point x="626" y="1104"/>
      <point x="691" y="1117"/>
      <point x="719" y="1117" type="qcurve" name="at01"/>
      <point x="810" y="1117"/>
      <point x="972" y="1048"/>
      <point x="1092" y="915"/>
      <point x="1162" y="719"/>
      <point x="1162" y="593" type="qcurve" name="sh04"/>
      <point x="1162" y="456"/>
      <point x="1080" y="231"/>
      <point x="935" y="71"/>
      <point x="734" y="-16"/>
      <point x="616" y="-16" type="qcurve" name="ab01"/>
      <point x="553" y="-16"/>
      <point x="421" y="-3"/>
      <point x="302" y="17"/>
      <point x="203" y="42"/>
      <point x="173" y="54" type="qcurve"/>
    </contour>
  </outline>
</glyph>
<glyph name="c" format="2">
  <advance width="1300"/>
  <unicode hex="0063"/>
  <outline>
    <contour>
      <point x="968" y="772" type="line" name="hr00"/>
      <point x="920" y="829"/>
      <point x="803" y="881"/>
      <point x="727" y="881" type="qcurve" name="sv01"/>
      <point x="666" y="881"/>
      <point x="560" y="828"/>
      <point x="481" y="738"/>
      <point x="436" y="619"/>
      <point x="436" y="553" type="qcurve" name="sh02"/>
      <point x="436" y="484"/>
      <point x="483" y="367"/>
      <point x="563" y="283"/>
      <point x="668" y="236"/>
      <point x="727" y="236" type="qcurve" name="sv02"/>
      <point x="779" y="236"/>
      <point x="864" y="255"/>
      <point x="931" y="288"/>
      <point x="982" y="330"/>
      <point x="1000" y="353" type="qcurve"/>
      <point x="1124" y="137" type="line"/>
      <point x="1106" y="121"/>
      <point x="1035" y="69"/>
      <point x="929" y="19"/>
      <point x="785" y="-17"/>
      <point x="694" y="-17" type="qcurve" name="ab01"/>
      <point x="561" y="-17"/>
      <point x="344" y="79"/>
      <point x="190" y="239"/>
      <point x="106" y="450"/>
      <point x="106" y="565" type="qcurve" name="sh01"/>
      <point x="106" y="669"/>
      <point x="187" y="868"/>
      <point x="340" y="1023"/>
      <point x="560" y="1117"/>
      <point x="698" y="1117" type="qcurve" name="at01"/>
      <point x="833" y="1117"/>
      <point x="1052" y="1042"/>
      <point x="1130" y="957" type="qcurve"/>
    </contour>
  </outline>
</glyph>
<glyph name="d" format="2">
  <advance width="1300"/>
  <unicode hex="0064"/>
  <outline>
    <contour>
      <point x="800" y="900" type="line" name="hr00"/>
      <point x="731" y="900" type="line" name="sv01"/>
      <point x="665" y="900"/>
      <point x="567" y="838"/>
      <point x="504" y="732"/>
      <point x="473" y="592"/>
      <point x="473" y="515" type="qcurve" name="sh02"/>
      <point x="473" y="441"/>
      <point x="497" y="325"/>
      <point x="539" y="243"/>
      <point x="598" y="200"/>
      <point x="633" y="200" type="qcurve" name="sv02"/>
      <point x="669" y="200"/>
      <point x="723" y="221"/>
      <point x="763" y="254"/>
      <point x="791" y="296"/>
      <point x="800" y="316" type="qcurve" name="sh03"/>
    </contour>
    <contour>
      <point x="800" y="0" type="line" name="ab02"/>
      <point x="800" y="162" type="line" name="ah01"/>
      <point x="675" y="-10" type="line"/>
      <point x="667" y="-12"/>
      <point x="653" y="-15"/>
      <point x="634" y="-16"/>
      <point x="607" y="-17" name="ab01"/>
      <point x="586" y="-17" type="qcurve" name="hr02"/>
      <point x="494" y="-17"/>
      <point x="334" y="64"/>
      <point x="216" y="210"/>
      <point x="148" y="409"/>
      <point x="148" y="528" type="qcurve" name="sh01"/>
      <point x="148" y="647"/>
      <point x="230" y="856"/>
      <point x="382" y="1011"/>
      <point x="597" y="1100"/>
      <point x="730" y="1100" type="qcurve" name="at01"/>
      <point x="800" y="1100" type="line" name="sh04"/>
      <point x="800" y="1632" type="line" name="av01"/>
      <point x="1126" y="1600" type="line"/>
      <point x="1126" y="209" type="line" name="sh05"/>
      <point x="1148" y="0" type="line" name="hr01"/>
    </contour>
  </outline>
</glyph>
<glyph name="e" format="2">
  <advance width="1300"/>
  <unicode hex="0065"/>
  <outline>
    <contour>
      <point x="1148" y="158" type="line" name="hr00"/>
      <point x="1108" y="121"/>
      <point x="1016" y="58"/>
      <point x="904" y="11"/>
      <point x="768" y="-16"/>
      <point x="686" y="-16" type="qcurve" name="ih01"/>
      <point x="542" y="-16"/>
      <point x="323" y="78"/>
      <point x="175" y="235"/>
      <point x="100" y="439"/>
      <point x="100" y="550" type="qcurve" name="sh01"/>
      <point x="100" y="621"/>
      <point x="134" y="760"/>
      <point x="200" y="885"/>
      <point x="295" y="993"/>
      <point x="418" y="1071"/>
      <point x="567" y="1116"/>
      <point x="653" y="1116" type="qcurve" name="ih02"/>
      <point x="773" y="1116"/>
      <point x="961" y="1045"/>
      <point x="1091" y="918"/>
      <point x="1159" y="740"/>
      <point x="1159" y="632" type="qcurve" name="dh02"/>
      <point x="1159" y="605"/>
      <point x="1152" y="517"/>
      <point x="1147" y="466" type="qcurve" name="ih04"/>
      <point x="400" y="466" type="line" name="sh02"/>
      <point x="402" y="412"/>
      <point x="458" y="315"/>
      <point x="545" y="243"/>
      <point x="652" y="200"/>
      <point x="706" y="200" type="qcurve" name="ih03"/>
      <point x="757" y="200"/>
      <point x="852" y="222"/>
      <point x="929" y="254"/>
      <point x="986" y="288"/>
      <point x="1000" y="300" type="qcurve"/>
    </contour>
    <contour>
      <point x="865" y="672" type="line" name="dh01"/>
      <point x="865" y="718"/>
      <point x="838" y="800"/>
      <point x="786" y="863"/>
      <point x="708" y="900"/>
      <point x="657" y="900" type="qcurve" name="sv01"/>
      <point x="606" y="900"/>
      <point x="530" y="870"/>
      <point x="476" y="825"/>
      <point x="442" y="775"/>
      <point x="434" y="756" type="qcurve"/>
      <point x="343" y="653" type="line" name="ih05"/>
      <point x="516" y="671" type="line" name="mv01"/>
    </contour>
  </outline>
</glyph>
<glyph name="f" format="2">
  <advance width="1300"/>
  <unicode hex="0066"/>
  <guideline x="0" y="3298" angle="0"/>
  <outline>
    <contour>
      <point x="100" y="1100" type="line" name="dv01"/>
      <point x="320" y="1100" type="line" name="dh03"/>
      <point x="320" y="1207" type="line" name="sh01"/>
      <point x="320" y="1295"/>
      <point x="395" y="1439"/>
      <point x="524" y="1543"/>
      <point x="696" y="1600"/>
      <point x="794" y="1600" type="qcurve" name="av01"/>
      <point x="858" y="1600"/>
      <point x="969" y="1579"/>
      <point x="1063" y="1546"/>
      <point x="1140" y="1506"/>
      <point x="1170" y="1486" type="qcurve"/>
      <point x="1037" y="1300" type="line"/>
      <point x="1022" y="1310"/>
      <point x="977" y="1336"/>
      <point x="921" y="1360"/>
      <point x="858" y="1376"/>
      <point x="824" y="1376" type="qcurve" name="sv01"/>
      <point x="795" y="1376"/>
      <point x="731" y="1353"/>
      <point x="677" y="1308"/>
      <point x="642" y="1241"/>
      <point x="642" y="1198" type="qcurve" name="sh02"/>
      <point x="642" y="1100" type="line" name="dh04"/>
      <point x="1063" y="1100" type="line" name="dv03"/>
      <point x="1036" y="876" type="line" name="dv04"/>
      <point x="647" y="876" type="line" name="dh02"/>
      <point x="647" y="0" type="line" name="ab01"/>
      <point x="320" y="0" type="line"/>
      <point x="320" y="876" type="line" name="dh01"/>
      <point x="100" y="876" type="line" name="dv02"/>
    </contour>
  </outline>
</glyph>
<glyph name="g" format="2">
  <advance width="1300"/>
  <unicode hex="0067"/>
  <outline>
    <contour>
      <point x="828" y="16" type="line" name="ah02"/>
      <point x="796" y="2"/>
      <point x="699" y="-17"/>
      <point x="641" y="-17" type="qcurve" name="ab02"/>
      <point x="574" y="-17"/>
      <point x="445" y="23"/>
      <point x="330" y="97"/>
      <point x="234" y="200"/>
      <point x="164" y="325"/>
      <point x="125" y="468"/>
      <point x="125" y="545" type="qcurve" name="sh01"/>
      <point x="125" y="662"/>
      <point x="203" y="870"/>
      <point x="349" y="1026"/>
      <point x="555" y="1117"/>
      <point x="684" y="1117" type="qcurve" name="at01"/>
      <point x="702" y="1117"/>
      <point x="726" y="1116"/>
      <point x="736" y="1114" type="qcurve"/>
      <point x="827" y="958" type="line" name="sh02"/>
      <point x="827" y="1120" type="line" name="at02"/>
      <point x="1153" y="1100" type="line"/>
      <point x="1153" y="-41" type="line" name="sh03"/>
      <point x="1153" y="-140"/>
      <point x="1077" y="-313"/>
      <point x="937" y="-442"/>
      <point x="738" y="-517"/>
      <point x="614" y="-517" type="qcurve" name="ab01"/>
      <point x="549" y="-517"/>
      <point x="440" y="-496"/>
      <point x="346" y="-456"/>
      <point x="264" y="-397"/>
      <point x="225" y="-359" type="qcurve"/>
      <point x="369" y="-192" type="line"/>
      <point x="385" y="-206"/>
      <point x="437" y="-241" name="sh05"/>
      <point x="500" y="-272"/>
      <point x="571" y="-293"/>
      <point x="605" y="-293" type="qcurve" name="sv03"/>
      <point x="647" y="-293"/>
      <point x="728" y="-252"/>
      <point x="790" y="-180"/>
      <point x="828" y="-83"/>
      <point x="828" y="-27" type="qcurve" name="ah01"/>
    </contour>
    <contour>
      <point x="827" y="820" type="line" name="sh06"/>
      <point x="799" y="852"/>
      <point x="724" y="900"/>
      <point x="679" y="900" type="qcurve" name="sv02"/>
      <point x="619" y="900"/>
      <point x="533" y="828"/>
      <point x="478" y="719"/>
      <point x="452" y="591"/>
      <point x="452" y="534" type="qcurve" name="sh04"/>
      <point x="452" y="463"/>
      <point x="488" y="341"/>
      <point x="546" y="251"/>
      <point x="619" y="200"/>
      <point x="656" y="200" type="qcurve" name="sv01"/>
      <point x="715" y="200"/>
      <point x="795" y="250"/>
      <point x="827" y="287" type="qcurve"/>
    </contour>
  </outline>
</glyph>
<glyph name="h" format="2">
  <advance width="1300"/>
  <unicode hex="0068"/>
  <outline>
    <contour>
      <point x="461" y="0" type="line" name="sh02"/>
      <point x="144" y="0" type="line" name="sh01"/>
      <point x="144" y="1339" type="line"/>
      <point x="122" y="1568" type="line"/>
      <point x="461" y="1600" type="line" name="sh03"/>
      <point x="461" y="1000" type="line" name="iv01"/>
      <point x="538" y="1100" type="line" name="ah02"/>
      <point x="583" y="1110"/>
      <point x="685" y="1116"/>
      <point x="749" y="1116" type="qcurve" name="at01"/>
      <point x="927" y="1116"/>
      <point x="1112" y="912"/>
      <point x="1112" y="718" type="qcurve"/>
      <point x="1112" y="0" type="line" name="sh04"/>
      <point x="786" y="0" type="line" name="ah01"/>
      <point x="786" y="698" type="line"/>
      <point x="786" y="750"/>
      <point x="762" y="824"/>
      <point x="725" y="871"/>
      <point x="678" y="892"/>
      <point x="656" y="892" type="qcurve" name="ih01"/>
      <point x="614" y="892"/>
      <point x="554" y="877"/>
      <point x="510" y="853"/>
      <point x="477" y="823"/>
      <point x="461" y="808" type="qcurve"/>
    </contour>
  </outline>
</glyph>
<glyph name="i" format="2">
  <advance width="1300"/>
  <unicode hex="0069"/>
  <outline>
    <contour>
      <point x="455" y="1501" type="line" name="sh01"/>
      <point x="792" y="1501" type="line" name="sh02"/>
      <point x="792" y="1240" type="line" name="sv01"/>
      <point x="455" y="1240" type="line"/>
    </contour>
    <contour>
      <point x="534" y="916" type="line" name="ah02"/>
      <point x="364" y="876" type="line"/>
      <point x="189" y="876" type="line"/>
      <point x="161" y="1100" type="line" name="ah01"/>
      <point x="791" y="1100" type="line"/>
      <point x="791" y="423" type="line" name="dh02"/>
      <point x="791" y="382"/>
      <point x="811" y="313"/>
      <point x="847" y="264"/>
      <point x="897" y="236"/>
      <point x="927" y="236" type="qcurve" name="av01"/>
      <point x="993" y="236"/>
      <point x="1093" y="280"/>
      <point x="1145" y="330" type="qcurve" name="av02"/>
      <point x="1204" y="98" type="line" name="ah03"/>
      <point x="1190" y="87"/>
      <point x="1148" y="49"/>
      <point x="1079" y="11"/>
      <point x="979" y="-17"/>
      <point x="908" y="-17" type="qcurve" name="ab01"/>
      <point x="793" y="-17"/>
      <point x="626" y="55"/>
      <point x="517" y="178"/>
      <point x="464" y="341"/>
      <point x="464" y="432" type="qcurve" name="dh01"/>
      <point x="464" y="826" type="line"/>
    </contour>
  </outline>
</glyph>
<glyph name="j" format="2">
  <advance width="1300"/>
  <unicode hex="006A"/>
  <outline>
    <contour>
      <point x="593" y="1501" type="line" name="sh01"/>
      <point x="930" y="1501" type="line" name="sh02"/>
      <point x="930" y="1240" type="line" name="sv01"/>
      <point x="593" y="1240" type="line"/>
    </contour>
    <contour>
      <point x="668" y="916" type="line" name="ah01"/>
      <point x="498" y="876" type="line"/>
      <point x="323" y="876" type="line"/>
      <point x="295" y="1100" type="line" name="ah02"/>
      <point x="925" y="1100" type="line"/>
      <point x="925" y="-68" type="line" name="dh02"/>
      <point x="925" y="-159"/>
      <point x="872" y="-322"/>
      <point x="763" y="-445"/>
      <point x="596" y="-517"/>
      <point x="481" y="-517" type="qcurve" name="ab01"/>
      <point x="410" y="-517"/>
      <point x="310" y="-489"/>
      <point x="241" y="-452"/>
      <point x="198" y="-413"/>
      <point x="185" y="-402" type="qcurve" name="ah03"/>
      <point x="244" y="-170" type="line" name="av02"/>
      <point x="296" y="-220"/>
      <point x="396" y="-264"/>
      <point x="462" y="-264" type="qcurve" name="av01"/>
      <point x="492" y="-264"/>
      <point x="542" y="-236"/>
      <point x="578" y="-187"/>
      <point x="598" y="-118"/>
      <point x="598" y="-77" type="qcurve" name="dh01"/>
      <point x="598" y="826" type="line"/>
    </contour>
  </outline>
</glyph>
<glyph name="k" format="2">
  <advance width="1300"/>
  <unicode hex="006B"/>
  <outline>
    <contour>
      <point x="187" y="0" type="line" name="ab01"/>
      <point x="187" y="1397" type="line" name="sh01"/>
      <point x="165" y="1600" type="line"/>
      <point x="493" y="1631" type="line" name="sh02"/>
      <point x="493" y="769" type="line" name="sh03"/>
      <point x="758" y="1100" type="line" name="ah01"/>
      <point x="1099" y="1100" type="line" name="sh04"/>
      <point x="737" y="700" type="line"/>
      <point x="533" y="627" type="line" name="iv01"/>
      <point x="722" y="564" type="line"/>
      <point x="1200" y="0" type="line" name="sh05"/>
      <point x="852" y="0" type="line" name="ah02"/>
      <point x="493" y="458" type="line" name="sh06"/>
      <point x="493" y="0" type="line"/>
    </contour>
  </outline>
</glyph>
<glyph name="l" format="2">
  <advance width="1300"/>
  <unicode hex="006C"/>
  <outline>
    <contour>
      <point x="493" y="1382" type="line" name="ah01"/>
      <point x="323" y="1342" type="line"/>
      <point x="147" y="1342" type="line"/>
      <point x="120" y="1566" type="line" name="ah02"/>
      <point x="740" y="1566" type="line" name="sh01"/>
      <point x="740" y="388" type="line" name="dh02"/>
      <point x="740" y="337"/>
      <point x="760" y="268"/>
      <point x="793" y="226"/>
      <point x="835" y="208"/>
      <point x="856" y="208" type="qcurve" name="av01"/>
      <point x="884" y="208"/>
      <point x="931" y="225"/>
      <point x="971" y="251"/>
      <point x="1004" y="284"/>
      <point x="1017" y="300" type="qcurve" name="av02"/>
      <point x="1125" y="107" type="line" name="ah03"/>
      <point x="1114" y="98"/>
      <point x="1074" y="57"/>
      <point x="1007" y="15"/>
      <point x="908" y="-17"/>
      <point x="838" y="-17" type="qcurve" name="ab01"/>
      <point x="730" y="-17"/>
      <point x="574" y="51"/>
      <point x="472" y="167"/>
      <point x="423" y="323"/>
      <point x="423" y="410" type="qcurve" name="dh01"/>
      <point x="423" y="1292" type="line" name="sh02"/>
    </contour>
  </outline>
</glyph>
<glyph name="m" format="2">
  <advance width="1300"/>
  <unicode hex="006D"/>
  <outline>
    <contour>
      <point x="365" y="0" type="line" name="dh02"/>
      <point x="50" y="0" type="line" name="dh01"/>
      <point x="50" y="1100" type="line"/>
      <point x="365" y="1120" type="line" name="sh01"/>
      <point x="365" y="1000" type="line" name="iv01"/>
      <point x="442" y="1100" type="line"/>
      <point x="452" y="1106"/>
      <point x="503" y="1117"/>
      <point x="522" y="1117" type="qcurve" name="at01"/>
      <point x="571" y="1117"/>
      <point x="640" y="1110"/>
      <point x="692" y="1092"/>
      <point x="731" y="1062"/>
      <point x="750" y="1039" type="qcurve" name="ih01"/>
      <point x="769" y="1052"/>
      <point x="822" y="1079"/>
      <point x="881" y="1102"/>
      <point x="944" y="1117"/>
      <point x="975" y="1117" type="qcurve" name="at02"/>
      <point x="1072" y="1117"/>
      <point x="1184" y="1063"/>
      <point x="1242" y="964"/>
      <point x="1258" y="823"/>
      <point x="1258" y="736" type="qcurve"/>
      <point x="1258" y="0" type="line" name="sh05"/>
      <point x="943" y="0" type="line" name="sh04"/>
      <point x="943" y="727" type="line"/>
      <point x="943" y="767"/>
      <point x="941" y="827"/>
      <point x="932" y="866"/>
      <point x="913" y="885"/>
      <point x="895" y="885" type="qcurve" name="sv01"/>
      <point x="878" y="885"/>
      <point x="847" y="871"/>
      <point x="822" y="847"/>
      <point x="805" y="816"/>
      <point x="803" y="798" type="qcurve" name="sh06"/>
      <point x="803" y="791"/>
      <point x="803" y="766"/>
      <point x="804" y="741"/>
      <point x="804" y="719"/>
      <point x="804" y="715" type="qcurve"/>
      <point x="804" y="0" type="line" name="sh03"/>
      <point x="500" y="0" type="line" name="sh02"/>
      <point x="500" y="708" type="line"/>
      <point x="500" y="793"/>
      <point x="483" y="885"/>
      <point x="452" y="885" type="qcurve" name="sv02"/>
      <point x="423" y="885"/>
      <point x="374" y="847"/>
      <point x="365" y="804" type="qcurve"/>
    </contour>
  </outline>
</glyph>
<glyph name="n" format="2">
  <advance width="1300"/>
  <unicode hex="006E"/>
  <guideline x="0" y="2000" angle="0"/>
  <outline>
    <contour>
      <point x="461" y="0" type="line" name="sh02"/>
      <point x="144" y="0" type="line" name="sh01"/>
      <point x="144" y="1100" type="line"/>
      <point x="461" y="1120" type="line" name="sh03"/>
      <point x="461" y="1000" type="line" name="ih01"/>
      <point x="538" y="1100" type="line"/>
      <point x="576" y="1110"/>
      <point x="663" y="1117"/>
      <point x="721" y="1117" type="qcurve" name="at01"/>
      <point x="812" y="1117"/>
      <point x="958" y="1063"/>
      <point x="1059" y="964"/>
      <point x="1113" y="823"/>
      <point x="1113" y="736" type="qcurve"/>
      <point x="1113" y="0" type="line" name="sh04"/>
      <point x="796" y="0" type="line" name="ah01"/>
      <point x="796" y="736" type="line"/>
      <point x="796" y="777"/>
      <point x="771" y="836"/>
      <point x="731" y="874"/>
      <point x="679" y="892"/>
      <point x="651" y="892" type="qcurve" name="sv01"/>
      <point x="588" y="892"/>
      <point x="501" y="851"/>
      <point x="461" y="808" type="qcurve"/>
    </contour>
  </outline>
</glyph>
<glyph name="p" format="2">
  <advance width="1300"/>
  <unicode hex="0070"/>
  <outline>
    <contour>
      <point x="476" y="200" type="line" name="sh03"/>
      <point x="554" y="200" type="line" name="sv01"/>
      <point x="621" y="200"/>
      <point x="740" y="259"/>
      <point x="828" y="361"/>
      <point x="880" y="498"/>
      <point x="880" y="576" type="qcurve" name="ah01"/>
      <point x="880" y="657"/>
      <point x="846" y="779"/>
      <point x="788" y="860"/>
      <point x="708" y="900"/>
      <point x="663" y="900" type="qcurve" name="sv02"/>
      <point x="636" y="900"/>
      <point x="583" y="884"/>
      <point x="535" y="859"/>
      <point x="493" y="827"/>
      <point x="476" y="811" type="qcurve"/>
    </contour>
    <contour>
      <point x="150" y="-500" type="line" name="sh01"/>
      <point x="150" y="1100" type="line"/>
      <point x="476" y="1120" type="line" name="sh04"/>
      <point x="476" y="944" type="line" name="ih01"/>
      <point x="600" y="1110" type="line"/>
      <point x="621" y="1113"/>
      <point x="666" y="1117"/>
      <point x="690" y="1117" type="qcurve" name="at01"/>
      <point x="783" y="1117"/>
      <point x="958" y="1039"/>
      <point x="1095" y="894"/>
      <point x="1178" y="690"/>
      <point x="1178" y="564" type="qcurve" name="sh05"/>
      <point x="1178" y="441"/>
      <point x="1081" y="234"/>
      <point x="909" y="84"/>
      <point x="674" y="0"/>
      <point x="537" y="0" type="qcurve" name="ab01"/>
      <point x="476" y="0" type="line"/>
      <point x="476" y="-500" type="line" name="sh02"/>
    </contour>
  </outline>
</glyph>
<glyph name="q" format="2">
  <advance width="1300"/>
  <unicode hex="0071"/>
  <outline>
    <contour>
      <point x="819" y="891" type="line" name="ah01"/>
      <point x="789" y="895"/>
      <point x="732" y="900"/>
      <point x="694" y="900" type="qcurve" name="sv01"/>
      <point x="631" y="900"/>
      <point x="536" y="831"/>
      <point x="471" y="723"/>
      <point x="438" y="590"/>
      <point x="438" y="526" type="qcurve" name="sh02"/>
      <point x="438" y="442"/>
      <point x="474" y="320"/>
      <point x="533" y="239"/>
      <point x="609" y="200"/>
      <point x="648" y="200" type="qcurve" name="sv02"/>
      <point x="684" y="200"/>
      <point x="736" y="211"/>
      <point x="775" y="232"/>
      <point x="804" y="260"/>
      <point x="819" y="278" type="qcurve"/>
    </contour>
    <contour>
      <point x="819" y="136" type="line" name="sh03"/>
      <point x="702" y="-8" type="line"/>
      <point x="654" y="-17"/>
      <point x="610" y="-17" type="qcurve" name="ab01"/>
      <point x="518" y="-17"/>
      <point x="341" y="58"/>
      <point x="202" y="198"/>
      <point x="117" y="400"/>
      <point x="117" y="526" type="qcurve" name="sh01"/>
      <point x="117" y="663"/>
      <point x="209" y="882"/>
      <point x="368" y="1035"/>
      <point x="579" y="1117"/>
      <point x="698" y="1117" type="qcurve" name="at01"/>
      <point x="762" y="1117"/>
      <point x="898" y="1099"/>
      <point x="1021" y="1074"/>
      <point x="1119" y="1047"/>
      <point x="1145" y="1038" type="qcurve" name="sh04"/>
      <point x="1145" y="-500" type="line" name="ab02"/>
      <point x="819" y="-500" type="line" name="sh05"/>
    </contour>
  </outline>
</glyph>
<glyph name="r" format="2">
  <advance width="1300"/>
  <unicode hex="0072"/>
  <outline>
    <contour>
      <point x="462" y="1000" type="line" name="iv01"/>
      <point x="539" y="1100" type="line"/>
      <point x="593" y="1115"/>
      <point x="693" y="1117"/>
      <point x="741" y="1117" type="qcurve" name="at01"/>
      <point x="822" y="1117"/>
      <point x="942" y="1099"/>
      <point x="1029" y="1072"/>
      <point x="1085" y="1043"/>
      <point x="1102" y="1032" type="qcurve"/>
      <point x="1152" y="735" type="line" name="dh04"/>
      <point x="872" y="700" type="line" name="dh03"/>
      <point x="823" y="876" type="line" name="ih01"/>
      <point x="803" y="879"/>
      <point x="763" y="885"/>
      <point x="743" y="885" type="qcurve" name="sv01"/>
      <point x="646" y="885"/>
      <point x="508" y="814"/>
      <point x="462" y="750" type="qcurve"/>
      <point x="462" y="0" type="line" name="dh02"/>
      <point x="145" y="0" type="line" name="dh01"/>
      <point x="145" y="1100" type="line"/>
      <point x="462" y="1120" type="line" name="sh01"/>
    </contour>
  </outline>
</glyph>
<glyph name="s" format="2">
  <advance width="1300"/>
  <unicode hex="0073"/>
  <outline>
    <contour>
      <point x="985" y="802" type="line" name="ah02"/>
      <point x="957" y="820"/>
      <point x="895" y="854"/>
      <point x="823" y="881"/>
      <point x="741" y="898"/>
      <point x="694" y="898" type="qcurve" name="sv01"/>
      <point x="651" y="898"/>
      <point x="560" y="890"/>
      <point x="486" y="869"/>
      <point x="438" y="832"/>
      <point x="438" y="804" type="qcurve" name="sh02"/>
      <point x="438" y="778"/>
      <point x="492" y="741" name="mh01"/>
      <point x="574" y="713"/>
      <point x="671" y="693"/>
      <point x="715" y="684" type="qcurve" name="ih01"/>
      <point x="766" y="673"/>
      <point x="862" y="651"/>
      <point x="892" y="640" type="qcurve" name="sv03"/>
      <point x="942" y="620"/>
      <point x="1031" y="562" name="mh02"/>
      <point x="1098" y="489" name="mh03"/>
      <point x="1137" y="403"/>
      <point x="1137" y="355" type="qcurve" name="sh03"/>
      <point x="1137" y="288"/>
      <point x="1084" y="181"/>
      <point x="993" y="99"/>
      <point x="874" y="39"/>
      <point x="741" y="1"/>
      <point x="603" y="-17" name="ih02"/>
      <point x="540" y="-17" type="qcurve" name="ab01"/>
      <point x="480" y="-17"/>
      <point x="362" y="0"/>
      <point x="254" y="30"/>
      <point x="161" y="71"/>
      <point x="127" y="95" type="qcurve"/>
      <point x="225" y="305" type="line" name="sh04"/>
      <point x="294" y="263"/>
      <point x="449" y="208"/>
      <point x="542" y="208" type="qcurve" name="sv02"/>
      <point x="565" y="208"/>
      <point x="626" y="213"/>
      <point x="691" y="226"/>
      <point x="755" y="247"/>
      <point x="805" y="279"/>
      <point x="836" y="324"/>
      <point x="836" y="354" type="qcurve" name="ah01"/>
      <point x="836" y="381"/>
      <point x="788" y="420" name="mh04"/>
      <point x="714" y="448"/>
      <point x="626" y="467"/>
      <point x="586" y="475" type="qcurve" name="ih03"/>
      <point x="557" y="481"/>
      <point x="498" y="494"/>
      <point x="444" y="508"/>
      <point x="398" y="523"/>
      <point x="382" y="531" type="qcurve" name="sv04"/>
      <point x="383" y="531" type="line"/>
      <point x="317" y="562"/>
      <point x="230" y="631"/>
      <point x="179" y="704"/>
      <point x="158" y="782"/>
      <point x="158" y="822" type="qcurve" name="sh01"/>
      <point x="158" y="898"/>
      <point x="246" y="1009"/>
      <point x="393" y="1082"/>
      <point x="584" y="1117" name="ih04"/>
      <point x="688" y="1117" type="qcurve" name="at01"/>
      <point x="744" y="1117"/>
      <point x="857" y="1100"/>
      <point x="959" y="1073"/>
      <point x="1043" y="1039"/>
      <point x="1070" y="1022" type="qcurve"/>
    </contour>
  </outline>
</glyph>
<glyph name="t" format="2">
  <advance width="1300"/>
  <unicode hex="0074"/>
  <outline>
    <contour>
      <point x="658" y="388" type="line" name="dh02"/>
      <point x="658" y="337"/>
      <point x="663" y="268"/>
      <point x="679" y="226"/>
      <point x="707" y="208"/>
      <point x="731" y="208" type="qcurve" name="av02"/>
      <point x="778" y="208"/>
      <point x="860" y="231"/>
      <point x="929" y="264"/>
      <point x="986" y="302"/>
      <point x="1007" y="316" type="qcurve" name="av01"/>
      <point x="1111" y="135" type="line" name="ah01"/>
      <point x="1098" y="124"/>
      <point x="1033" y="74"/>
      <point x="925" y="22"/>
      <point x="772" y="-17"/>
      <point x="672" y="-17" type="qcurve" name="ab01"/>
      <point x="564" y="-17"/>
      <point x="433" y="51"/>
      <point x="364" y="167"/>
      <point x="342" y="323"/>
      <point x="342" y="410" type="qcurve" name="dh01"/>
      <point x="342" y="876" type="line" name="sv01"/>
      <point x="100" y="876" type="line"/>
      <point x="100" y="1100" type="line"/>
      <point x="342" y="1100" type="line" name="sh01"/>
      <point x="342" y="1310" type="line"/>
      <point x="654" y="1420" type="line" name="sh02"/>
      <point x="654" y="1100" type="line" name="sv02"/>
      <point x="1113" y="1100" type="line" name="at01"/>
      <point x="1086" y="876" type="line" name="sv03"/>
      <point x="658" y="876" type="line"/>
    </contour>
  </outline>
</glyph>
<glyph name="u" format="2">
  <advance width="1300"/>
  <unicode hex="0075"/>
  <outline>
    <contour>
      <point x="816" y="1100" type="line" name="sh02"/>
      <point x="1133" y="1120" type="line" name="sh03"/>
      <point x="1133" y="0" type="line" name="ah01"/>
      <point x="816" y="0" type="line" name="sh01"/>
      <point x="816" y="100" type="line" name="iv01"/>
      <point x="735" y="0" type="line" name="ah02"/>
      <point x="679" y="-17"/>
      <point x="614" y="-17" type="qcurve" name="ih01"/>
      <point x="480" y="-17"/>
      <point x="300" y="59"/>
      <point x="191" y="186"/>
      <point x="145" y="350"/>
      <point x="145" y="438" type="qcurve" name="sh04"/>
      <point x="145" y="1100" type="line" name="ih02"/>
      <point x="461" y="1120" type="line" name="at01"/>
      <point x="461" y="438" type="line" name="sh05"/>
      <point x="461" y="386"/>
      <point x="478" y="303"/>
      <point x="520" y="244"/>
      <point x="589" y="213"/>
      <point x="640" y="213" type="qcurve" name="ih03"/>
      <point x="673" y="213"/>
      <point x="729" y="233"/>
      <point x="774" y="265"/>
      <point x="806" y="301"/>
      <point x="816" y="318" type="qcurve"/>
    </contour>
  </outline>
</glyph>
<glyph name="v" format="2">
  <advance width="1300"/>
  <unicode hex="0076"/>
  <guideline x="0" y="381" angle="0"/>
  <outline>
    <contour>
      <point x="583" y="700" type="line" name="iv01"/>
      <point x="657" y="300" type="line" name="ah01"/>
      <point x="729" y="700" type="line" name="iv03"/>
      <point x="860" y="1100" type="line" name="sh01"/>
      <point x="1173" y="1120" type="line" name="sh02"/>
      <point x="800" y="-17" type="line" name="ab01"/>
      <point x="484" y="0" type="line" name="iv02"/>
      <point x="133" y="1100" type="line" name="sh04"/>
      <point x="447" y="1120" type="line" name="sh03"/>
    </contour>
  </outline>
</glyph>
<glyph name="w" format="2">
  <advance width="1300"/>
  <unicode hex="0077"/>
  <guideline x="0" y="540" angle="0"/>
  <guideline x="0" y="640" angle="0"/>
  <guideline x="467" y="0" angle="90"/>
  <guideline x="1040" y="0" angle="90"/>
  <guideline x="743" y="0" angle="90"/>
  <outline>
    <contour>
      <point x="809" y="600" type="line"/>
      <point x="860" y="300" type="line" name="ah02"/>
      <point x="870" y="300" type="line"/>
      <point x="859" y="700" type="line"/>
      <point x="932" y="1100" type="line" name="sh01"/>
      <point x="1225" y="1120" type="line" name="sh02"/>
      <point x="1006" y="0" type="line" name="ih01"/>
      <point x="740" y="0" type="line" name="ih02"/>
      <point x="641" y="400" type="line"/>
      <point x="625" y="600" type="line" name="ih03"/>
      <point x="609" y="400" type="line"/>
      <point x="513" y="0" type="line" name="ih04"/>
      <point x="248" y="0" type="line" name="ih05"/>
      <point x="34" y="1100" type="line" name="sh04"/>
      <point x="322" y="1120" type="line" name="sh03"/>
      <point x="394" y="700" type="line"/>
      <point x="390" y="300" type="line" name="iv01"/>
      <point x="400" y="300" type="line" name="ah01"/>
      <point x="443" y="600" type="line"/>
      <point x="508" y="900" type="line" name="ih06"/>
      <point x="743" y="900" type="line" name="ih07"/>
    </contour>
  </outline>
</glyph>
<glyph name="x" format="2">
  <advance width="1300"/>
  <unicode hex="0078"/>
  <outline>
    <contour>
      <point x="698" y="272" type="line" name="dh04"/>
      <point x="632" y="474" type="line" name="ah02"/>
      <point x="564" y="272" type="line" name="dh03"/>
      <point x="396" y="0" type="line" name="sh01"/>
      <point x="57" y="0" type="line" name="sh02"/>
      <point x="468" y="585" type="line" name="iv01"/>
      <point x="112" y="1100" type="line" name="sh04"/>
      <point x="454" y="1120" type="line" name="sh03"/>
      <point x="595" y="900" type="line" name="dh01"/>
      <point x="657" y="700" type="line" name="ah01"/>
      <point x="717" y="900" type="line" name="dh02"/>
      <point x="856" y="1100" type="line" name="sh05"/>
      <point x="1212" y="1120" type="line" name="sh06"/>
      <point x="832" y="581" type="line" name="iv02"/>
      <point x="1240" y="0" type="line" name="sh08"/>
      <point x="879" y="0" type="line" name="sh07"/>
    </contour>
  </outline>
</glyph>
<glyph name="y" format="2">
  <advance width="1300"/>
  <unicode hex="0079"/>
  <guideline x="550" y="0" angle="90"/>
  <outline>
    <contour>
      <point x="571" y="670" type="line" name="dh01"/>
      <point x="648" y="200" type="line" name="ah02"/>
      <point x="727" y="670" type="line" name="dh02"/>
      <point x="890" y="1100" type="line" name="sh01"/>
      <point x="1210" y="1120" type="line" name="sh02"/>
      <point x="802" y="8" type="line" name="ih01"/>
      <point x="782" y="-47"/>
      <point x="735" y="-163"/>
      <point x="679" y="-271"/>
      <point x="613" y="-367"/>
      <point x="533" y="-438"/>
      <point x="439" y="-480"/>
      <point x="383" y="-480" type="qcurve" name="av01"/>
      <point x="316" y="-480"/>
      <point x="185" y="-425"/>
      <point x="127" y="-374" type="qcurve" name="ah01"/>
      <point x="250" y="-194" type="line" name="sh03"/>
      <point x="273" y="-209"/>
      <point x="325" y="-234"/>
      <point x="352" y="-234" type="qcurve" name="av02"/>
      <point x="395" y="-234"/>
      <point x="464" y="-135"/>
      <point x="501" y="-47" type="qcurve" name="ab01"/>
      <point x="82" y="1100" type="line" name="sh05"/>
      <point x="408" y="1120" type="line" name="sh04"/>
    </contour>
  </outline>
</glyph>
<glyph name="braceleft" format="2">
  <advance width="1300"/>
  <unicode hex="007B"/>
  <guideline x="0" y="550" angle="0"/>
  <guideline x="0" y="475" angle="0"/>
  <outline>
    <contour>
      <point x="1003" y="1260" type="line" name="sh01"/>
      <point x="969" y="1280"/>
      <point x="882" y="1305"/>
      <point x="847" y="1305" type="qcurve" name="ah06"/>
      <point x="817" y="1303"/>
      <point x="781" y="1274"/>
      <point x="763" y="1222"/>
      <point x="757" y="1147"/>
      <point x="757" y="1099" type="qcurve"/>
      <point x="757" y="864" type="line"/>
      <point x="757" y="808"/>
      <point x="726" y="710"/>
      <point x="678" y="631"/>
      <point x="620" y="570"/>
      <point x="593" y="550" type="qcurve" name="ah04"/>
      <point x="620" y="530"/>
      <point x="678" y="469"/>
      <point x="726" y="390"/>
      <point x="757" y="293"/>
      <point x="757" y="238" type="qcurve"/>
      <point x="757" y="-2" type="line"/>
      <point x="757" y="-50"/>
      <point x="763" y="-126"/>
      <point x="781" y="-180"/>
      <point x="817" y="-208"/>
      <point x="847" y="-208" type="qcurve" name="ah05"/>
      <point x="882" y="-208"/>
      <point x="969" y="-183"/>
      <point x="1003" y="-163" type="qcurve" name="sh02"/>
      <point x="1099" y="-348" type="line" name="ah02"/>
      <point x="1066" y="-363"/>
      <point x="1005" y="-389"/>
      <point x="937" y="-409"/>
      <point x="856" y="-420"/>
      <point x="804" y="-420" type="qcurve" name="av01"/>
      <point x="691" y="-420"/>
      <point x="541" y="-356"/>
      <point x="452" y="-244"/>
      <point x="415" y="-91"/>
      <point x="415" y="-2" type="qcurve"/>
      <point x="415" y="238" type="line"/>
      <point x="415" y="328"/>
      <point x="384" y="432"/>
      <point x="338" y="442" type="qcurve"/>
      <point x="200" y="462" type="line" name="ah03"/>
      <point x="200" y="640" type="line" name="iv01"/>
      <point x="338" y="660" type="line"/>
      <point x="384" y="671"/>
      <point x="415" y="776"/>
      <point x="415" y="864" type="qcurve"/>
      <point x="415" y="1099" type="line"/>
      <point x="415" y="1188"/>
      <point x="452" y="1341"/>
      <point x="542" y="1453"/>
      <point x="692" y="1517"/>
      <point x="805" y="1517" type="qcurve" name="at01"/>
      <point x="857" y="1517"/>
      <point x="938" y="1506"/>
      <point x="1005" y="1487"/>
      <point x="1066" y="1461"/>
      <point x="1099" y="1445" type="qcurve" name="ah01"/>
    </contour>
  </outline>
</glyph>
<glyph name="bar" format="2">
  <advance width="1300"/>
  <unicode hex="007C"/>
  <outline>
    <contour>
      <point x="766" y="1520" type="line" name="hr00"/>
      <point x="766" y="-380" type="line"/>
      <point x="434" y="-380" type="line"/>
      <point x="434" y="1500" type="line"/>
    </contour>
  </outline>
</glyph>
<glyph name="braceright" format="2">
  <advance width="1300"/>
  <unicode hex="007D"/>
  <outline>
    <contour>
      <point x="201" y="1445" type="line" name="ah05"/>
      <point x="234" y="1461"/>
      <point x="295" y="1487"/>
      <point x="363" y="1506"/>
      <point x="444" y="1517"/>
      <point x="496" y="1517" type="qcurve" name="at01"/>
      <point x="609" y="1517"/>
      <point x="759" y="1453"/>
      <point x="848" y="1341"/>
      <point x="885" y="1188"/>
      <point x="885" y="1099" type="qcurve"/>
      <point x="885" y="864" type="line"/>
      <point x="885" y="776"/>
      <point x="916" y="671"/>
      <point x="962" y="660" type="qcurve"/>
      <point x="1100" y="640" type="line" name="iv01"/>
      <point x="1100" y="462" type="line" name="ah02"/>
      <point x="962" y="442" type="line"/>
      <point x="916" y="432"/>
      <point x="885" y="327"/>
      <point x="885" y="238" type="qcurve"/>
      <point x="885" y="-2" type="line"/>
      <point x="885" y="-91"/>
      <point x="848" y="-244"/>
      <point x="759" y="-356"/>
      <point x="609" y="-420"/>
      <point x="496" y="-420" type="qcurve" name="av01"/>
      <point x="444" y="-420"/>
      <point x="363" y="-409"/>
      <point x="295" y="-390"/>
      <point x="234" y="-363"/>
      <point x="201" y="-348" type="qcurve" name="ah03"/>
      <point x="297" y="-163" type="line" name="sh01"/>
      <point x="331" y="-183"/>
      <point x="418" y="-208"/>
      <point x="453" y="-208" type="qcurve" name="ah04"/>
      <point x="483" y="-208"/>
      <point x="519" y="-180"/>
      <point x="537" y="-126"/>
      <point x="543" y="-50"/>
      <point x="543" y="-2" type="qcurve"/>
      <point x="543" y="238" type="line"/>
      <point x="543" y="293"/>
      <point x="574" y="390"/>
      <point x="622" y="470"/>
      <point x="680" y="530"/>
      <point x="707" y="550" type="qcurve" name="ah01"/>
      <point x="680" y="570"/>
      <point x="622" y="631"/>
      <point x="574" y="710"/>
      <point x="543" y="808"/>
      <point x="543" y="864" type="qcurve"/>
      <point x="543" y="1099" type="line"/>
      <point x="543" y="1147"/>
      <point x="537" y="1222"/>
      <point x="519" y="1274"/>
      <point x="483" y="1303"/>
      <point x="453" y="1305" type="qcurve" name="ah06"/>
      <point x="418" y="1305"/>
      <point x="331" y="1280"/>
      <point x="297" y="1260" type="qcurve" name="sh02"/>
    </contour>
  </outline>
</glyph>
<glyph name="asciitilde" format="2">
  <advance width="1300"/>
  <unicode hex="007E"/>
  <outline>
    <contour>
      <point x="31" y="441" type="line" name="ah01"/>
      <point x="37" y="508"/>
      <point x="90" y="648"/>
      <point x="189" y="762" name="ih02"/>
      <point x="340" y="835"/>
      <point x="444" y="835" type="qcurve" name="sh01"/>
      <point x="498" y="835"/>
      <point x="578" y="815"/>
      <point x="641" y="786"/>
      <point x="691" y="752"/>
      <point x="740" y="723"/>
      <point x="793" y="703"/>
      <point x="827" y="703" type="qcurve" name="ih03"/>
      <point x="896" y="703"/>
      <point x="981" y="779"/>
      <point x="991" y="838" type="qcurve" name="sh02"/>
      <point x="1266" y="802" type="line" name="ah02"/>
      <point x="1261" y="729"/>
      <point x="1216" y="585"/>
      <point x="1122" y="471" name="ih04"/>
      <point x="972" y="400"/>
      <point x="862" y="400" type="qcurve" name="sh03"/>
      <point x="812" y="400"/>
      <point x="738" y="420"/>
      <point x="679" y="449"/>
      <point x="630" y="483"/>
      <point x="578" y="512"/>
      <point x="520" y="532" name="hr01"/>
      <point x="481" y="532" type="qcurve" name="ih01"/>
      <point x="452" y="532"/>
      <point x="403" y="512"/>
      <point x="364" y="479" name="hr00"/>
      <point x="337" y="435"/>
      <point x="331" y="410" type="qcurve" name="sh04"/>
    </contour>
  </outline>
</glyph>
<glyph name="exclamdown" format="2">
  <advance width="1300"/>
  <unicode hex="00A1"/>
  <outline>
    <contour>
      <point x="652" y="-400" type="line" name="hr00"/>
      <point x="652" y="656" type="line"/>
      <point x="352" y="691" type="line"/>
      <point x="352" y="-400" type="line"/>
    </contour>
    <contour>
      <point x="338" y="951" type="qcurve"/>
      <point x="338" y="917"/>
      <point x="364" y="858"/>
      <point x="408" y="813"/>
      <point x="467" y="787"/>
      <point x="501" y="787" type="qcurve"/>
      <point x="535" y="787"/>
      <point x="594" y="813"/>
      <point x="638" y="858"/>
      <point x="664" y="917"/>
      <point x="664" y="951" type="qcurve"/>
      <point x="664" y="984"/>
      <point x="639" y="1045"/>
      <point x="595" y="1090"/>
      <point x="536" y="1117"/>
      <point x="502" y="1117" type="qcurve"/>
      <point x="468" y="1117"/>
      <point x="408" y="1090"/>
      <point x="364" y="1045"/>
      <point x="338" y="984"/>
    </contour>
  </outline>
</glyph>
<glyph name="cent" format="2">
  <advance width="1300"/>
  <unicode hex="00A2"/>
  <outline>
    <contour>
      <point x="989" y="814" type="line" name="hr00"/>
      <point x="965" y="837"/>
      <point x="921" y="867"/>
      <point x="901" y="877" type="qcurve"/>
      <point x="901" y="223" type="line"/>
      <point x="967" y="249"/>
      <point x="1023" y="288" type="qcurve"/>
      <point x="1135" y="93" type="line"/>
      <point x="1084" y="58"/>
      <point x="967" y="7"/>
      <point x="901" y="-5" type="qcurve"/>
      <point x="901" y="-190" type="line" name="sh01"/>
      <point x="611" y="-190" type="line" name="ah01"/>
      <point x="611" y="6" type="line" name="mv01"/>
      <point x="518" y="34"/>
      <point x="378" y="147"/>
      <point x="284" y="298"/>
      <point x="237" y="479"/>
      <point x="237" y="575" type="qcurve" name="sh02"/>
      <point x="237" y="662"/>
      <point x="282" y="827"/>
      <point x="375" y="966"/>
      <point x="515" y="1069"/>
      <point x="611" y="1095" type="qcurve"/>
      <point x="611" y="1302" type="line"/>
      <point x="901" y="1340" type="line" name="sh03"/>
      <point x="901" y="1105" type="line"/>
      <point x="968" y="1090"/>
      <point x="1085" y="1021"/>
      <point x="1140" y="961" type="qcurve"/>
    </contour>
    <contour>
      <point x="521" y="563" type="qcurve" name="sh04"/>
      <point x="521" y="436"/>
      <point x="592" y="271"/>
      <point x="659" y="232" type="qcurve" name="mh01"/>
      <point x="659" y="873" type="line" name="mh02"/>
      <point x="594" y="840"/>
      <point x="521" y="689"/>
    </contour>
  </outline>
</glyph>
<glyph name="yen" format="2">
  <advance width="1300"/>
  <unicode hex="00A5"/>
  <outline>
    <contour>
      <point x="160" y="589" type="line" name="sv02"/>
      <point x="469" y="589" type="line"/>
      <point x="469" y="650" type="line" name="sh01"/>
      <point x="443" y="700" type="line"/>
      <point x="160" y="700" type="line" name="sv01"/>
      <point x="160" y="889" type="line" name="ah02"/>
      <point x="347" y="889" type="line"/>
      <point x="40" y="1500" type="line" name="sh02"/>
      <point x="379" y="1520" type="line" name="hr00"/>
      <point x="571" y="1143" type="line"/>
      <point x="678" y="773" type="line"/>
      <point x="736" y="1143" type="line"/>
      <point x="918" y="1500" type="line"/>
      <point x="1253" y="1500" type="line" name="sh03"/>
      <point x="942" y="889" type="line"/>
      <point x="1160" y="889" type="line" name="ah03"/>
      <point x="1160" y="700" type="line" name="sv03"/>
      <point x="845" y="700" type="line"/>
      <point x="820" y="650" type="line" name="sh05"/>
      <point x="820" y="589" type="line"/>
      <point x="1160" y="589" type="line" name="sv04"/>
      <point x="1160" y="400" type="line" name="sh06"/>
      <point x="820" y="400" type="line"/>
      <point x="820" y="0" type="line" name="sh04"/>
      <point x="469" y="0" type="line" name="ah01"/>
      <point x="469" y="400" type="line"/>
      <point x="160" y="400" type="line" name="sh07"/>
    </contour>
  </outline>
</glyph>
<glyph name="brokenbar" format="2">
  <advance width="1300"/>
  <unicode hex="00A6"/>
  <outline>
    <contour>
      <point x="871" y="1520" type="line" name="hr00"/>
      <point x="871" y="700" type="line"/>
      <point x="529" y="700" type="line"/>
      <point x="529" y="1500" type="line"/>
    </contour>
    <contour>
      <point x="871" y="362" type="line"/>
      <point x="871" y="-400" type="line"/>
      <point x="529" y="-400" type="line"/>
      <point x="529" y="362" type="line"/>
    </contour>
  </outline>
</glyph>
<glyph name="dieresis" format="2">
  <advance width="1300"/>
  <unicode hex="00A8"/>
  <outline>
    <contour>
      <point x="262" y="1566" type="line" name="ah01"/>
      <point x="538" y="1566" type="line"/>
      <point x="538" y="1300" type="line" name="sv01"/>
      <point x="262" y="1300" type="line"/>
    </contour>
    <contour>
      <point x="662" y="1566" type="line" name="ah02"/>
      <point x="938" y="1566" type="line"/>
      <point x="938" y="1300" type="line" name="sv02"/>
      <point x="662" y="1300" type="line"/>
    </contour>
  </outline>
</glyph>
<glyph name="ordfeminine" format="2">
  <advance width="1300"/>
  <unicode hex="00AA"/>
  <outline>
    <contour>
      <point x="159" y="810" type="line" name="hr00"/>
      <point x="601" y="810" type="line"/>
      <point x="601" y="690" type="line"/>
      <point x="159" y="690" type="line"/>
    </contour>
    <contour>
      <point x="612" y="959" type="line" name="hr01"/>
      <point x="442" y="959" type="line" name="hr02"/>
      <point x="442" y="1009" type="line"/>
      <point x="400" y="961" type="line"/>
      <point x="383" y="956"/>
      <point x="348" y="950"/>
      <point x="333" y="950" type="qcurve"/>
      <point x="292" y="950"/>
      <point x="208" y="975"/>
      <point x="140" y="1022"/>
      <point x="98" y="1092"/>
      <point x="98" y="1138" type="qcurve"/>
      <point x="98" y="1186"/>
      <point x="141" y="1256"/>
      <point x="211" y="1301"/>
      <point x="300" y="1323"/>
      <point x="347" y="1323" type="qcurve"/>
      <point x="375" y="1323"/>
      <point x="422" y="1320"/>
      <point x="442" y="1316" type="qcurve"/>
      <point x="440" y="1359"/>
      <point x="401" y="1409"/>
      <point x="361" y="1409" type="qcurve"/>
      <point x="339" y="1409"/>
      <point x="294" y="1404"/>
      <point x="253" y="1395"/>
      <point x="218" y="1384"/>
      <point x="204" y="1378" type="qcurve"/>
      <point x="157" y="1470" type="line"/>
      <point x="180" y="1481"/>
      <point x="223" y="1498"/>
      <point x="270" y="1511"/>
      <point x="327" y="1517"/>
      <point x="366" y="1517" type="qcurve"/>
      <point x="430" y="1517"/>
      <point x="519" y="1486"/>
      <point x="575" y="1428"/>
      <point x="601" y="1348"/>
      <point x="601" y="1299" type="qcurve"/>
      <point x="601" y="1059" type="line"/>
    </contour>
    <contour>
      <point x="442" y="1209" type="line"/>
      <point x="435" y="1209"/>
      <point x="415" y="1210"/>
      <point x="394" y="1211"/>
      <point x="373" y="1211"/>
      <point x="366" y="1211" type="qcurve"/>
      <point x="347" y="1211"/>
      <point x="309" y="1204"/>
      <point x="280" y="1187"/>
      <point x="262" y="1159"/>
      <point x="262" y="1138" type="qcurve"/>
      <point x="262" y="1121"/>
      <point x="275" y="1094"/>
      <point x="296" y="1074"/>
      <point x="323" y="1063"/>
      <point x="337" y="1063" type="qcurve" name="hr03"/>
      <point x="366" y="1063"/>
      <point x="418" y="1088"/>
      <point x="442" y="1109" type="qcurve"/>
    </contour>
  </outline>
</glyph>
<glyph name="guillemotleft" format="2">
  <advance width="1300"/>
  <unicode hex="00AB"/>
  <outline>
    <contour>
      <point x="584" y="1106" type="line" name="at01"/>
      <point x="673" y="880" type="line" name="sv01"/>
      <point x="342" y="583" type="line"/>
      <point x="266" y="550" type="line" name="iv01"/>
      <point x="341" y="517" type="line"/>
      <point x="675" y="224" type="line" name="sv02"/>
      <point x="581" y="-13" type="line" name="ab01"/>
      <point x="26" y="476" type="line" name="dv01"/>
      <point x="26" y="620" type="line" name="dv02"/>
    </contour>
    <contour>
      <point x="1084" y="1106" type="line" name="at02"/>
      <point x="1173" y="880" type="line" name="sv03"/>
      <point x="842" y="583" type="line"/>
      <point x="766" y="550" type="line" name="iv02"/>
      <point x="841" y="517" type="line"/>
      <point x="1175" y="224" type="line" name="sv04"/>
      <point x="1081" y="-13" type="line" name="ab02"/>
      <point x="526" y="476" type="line" name="dv03"/>
      <point x="526" y="620" type="line" name="dv04"/>
    </contour>
  </outline>
</glyph>
<glyph name="logicalnot" format="2">
  <advance width="1300"/>
  <unicode hex="00AC"/>
  <outline>
    <contour>
      <point x="1261" y="827" type="line" name="hr00"/>
      <point x="1242" y="586" type="line"/>
      <point x="1242" y="258" type="line"/>
      <point x="900" y="258" type="line"/>
      <point x="900" y="459" type="line"/>
      <point x="912" y="600" type="line"/>
      <point x="62" y="600" type="line"/>
      <point x="62" y="827" type="line"/>
    </contour>
  </outline>
</glyph>
<glyph name="registered" format="2">
  <advance width="1300"/>
  <unicode hex="00AE"/>
  <outline>
    <contour>
      <point x="650" y="1517" type="qcurve" name="hr00"/>
      <point x="553" y="1517"/>
      <point x="382" y="1443"/>
      <point x="254" y="1315"/>
      <point x="180" y="1144"/>
      <point x="180" y="1047" type="qcurve"/>
      <point x="180" y="949"/>
      <point x="254" y="778"/>
      <point x="382" y="651"/>
      <point x="553" y="577"/>
      <point x="650" y="577" type="qcurve"/>
      <point x="747" y="577"/>
      <point x="918" y="651"/>
      <point x="1046" y="778" name="hr01"/>
      <point x="1120" y="949"/>
      <point x="1120" y="1047" type="qcurve"/>
      <point x="1120" y="1144" name="hr02"/>
      <point x="1046" y="1315"/>
      <point x="918" y="1443"/>
      <point x="747" y="1517"/>
    </contour>
    <contour>
      <point x="650" y="701" type="qcurve"/>
      <point x="579" y="701"/>
      <point x="453" y="757"/>
      <point x="359" y="852"/>
      <point x="304" y="977"/>
      <point x="304" y="1047" type="qcurve"/>
      <point x="304" y="1119"/>
      <point x="358" y="1245"/>
      <point x="452" y="1339"/>
      <point x="578" y="1393"/>
      <point x="650" y="1393" type="qcurve"/>
      <point x="722" y="1393"/>
      <point x="848" y="1339"/>
      <point x="942" y="1245"/>
      <point x="996" y="1119"/>
      <point x="996" y="1047" type="qcurve"/>
      <point x="996" y="976"/>
      <point x="940" y="850"/>
      <point x="845" y="756"/>
      <point x="720" y="701"/>
    </contour>
    <contour>
      <point x="601" y="1231" type="line"/>
      <point x="607" y="1232"/>
      <point x="616" y="1232"/>
      <point x="628" y="1232" type="qcurve"/>
      <point x="643" y="1232"/>
      <point x="672" y="1225"/>
      <point x="696" y="1207"/>
      <point x="711" y="1176"/>
      <point x="711" y="1153" type="qcurve"/>
      <point x="711" y="1118"/>
      <point x="670" y="1065"/>
      <point x="627" y="1065" type="qcurve"/>
      <point x="607" y="1065" type="line"/>
      <point x="607" y="1174" type="line"/>
    </contour>
    <contour>
      <point x="752" y="800" type="line"/>
      <point x="869" y="800" type="line"/>
      <point x="730" y="993" type="line"/>
      <point x="685" y="1004" type="line"/>
      <point x="711" y="1011"/>
      <point x="759" y="1035"/>
      <point x="795" y="1071"/>
      <point x="817" y="1122"/>
      <point x="817" y="1158" type="qcurve"/>
      <point x="817" y="1228"/>
      <point x="709" y="1300"/>
      <point x="621" y="1300" type="qcurve"/>
      <point x="607" y="1300"/>
      <point x="571" y="1298"/>
      <point x="533" y="1296"/>
      <point x="496" y="1292"/>
      <point x="482" y="1291" type="qcurve"/>
      <point x="494" y="1218" type="line"/>
      <point x="494" y="800" type="line"/>
      <point x="607" y="800" type="line"/>
      <point x="607" y="993" type="line"/>
      <point x="609" y="993"/>
      <point x="618" y="991"/>
      <point x="622" y="987" type="qcurve"/>
    </contour>
  </outline>
</glyph>
<glyph name="macron" format="2">
  <advance width="1300"/>
  <unicode hex="00AF"/>
  <outline>
    <contour>
      <point x="300" y="1500" type="line" name="at01"/>
      <point x="1000" y="1500" type="line"/>
      <point x="1000" y="1282" type="line" name="sv02"/>
      <point x="300" y="1282" type="line" name="sv01"/>
    </contour>
  </outline>
</glyph>
<glyph name="degree" format="2">
  <advance width="1300"/>
  <unicode hex="00B0"/>
  <outline>
    <contour>
      <point x="500" y="1517" type="qcurve" name="at01"/>
      <point x="561" y="1517"/>
      <point x="669" y="1475"/>
      <point x="750" y="1401"/>
      <point x="796" y="1303"/>
      <point x="796" y="1247" type="qcurve" name="ah02"/>
      <point x="796" y="1191"/>
      <point x="750" y="1093"/>
      <point x="669" y="1020"/>
      <point x="561" y="977"/>
      <point x="500" y="977" type="qcurve" name="av01"/>
      <point x="438" y="977"/>
      <point x="331" y="1020"/>
      <point x="250" y="1093"/>
      <point x="204" y="1191"/>
      <point x="204" y="1247" type="qcurve" name="ah01"/>
      <point x="204" y="1303"/>
      <point x="250" y="1401"/>
      <point x="331" y="1475"/>
      <point x="438" y="1517"/>
    </contour>
    <contour>
      <point x="500" y="1145" type="qcurve" name="sv01"/>
      <point x="523" y="1145"/>
      <point x="564" y="1161"/>
      <point x="594" y="1189"/>
      <point x="612" y="1226"/>
      <point x="612" y="1247" type="qcurve" name="sh01"/>
      <point x="612" y="1268"/>
      <point x="594" y="1305"/>
      <point x="564" y="1333"/>
      <point x="523" y="1349"/>
      <point x="500" y="1349" type="qcurve" name="sv02"/>
      <point x="477" y="1349"/>
      <point x="436" y="1333"/>
      <point x="406" y="1305"/>
      <point x="388" y="1268"/>
      <point x="388" y="1247" type="qcurve" name="sh02"/>
      <point x="388" y="1226"/>
      <point x="406" y="1189"/>
      <point x="436" y="1161"/>
      <point x="477" y="1145"/>
    </contour>
  </outline>
</glyph>
<glyph name="plusminus" format="2">
  <advance width="1300"/>
  <unicode hex="00B1"/>
  <outline>
    <contour>
      <point x="179" y="862" type="line" name="mv01"/>
      <point x="539" y="862" type="line" name="mv02"/>
      <point x="539" y="1196" type="line" name="mv03"/>
      <point x="759" y="1196" type="line" name="mh01"/>
      <point x="759" y="862" type="line" name="mh02"/>
      <point x="1119" y="862" type="line" name="mv04"/>
      <point x="1119" y="702" type="line"/>
      <point x="759" y="702" type="line" name="ih01"/>
      <point x="759" y="382" type="line" name="ih02"/>
      <point x="539" y="382" type="line" name="ih05"/>
      <point x="539" y="702" type="line" name="ih06"/>
      <point x="179" y="702" type="line"/>
    </contour>
    <contour>
      <point x="200" y="290" type="line" name="mh04"/>
      <point x="1100" y="290" type="line" name="mh03"/>
      <point x="1100" y="88" type="line" name="ih03"/>
      <point x="200" y="88" type="line" name="ih04"/>
    </contour>
  </outline>
</glyph>
<glyph name="threesuperior" format="2">
  <advance width="1300"/>
  <unicode hex="00B3"/>
  <outline>
    <contour>
      <point x="240" y="1100" type="line" name="hr00"/>
      <point x="259" y="1101"/>
      <point x="323" y="1105"/>
      <point x="343" y="1105" type="curve" smooth="yes"/>
      <point x="426" y="1105"/>
      <point x="496" y="1079"/>
      <point x="496" y="1001" type="curve" smooth="yes"/>
      <point x="496" y="893"/>
      <point x="341" y="825"/>
      <point x="184" y="820" type="curve"/>
      <point x="184" y="720" type="line"/>
      <point x="405" y="720"/>
      <point x="667" y="808"/>
      <point x="667" y="1006" type="curve" smooth="yes"/>
      <point x="667" y="1129"/>
      <point x="574" y="1204"/>
      <point x="433" y="1204" type="curve"/>
      <point x="511" y="1246" type="line"/>
      <point x="559" y="1288"/>
      <point x="600" y="1331"/>
      <point x="620" y="1383" type="curve"/>
      <point x="620" y="1470" type="line"/>
      <point x="199" y="1470" type="line"/>
      <point x="189" y="1370" type="line"/>
      <point x="354" y="1370" type="line"/>
      <point x="484" y="1407" type="line"/>
      <point x="436" y="1330"/>
      <point x="299" y="1231"/>
      <point x="240" y="1189" type="curve"/>
    </contour>
  </outline>
</glyph>
<glyph name="acute" format="2">
  <advance width="1300"/>
  <unicode hex="00B4"/>
  <outline>
    <contour>
      <point x="563" y="1500" type="line" name="ah01"/>
      <point x="900" y="1520" type="line" name="sh01"/>
      <point x="615" y="1200" type="line"/>
      <point x="400" y="1200" type="line" name="mh01"/>
    </contour>
  </outline>
</glyph>
<glyph name="mu" format="2">
  <advance width="1300"/>
  <unicode hex="00B5"/>
  <outline>
    <contour>
      <point x="1269" y="51" type="line" name="hr00"/>
      <point x="1254" y="37"/>
      <point x="1220" y="13"/>
      <point x="1170" y="-6"/>
      <point x="1103" y="-17"/>
      <point x="1055" y="-17" type="qcurve" name="ab02"/>
      <point x="1021" y="-17"/>
      <point x="955" y="7"/>
      <point x="897" y="57"/>
      <point x="848" y="135"/>
      <point x="832" y="190" type="qcurve" name="ih01"/>
      <point x="785" y="72" type="line"/>
      <point x="767" y="56"/>
      <point x="720" y="24"/>
      <point x="660" y="-1"/>
      <point x="588" y="-17"/>
      <point x="545" y="-17" type="qcurve" name="ab01"/>
      <point x="525" y="-17"/>
      <point x="467" y="-7"/>
      <point x="408" y="10"/>
      <point x="358" y="30"/>
      <point x="346" y="40" type="qcurve"/>
      <point x="411" y="-166" type="line"/>
      <point x="411" y="-500" type="line" name="ab03"/>
      <point x="100" y="-500" type="line"/>
      <point x="100" y="1093" type="line" name="sh02"/>
      <point x="411" y="1125" type="line" name="av01"/>
      <point x="411" y="362" type="line" name="sh03"/>
      <point x="411" y="324"/>
      <point x="436" y="263"/>
      <point x="477" y="221"/>
      <point x="528" y="199"/>
      <point x="555" y="199" type="qcurve" name="sv01"/>
      <point x="598" y="199"/>
      <point x="671" y="240"/>
      <point x="700" y="268" type="qcurve" name="sh04"/>
      <point x="700" y="1093" type="line" name="ah01"/>
      <point x="1011" y="1125" type="line" name="sh01"/>
      <point x="1011" y="365" type="line"/>
      <point x="1011" y="273"/>
      <point x="1049" y="199"/>
      <point x="1084" y="199" type="qcurve"/>
      <point x="1111" y="199"/>
      <point x="1145" y="210"/>
      <point x="1170" y="223" type="qcurve"/>
    </contour>
  </outline>
</glyph>
<glyph name="paragraph" format="2">
  <advance width="1300"/>
  <unicode hex="00B6"/>
  <outline>
    <contour>
      <point x="933" y="1298" type="line" name="mh01"/>
      <point x="799" y="1298" type="line"/>
      <point x="799" y="-400" type="line" name="mh02"/>
      <point x="530" y="-400" type="line"/>
      <point x="530" y="604" type="line"/>
      <point x="453" y="614"/>
      <point x="304" y="672"/>
      <point x="187" y="777"/>
      <point x="115" y="937"/>
      <point x="115" y="1050" type="qcurve"/>
      <point x="115" y="1137"/>
      <point x="159" y="1272"/>
      <point x="235" y="1372"/>
      <point x="337" y="1440"/>
      <point x="451" y="1482"/>
      <point x="572" y="1500"/>
      <point x="630" y="1500" type="qcurve"/>
      <point x="1200" y="1500" type="line"/>
      <point x="1200" y="-400" type="line"/>
      <point x="933" y="-400" type="line" name="mh03"/>
    </contour>
  </outline>
</glyph>
<glyph name="periodcentered" format="2">
  <advance width="1300"/>
  <unicode hex="00B7"/>
  <outline>
    <contour>
      <point x="103" y="683" type="qcurve" name="ah01"/>
      <point x="103" y="724"/>
      <point x="134" y="796"/>
      <point x="188" y="850"/>
      <point x="259" y="881"/>
      <point x="300" y="881" type="qcurve" name="av01"/>
      <point x="341" y="881"/>
      <point x="413" y="850"/>
      <point x="467" y="796"/>
      <point x="498" y="724"/>
      <point x="498" y="683" type="qcurve" name="ah02"/>
      <point x="498" y="642"/>
      <point x="467" y="569"/>
      <point x="414" y="515"/>
      <point x="342" y="483"/>
      <point x="302" y="483" type="qcurve" name="ab01"/>
      <point x="261" y="483"/>
      <point x="188" y="515"/>
      <point x="134" y="569"/>
      <point x="103" y="642"/>
    </contour>
  </outline>
</glyph>
<glyph name="cedilla" format="2">
  <advance width="1300"/>
  <unicode hex="00B8"/>
  <outline>
    <contour>
      <point x="884" y="0" type="line" name="hr00"/>
      <point x="911" y="-20"/>
      <point x="933" y="-46" type="qcurve"/>
      <point x="952" y="-69"/>
      <point x="983" y="-132"/>
      <point x="983" y="-171" type="qcurve"/>
      <point x="983" y="-221"/>
      <point x="936" y="-307"/>
      <point x="856" y="-370"/>
      <point x="752" y="-407"/>
      <point x="695" y="-407" type="qcurve"/>
      <point x="635" y="-407"/>
      <point x="520" y="-371"/>
      <point x="472" y="-349" type="qcurve"/>
      <point x="417" y="-323"/>
      <point x="366" y="-290" type="qcurve"/>
      <point x="481" y="-131" type="line"/>
      <point x="513" y="-151"/>
      <point x="545" y="-166" type="qcurve"/>
      <point x="571" y="-179" name="hr02"/>
      <point x="630" y="-200"/>
      <point x="652" y="-200" type="qcurve"/>
      <point x="675" y="-200"/>
      <point x="716" y="-175"/>
      <point x="716" y="-147" type="qcurve"/>
      <point x="716" y="-126"/>
      <point x="692" y="-79"/>
      <point x="660" y="-37" name="hr01"/>
      <point x="629" y="-6"/>
      <point x="622" y="0" type="qcurve"/>
    </contour>
  </outline>
</glyph>
<glyph name="onesuperior" format="2">
  <advance width="1300"/>
  <unicode hex="00B9"/>
  <outline>
    <contour>
      <point x="386" y="820" type="line" name="hr00"/>
      <point x="265" y="820" type="line"/>
      <point x="265" y="720" type="line"/>
      <point x="673" y="720" type="line"/>
      <point x="673" y="820" type="line"/>
      <point x="552" y="820" type="line"/>
      <point x="552" y="1470" type="line"/>
      <point x="430" y="1480" type="line"/>
      <point x="190" y="1261" type="line"/>
      <point x="268" y="1169" type="line"/>
      <point x="310" y="1206" type="line"/>
      <point x="423" y="1341" type="line"/>
      <point x="386" y="1160" type="line"/>
    </contour>
  </outline>
</glyph>
<glyph name="guillemotright" format="2">
  <advance width="1300"/>
  <unicode hex="00BB"/>
  <outline>
    <contour>
      <point x="777" y="619" type="line" name="dv01"/>
      <point x="777" y="476" type="line" name="dv02"/>
      <point x="221" y="-13" type="line" name="ab01"/>
      <point x="127" y="224" type="line" name="sv01"/>
      <point x="461" y="517" type="line"/>
      <point x="535" y="550" type="line" name="iv01"/>
      <point x="460" y="582" type="line"/>
      <point x="129" y="880" type="line" name="sv02"/>
      <point x="218" y="1106" type="line" name="at01"/>
    </contour>
    <contour>
      <point x="1277" y="619" type="line" name="dv03"/>
      <point x="1277" y="476" type="line" name="dv04"/>
      <point x="721" y="-13" type="line" name="ab02"/>
      <point x="627" y="224" type="line" name="sv03"/>
      <point x="961" y="517" type="line"/>
      <point x="1035" y="550" type="line" name="iv02"/>
      <point x="960" y="582" type="line"/>
      <point x="629" y="880" type="line" name="sv04"/>
      <point x="718" y="1106" type="line" name="at02"/>
    </contour>
  </outline>
</glyph>
<glyph name="onequarter" format="2">
  <advance width="1300"/>
  <unicode hex="00BC"/>
  <outline>
    <contour>
      <point x="1220" y="1500" type="line" name="hr00"/>
      <point x="1044" y="1500" type="line"/>
      <point x="269" y="0" type="line"/>
      <point x="454" y="0" type="line"/>
    </contour>
    <contour>
      <point x="1274" y="250" type="line" name="hr01"/>
      <point x="1174" y="250" type="line"/>
      <point x="1174" y="400" type="line"/>
      <point x="1014" y="390" type="line"/>
      <point x="1014" y="250" type="line"/>
      <point x="868" y="250" type="line"/>
      <point x="955" y="381" type="line"/>
      <point x="1121" y="750" type="line"/>
      <point x="980" y="760" type="line"/>
      <point x="734" y="250" type="line"/>
      <point x="734" y="150" type="line"/>
      <point x="1014" y="150" type="line"/>
      <point x="1014" y="0" type="line"/>
      <point x="1174" y="0" type="line"/>
      <point x="1174" y="150" type="line"/>
      <point x="1263" y="150" type="line"/>
    </contour>
    <contour>
      <point x="284" y="820" type="line" name="hr02"/>
      <point x="163" y="820" type="line"/>
      <point x="163" y="720" type="line"/>
      <point x="571" y="720" type="line"/>
      <point x="571" y="820" type="line"/>
      <point x="450" y="820" type="line"/>
      <point x="450" y="1470" type="line"/>
      <point x="328" y="1480" type="line"/>
      <point x="88" y="1261" type="line"/>
      <point x="166" y="1169" type="line"/>
      <point x="208" y="1206" type="line"/>
      <point x="321" y="1341" type="line"/>
      <point x="284" y="1160" type="line"/>
    </contour>
  </outline>
</glyph>
<glyph name="onehalf" format="2">
  <advance width="1300"/>
  <unicode hex="00BD"/>
  <outline>
    <contour>
      <point x="1190" y="1500" type="line" name="hr00"/>
      <point x="1014" y="1500" type="line"/>
      <point x="239" y="0" type="line"/>
      <point x="424" y="0" type="line"/>
    </contour>
    <contour>
      <point x="1283" y="0" type="line" name="hr01"/>
      <point x="1283" y="100" type="line"/>
      <point x="962" y="100" type="line"/>
      <point x="991" y="141"/>
      <point x="1072" y="230"/>
      <point x="1139" y="310" type="curve" smooth="yes"/>
      <point x="1206" y="390"/>
      <point x="1270" y="449"/>
      <point x="1270" y="543" type="curve" smooth="yes"/>
      <point x="1270" y="649"/>
      <point x="1183" y="758"/>
      <point x="1031" y="758" type="curve" smooth="yes"/>
      <point x="902" y="758"/>
      <point x="818" y="693"/>
      <point x="780" y="591" type="curve"/>
      <point x="896" y="548" type="line"/>
      <point x="928" y="610"/>
      <point x="969" y="650"/>
      <point x="1023" y="650" type="curve" smooth="yes"/>
      <point x="1077" y="650"/>
      <point x="1112" y="598"/>
      <point x="1112" y="548" type="curve" smooth="yes"/>
      <point x="1112" y="485"/>
      <point x="1086" y="465"/>
      <point x="1013" y="387" type="curve" smooth="yes"/>
      <point x="950" y="319"/>
      <point x="840" y="193"/>
      <point x="778" y="95" type="curve"/>
      <point x="778" y="0" type="line"/>
    </contour>
    <contour>
      <point x="284" y="820" type="line" name="hr02"/>
      <point x="163" y="820" type="line"/>
      <point x="163" y="720" type="line"/>
      <point x="571" y="720" type="line"/>
      <point x="571" y="820" type="line"/>
      <point x="450" y="820" type="line"/>
      <point x="450" y="1470" type="line"/>
      <point x="328" y="1480" type="line"/>
      <point x="88" y="1261" type="line"/>
      <point x="166" y="1169" type="line"/>
      <point x="208" y="1206" type="line"/>
      <point x="321" y="1341" type="line"/>
      <point x="284" y="1160" type="line"/>
    </contour>
  </outline>
</glyph>
<glyph name="threequarters" format="2">
  <advance width="1300"/>
  <unicode hex="00BE"/>
  <outline>
    <contour>
      <point x="1220" y="1500" type="line" name="hr00"/>
      <point x="1044" y="1500" type="line"/>
      <point x="269" y="0" type="line"/>
      <point x="454" y="0" type="line"/>
    </contour>
    <contour>
      <point x="1252" y="250" type="line" name="hr01"/>
      <point x="1152" y="250" type="line"/>
      <point x="1152" y="400" type="line"/>
      <point x="992" y="390" type="line"/>
      <point x="992" y="250" type="line"/>
      <point x="846" y="250" type="line"/>
      <point x="933" y="381" type="line"/>
      <point x="1099" y="750" type="line"/>
      <point x="958" y="760" type="line"/>
      <point x="712" y="250" type="line"/>
      <point x="712" y="150" type="line"/>
      <point x="992" y="150" type="line"/>
      <point x="992" y="0" type="line"/>
      <point x="1152" y="0" type="line"/>
      <point x="1152" y="150" type="line"/>
      <point x="1241" y="150" type="line"/>
    </contour>
    <contour>
      <point x="240" y="1100" type="line" name="hr02"/>
      <point x="259" y="1101"/>
      <point x="323" y="1105"/>
      <point x="343" y="1105" type="curve" smooth="yes"/>
      <point x="426" y="1105"/>
      <point x="496" y="1079"/>
      <point x="496" y="1001" type="curve" smooth="yes"/>
      <point x="496" y="893"/>
      <point x="341" y="825"/>
      <point x="184" y="820" type="curve"/>
      <point x="184" y="720" type="line"/>
      <point x="405" y="720"/>
      <point x="667" y="808"/>
      <point x="667" y="1006" type="curve" smooth="yes"/>
      <point x="667" y="1129"/>
      <point x="574" y="1204"/>
      <point x="433" y="1204" type="curve"/>
      <point x="511" y="1246" type="line"/>
      <point x="559" y="1288"/>
      <point x="600" y="1331"/>
      <point x="620" y="1383" type="curve"/>
      <point x="620" y="1470" type="line"/>
      <point x="199" y="1470" type="line"/>
      <point x="189" y="1370" type="line"/>
      <point x="354" y="1370" type="line"/>
      <point x="484" y="1407" type="line"/>
      <point x="436" y="1330"/>
      <point x="299" y="1231"/>
      <point x="240" y="1189" type="curve"/>
    </contour>
  </outline>
</glyph>
<glyph name="Agrave" format="2">
  <advance width="1300"/>
  <unicode hex="00C0"/>
  <outline>
    <contour>
      <point x="50" y="0" type="line" name="sh02"/>
      <point x="405" y="1284" type="line"/>
      <point x="441" y="1500" type="line"/>
      <point x="819" y="1520" type="line" name="at01"/>
      <point x="1250" y="0" type="line" name="sh04"/>
      <point x="916" y="0" type="line" name="sh03"/>
      <point x="812" y="427" type="line" name="dv01"/>
      <point x="470" y="427" type="line"/>
      <point x="369" y="0" type="line" name="sh01"/>
    </contour>
    <contour>
      <point x="643" y="1331" type="line" name="ah01"/>
      <point x="604" y="990" type="line"/>
      <point x="529" y="646" type="line" name="ih01"/>
      <point x="753" y="646" type="line" name="ih02"/>
      <point x="681" y="990" type="line" name="hr00"/>
    </contour>
    <contour>
      <point x="800" y="1600" type="line" name="av01"/>
      <point x="585" y="1600" type="line" name="mv01"/>
      <point x="300" y="1920" type="line" name="iv01"/>
      <point x="637" y="1900" type="line" name="at02"/>
    </contour>
  </outline>
</glyph>
<glyph name="Aacute" format="2">
  <advance width="1300"/>
  <unicode hex="00C1"/>
  <outline>
    <contour>
      <point x="50" y="0" type="line" name="sh02"/>
      <point x="405" y="1284" type="line"/>
      <point x="441" y="1500" type="line"/>
      <point x="819" y="1520" type="line" name="at01"/>
      <point x="1250" y="0" type="line" name="sh04"/>
      <point x="916" y="0" type="line" name="sh03"/>
      <point x="812" y="427" type="line" name="dv01"/>
      <point x="470" y="427" type="line"/>
      <point x="369" y="0" type="line" name="sh01"/>
    </contour>
    <contour>
      <point x="643" y="1331" type="line" name="ah01"/>
      <point x="604" y="990" type="line"/>
      <point x="529" y="646" type="line" name="ih01"/>
      <point x="753" y="646" type="line" name="ih02"/>
      <point x="681" y="990" type="line" name="hr00"/>
    </contour>
    <contour>
      <point x="663" y="1900" type="line" name="ah02"/>
      <point x="1000" y="1920" type="line" name="sh05"/>
      <point x="715" y="1600" type="line" name="mv01"/>
      <point x="500" y="1600" type="line" name="mh01"/>
    </contour>
  </outline>
</glyph>
<glyph name="Acircumflex" format="2">
  <advance width="1300"/>
  <unicode hex="00C2"/>
  <outline>
    <contour>
      <point x="50" y="0" type="line" name="sh02"/>
      <point x="405" y="1284" type="line"/>
      <point x="441" y="1500" type="line"/>
      <point x="819" y="1520" type="line" name="at01"/>
      <point x="1250" y="0" type="line" name="sh04"/>
      <point x="916" y="0" type="line" name="sh03"/>
      <point x="812" y="427" type="line" name="dv01"/>
      <point x="470" y="427" type="line"/>
      <point x="369" y="0" type="line" name="sh01"/>
    </contour>
    <contour>
      <point x="643" y="1331" type="line" name="ah01"/>
      <point x="604" y="990" type="line"/>
      <point x="529" y="646" type="line" name="ih01"/>
      <point x="753" y="646" type="line" name="ih02"/>
      <point x="681" y="990" type="line" name="hr00"/>
    </contour>
    <contour>
      <point x="958" y="1620" type="line" name="ah03"/>
      <point x="738" y="1620" type="line" name="sh05"/>
      <point x="668" y="1723" type="line" name="mv01"/>
      <point x="638" y="1850" type="line" name="ih03"/>
      <point x="608" y="1723" type="line" name="mh01"/>
      <point x="527" y="1620" type="line" name="sh06"/>
      <point x="288" y="1620" type="line" name="ah02"/>
      <point x="483" y="1900" type="line" name="ih04"/>
      <point x="773" y="1920" type="line" name="ih05"/>
    </contour>
  </outline>
</glyph>
<glyph name="Atilde" format="2">
  <advance width="1300"/>
  <unicode hex="00C3"/>
  <outline>
    <contour>
      <point x="50" y="0" type="line" name="sh02"/>
      <point x="405" y="1284" type="line"/>
      <point x="441" y="1500" type="line"/>
      <point x="819" y="1520" type="line" name="at01"/>
      <point x="1250" y="0" type="line" name="sh04"/>
      <point x="916" y="0" type="line" name="sh03"/>
      <point x="812" y="427" type="line" name="dv01"/>
      <point x="470" y="427" type="line"/>
      <point x="369" y="0" type="line" name="sh01"/>
    </contour>
    <contour>
      <point x="643" y="1331" type="line" name="ah01"/>
      <point x="604" y="990" type="line"/>
      <point x="529" y="646" type="line" name="ih01"/>
      <point x="753" y="646" type="line" name="ih02"/>
      <point x="681" y="990" type="line"/>
    </contour>
    <contour>
      <point x="255" y="1627" type="line" name="sh05"/>
      <point x="259" y="1667"/>
      <point x="291" y="1758"/>
      <point x="351" y="1834"/>
      <point x="443" y="1884" name="mv01"/>
      <point x="506" y="1884" type="qcurve" name="ah02"/>
      <point x="555" y="1884"/>
      <point x="622" y="1859"/>
      <point x="676" y="1829"/>
      <point x="725" y="1804"/>
      <point x="756" y="1804" type="qcurve" name="av03"/>
      <point x="777" y="1804"/>
      <point x="805" y="1818"/>
      <point x="824" y="1842"/>
      <point x="834" y="1874"/>
      <point x="837" y="1892" type="qcurve"/>
      <point x="1004" y="1882" type="line" name="av04"/>
      <point x="1001" y="1838" name="mh01"/>
      <point x="973" y="1745"/>
      <point x="916" y="1669"/>
      <point x="826" y="1620" name="mv02"/>
      <point x="759" y="1620" type="qcurve" name="av01"/>
      <point x="713" y="1620"/>
      <point x="650" y="1645" name="hr03"/>
      <point x="598" y="1675"/>
      <point x="545" y="1700" name="hr02"/>
      <point x="510" y="1700" type="qcurve" name="av02"/>
      <point x="492" y="1700"/>
      <point x="468" y="1686"/>
      <point x="451" y="1664" name="hr01"/>
      <point x="441" y="1635" name="hr00"/>
      <point x="437" y="1620" type="qcurve" name="sh06"/>
    </contour>
  </outline>
</glyph>
<glyph name="Adieresis" format="2">
  <advance width="1300"/>
  <unicode hex="00C4"/>
  <outline>
    <contour>
      <point x="50" y="0" type="line" name="sh02"/>
      <point x="405" y="1284" type="line"/>
      <point x="441" y="1500" type="line"/>
      <point x="819" y="1520" type="line" name="at01"/>
      <point x="1250" y="0" type="line" name="sh04"/>
      <point x="916" y="0" type="line" name="sh03"/>
      <point x="812" y="427" type="line" name="dv01"/>
      <point x="470" y="427" type="line"/>
      <point x="369" y="0" type="line" name="sh01"/>
    </contour>
    <contour>
      <point x="643" y="1331" type="line" name="ah01"/>
      <point x="604" y="990" type="line"/>
      <point x="529" y="646" type="line" name="ih01"/>
      <point x="753" y="646" type="line" name="ih02"/>
      <point x="681" y="990" type="line"/>
    </contour>
    <contour>
      <point x="304" y="1866" type="line" name="ah02"/>
      <point x="580" y="1866" type="line"/>
      <point x="580" y="1600" type="line" name="sv01"/>
      <point x="304" y="1600" type="line"/>
    </contour>
    <contour>
      <point x="704" y="1866" type="line" name="ah03"/>
      <point x="980" y="1866" type="line"/>
      <point x="980" y="1600" type="line" name="sv02"/>
      <point x="704" y="1600" type="line"/>
    </contour>
  </outline>
</glyph>
<glyph name="Aring" format="2">
  <advance width="1300"/>
  <unicode hex="00C5"/>
  <outline>
    <contour>
      <point x="50" y="0" type="line" name="sh02"/>
      <point x="405" y="1284" type="line"/>
      <point x="441" y="1500" type="line"/>
      <point x="819" y="1520" type="line" name="at01"/>
      <point x="1250" y="0" type="line" name="sh04"/>
      <point x="916" y="0" type="line" name="sh03"/>
      <point x="812" y="427" type="line" name="dv01"/>
      <point x="470" y="427" type="line"/>
      <point x="369" y="0" type="line" name="sh01"/>
    </contour>
    <contour>
      <point x="643" y="1331" type="line" name="ah01"/>
      <point x="604" y="990" type="line"/>
      <point x="529" y="646" type="line" name="ih01"/>
      <point x="753" y="646" type="line" name="ih02"/>
      <point x="681" y="990" type="line"/>
    </contour>
    <contour>
      <point x="644" y="1927" type="qcurve" name="av01"/>
      <point x="703" y="1927"/>
      <point x="806" y="1882"/>
      <point x="883" y="1805"/>
      <point x="928" y="1701"/>
      <point x="928" y="1642" type="qcurve" name="ah03"/>
      <point x="928" y="1583"/>
      <point x="884" y="1478"/>
      <point x="808" y="1399"/>
      <point x="705" y="1353"/>
      <point x="646" y="1353" type="qcurve" name="at02"/>
      <point x="587" y="1353"/>
      <point x="482" y="1399"/>
      <point x="404" y="1478"/>
      <point x="358" y="1583"/>
      <point x="358" y="1642" type="qcurve" name="ah02"/>
      <point x="358" y="1701"/>
      <point x="403" y="1805"/>
      <point x="481" y="1882"/>
      <point x="585" y="1927"/>
    </contour>
    <contour>
      <point x="645" y="1542" type="qcurve" name="sv01"/>
      <point x="665" y="1542"/>
      <point x="700" y="1558"/>
      <point x="726" y="1585"/>
      <point x="741" y="1621"/>
      <point x="741" y="1641" type="qcurve" name="sh05"/>
      <point x="741" y="1661"/>
      <point x="726" y="1696"/>
      <point x="700" y="1723"/>
      <point x="664" y="1738"/>
      <point x="644" y="1738" type="qcurve" name="sv02"/>
      <point x="624" y="1738"/>
      <point x="588" y="1723"/>
      <point x="562" y="1696"/>
      <point x="547" y="1661"/>
      <point x="547" y="1641" type="qcurve" name="sh06"/>
      <point x="547" y="1621"/>
      <point x="562" y="1585"/>
      <point x="589" y="1558"/>
      <point x="625" y="1542"/>
    </contour>
  </outline>
</glyph>
<glyph name="AE" format="2">
  <advance width="1300"/>
  <unicode hex="00C6"/>
  <outline>
    <contour>
      <point x="1300" y="228" type="line" name="hr00"/>
      <point x="1273" y="0" type="line"/>
      <point x="583" y="0" type="line"/>
      <point x="601" y="231" type="line"/>
      <point x="601" y="427" type="line"/>
      <point x="430" y="427" type="line"/>
      <point x="395" y="324"/>
      <point x="319" y="102"/>
      <point x="284" y="0" type="qcurve"/>
      <point x="0" y="0" type="line"/>
      <point x="445" y="1284" type="line"/>
      <point x="491" y="1500" type="line"/>
      <point x="1263" y="1500" type="line"/>
      <point x="1263" y="1272" type="line"/>
      <point x="871" y="1272" type="line"/>
      <point x="876" y="1237"/>
      <point x="884" y="1167"/>
      <point x="887" y="1133" type="qcurve"/>
      <point x="887" y="916" type="line"/>
      <point x="1196" y="916" type="line"/>
      <point x="1196" y="703" type="line"/>
      <point x="887" y="703" type="line"/>
      <point x="887" y="360" type="line"/>
      <point x="880" y="228" type="line"/>
    </contour>
    <contour>
      <point x="601" y="1200" type="line"/>
      <point x="543" y="851" type="line"/>
      <point x="478" y="599" type="line"/>
      <point x="601" y="599" type="line"/>
    </contour>
  </outline>
</glyph>
<glyph name="Ccedilla" format="2">
  <advance width="1300"/>
  <unicode hex="00C7"/>
  <outline>
    <contour>
      <point x="1210" y="133" type="line" name="ah02"/>
      <point x="1108" y="52"/>
      <point x="885" y="-17"/>
      <point x="754" y="-17" type="qcurve" name="ab01"/>
      <point x="599" y="-17"/>
      <point x="353" y="108"/>
      <point x="181" y="322" name="mh01"/>
      <point x="90" y="608"/>
      <point x="90" y="769" type="qcurve" name="dh01"/>
      <point x="90" y="870"/>
      <point x="124" y="1059" name="mh02"/>
      <point x="194" y="1226"/>
      <point x="302" y="1363"/>
      <point x="451" y="1462" name="mv01"/>
      <point x="641" y="1517"/>
      <point x="758" y="1517" type="qcurve" name="at01"/>
      <point x="888" y="1517"/>
      <point x="1122" y="1429"/>
      <point x="1210" y="1344" type="qcurve" name="ah01"/>
      <point x="1062" y="1160" type="line" name="mv02"/>
      <point x="1029" y="1182"/>
      <point x="956" y="1222"/>
      <point x="882" y="1252"/>
      <point x="808" y="1270"/>
      <point x="774" y="1270" type="qcurve" name="sv01"/>
      <point x="679" y="1270"/>
      <point x="551" y="1192" name="mv03"/>
      <point x="473" y="1057"/>
      <point x="440" y="875"/>
      <point x="440" y="772" type="qcurve" name="dh02"/>
      <point x="440" y="711"/>
      <point x="457" y="584"/>
      <point x="492" y="464"/>
      <point x="547" y="358" name="mh03"/>
      <point x="622" y="279"/>
      <point x="718" y="233"/>
      <point x="778" y="233" type="qcurve" name="sv02"/>
      <point x="812" y="233"/>
      <point x="878" y="244"/>
      <point x="951" y="269"/>
      <point x="1037" y="310"/>
      <point x="1091" y="340" type="qcurve"/>
    </contour>
    <contour>
      <point x="878" y="0" type="line" name="hr00"/>
      <point x="905" y="-20"/>
      <point x="927" y="-46" type="qcurve"/>
      <point x="946" y="-69"/>
      <point x="977" y="-132"/>
      <point x="977" y="-171" type="qcurve"/>
      <point x="977" y="-221"/>
      <point x="930" y="-307"/>
      <point x="850" y="-370"/>
      <point x="746" y="-407"/>
      <point x="689" y="-407" type="qcurve"/>
      <point x="629" y="-407"/>
      <point x="514" y="-371"/>
      <point x="466" y="-349" type="qcurve"/>
      <point x="411" y="-323"/>
      <point x="360" y="-290" type="qcurve"/>
      <point x="475" y="-131" type="line"/>
      <point x="507" y="-151"/>
      <point x="539" y="-166" type="qcurve"/>
      <point x="565" y="-179" name="hr02"/>
      <point x="624" y="-200"/>
      <point x="646" y="-200" type="qcurve"/>
      <point x="669" y="-200"/>
      <point x="710" y="-175"/>
      <point x="710" y="-147" type="qcurve"/>
      <point x="710" y="-126"/>
      <point x="686" y="-79"/>
      <point x="654" y="-37" name="hr01"/>
      <point x="623" y="-6"/>
      <point x="616" y="0" type="qcurve"/>
    </contour>
  </outline>
</glyph>
<glyph name="Egrave" format="2">
  <advance width="1300"/>
  <unicode hex="00C8"/>
  <outline>
    <contour>
      <point x="1137" y="228" type="line" name="dh02"/>
      <point x="1110" y="0" type="line" name="ab02"/>
      <point x="150" y="0" type="line" name="ab01"/>
      <point x="167" y="231" type="line" name="dh03"/>
      <point x="167" y="1263" type="line"/>
      <point x="132" y="1500" type="line" name="at01"/>
      <point x="1100" y="1500" type="line" name="ah01"/>
      <point x="1100" y="1272" type="line"/>
      <point x="503" y="1272" type="line" name="sv01"/>
      <point x="518" y="1134" type="line" name="sh01"/>
      <point x="518" y="916" type="line"/>
      <point x="1034" y="916" type="line" name="dv01"/>
      <point x="1034" y="703" type="line" name="dh01"/>
      <point x="518" y="703" type="line"/>
      <point x="518" y="360" type="line" name="dh04"/>
      <point x="510" y="228" type="line" name="hr01"/>
    </contour>
    <contour>
      <point x="800" y="1600" type="line" name="av01"/>
      <point x="585" y="1600" type="line" name="hr00"/>
      <point x="300" y="1920" type="line" name="iv01"/>
      <point x="637" y="1900" type="line" name="at02"/>
    </contour>
  </outline>
</glyph>
<glyph name="Ecircumflex" format="2">
  <advance width="1300"/>
  <unicode hex="00CA"/>
  <outline>
    <contour>
      <point x="1137" y="228" type="line" name="dh02"/>
      <point x="1110" y="0" type="line" name="ab02"/>
      <point x="150" y="0" type="line" name="ab01"/>
      <point x="167" y="231" type="line" name="dh03"/>
      <point x="167" y="1263" type="line"/>
      <point x="132" y="1500" type="line" name="at01"/>
      <point x="1100" y="1500" type="line" name="ah01"/>
      <point x="1100" y="1272" type="line"/>
      <point x="503" y="1272" type="line" name="sv01"/>
      <point x="518" y="1134" type="line" name="sh01"/>
      <point x="518" y="916" type="line"/>
      <point x="1034" y="916" type="line" name="dv01"/>
      <point x="1034" y="703" type="line" name="dh01"/>
      <point x="518" y="703" type="line"/>
      <point x="518" y="360" type="line" name="dh04"/>
      <point x="510" y="228" type="line" name="hr00"/>
    </contour>
    <contour>
      <point x="970" y="1620" type="line" name="ah03"/>
      <point x="750" y="1620" type="line" name="sh02"/>
      <point x="680" y="1723" type="line" name="mv01"/>
      <point x="650" y="1850" type="line" name="ih01"/>
      <point x="620" y="1723" type="line" name="mh01"/>
      <point x="539" y="1620" type="line" name="sh03"/>
      <point x="300" y="1620" type="line" name="ah02"/>
      <point x="495" y="1900" type="line" name="ih02"/>
      <point x="785" y="1920" type="line" name="ih03"/>
    </contour>
  </outline>
</glyph>
<glyph name="Edieresis" format="2">
  <advance width="1300"/>
  <unicode hex="00CB"/>
  <outline>
    <contour>
      <point x="1137" y="228" type="line" name="dh02"/>
      <point x="1110" y="0" type="line" name="ab02"/>
      <point x="150" y="0" type="line" name="ab01"/>
      <point x="167" y="231" type="line" name="dh03"/>
      <point x="167" y="1263" type="line"/>
      <point x="132" y="1500" type="line" name="at01"/>
      <point x="1100" y="1500" type="line" name="ah01"/>
      <point x="1100" y="1272" type="line"/>
      <point x="503" y="1272" type="line" name="sv01"/>
      <point x="518" y="1134" type="line" name="sh01"/>
      <point x="518" y="916" type="line"/>
      <point x="1034" y="916" type="line" name="dv01"/>
      <point x="1034" y="703" type="line" name="dh01"/>
      <point x="518" y="703" type="line"/>
      <point x="518" y="360" type="line" name="dh04"/>
      <point x="510" y="228" type="line"/>
    </contour>
    <contour>
      <point x="312" y="1866" type="line" name="ah02"/>
      <point x="588" y="1866" type="line"/>
      <point x="588" y="1600" type="line" name="sv02"/>
      <point x="312" y="1600" type="line"/>
    </contour>
    <contour>
      <point x="712" y="1866" type="line" name="ah03"/>
      <point x="988" y="1866" type="line"/>
      <point x="988" y="1600" type="line" name="sv03"/>
      <point x="712" y="1600" type="line"/>
    </contour>
  </outline>
</glyph>
<glyph name="Igrave" format="2">
  <advance width="1300"/>
  <unicode hex="00CC"/>
  <outline>
    <contour>
      <point x="189" y="1500" type="line" name="mh01"/>
      <point x="1067" y="1500" type="line" name="ah02"/>
      <point x="1067" y="1272" type="line" name="mh02"/>
      <point x="794" y="1272" type="line" name="dh04"/>
      <point x="794" y="228" type="line" name="dh02"/>
      <point x="1095" y="228" type="line" name="sh01"/>
      <point x="1060" y="0" type="line" name="ah03"/>
      <point x="182" y="0" type="line" name="ah01"/>
      <point x="182" y="228" type="line" name="mh03"/>
      <point x="460" y="228" type="line" name="dh01"/>
      <point x="460" y="1272" type="line" name="dh03"/>
      <point x="154" y="1272" type="line" name="sh02"/>
    </contour>
    <contour>
      <point x="795" y="1600" type="line" name="av01"/>
      <point x="580" y="1600" type="line" name="hr00"/>
      <point x="295" y="1920" type="line" name="iv01"/>
      <point x="632" y="1900" type="line" name="at01"/>
    </contour>
  </outline>
</glyph>
<glyph name="Icircumflex" format="2">
  <advance width="1300"/>
  <unicode hex="00CE"/>
  <outline>
    <contour>
      <point x="189" y="1500" type="line" name="mh01"/>
      <point x="1067" y="1500" type="line" name="ah02"/>
      <point x="1067" y="1272" type="line" name="mh02"/>
      <point x="794" y="1272" type="line" name="dh04"/>
      <point x="794" y="228" type="line" name="dh02"/>
      <point x="1095" y="228" type="line" name="sh01"/>
      <point x="1060" y="0" type="line" name="ah03"/>
      <point x="182" y="0" type="line" name="ah01"/>
      <point x="182" y="228" type="line" name="mh03"/>
      <point x="460" y="228" type="line" name="dh01"/>
      <point x="460" y="1272" type="line" name="dh03"/>
      <point x="154" y="1272" type="line" name="sh02"/>
    </contour>
    <contour>
      <point x="955" y="1624" type="line" name="ah05"/>
      <point x="735" y="1624" type="line" name="sh03"/>
      <point x="665" y="1727" type="line" name="mv01"/>
      <point x="635" y="1854" type="line" name="ih01"/>
      <point x="605" y="1727" type="line" name="mh04"/>
      <point x="524" y="1624" type="line" name="sh04"/>
      <point x="285" y="1624" type="line" name="ah04"/>
      <point x="480" y="1904" type="line" name="ih02"/>
      <point x="770" y="1924" type="line" name="ih03"/>
    </contour>
  </outline>
</glyph>
<glyph name="Eth" format="2">
  <advance width="1300"/>
  <unicode hex="00D0"/>
  <outline>
    <contour>
      <point x="0" y="888" type="line" name="hr00"/>
      <point x="160" y="888" type="line"/>
      <point x="160" y="1263" type="line"/>
      <point x="126" y="1500" type="line"/>
      <point x="175" y="1505"/>
      <point x="285" y="1511"/>
      <point x="392" y="1515"/>
      <point x="487" y="1517"/>
      <point x="520" y="1517" type="qcurve"/>
      <point x="688" y="1517"/>
      <point x="973" y="1436"/>
      <point x="1181" y="1264"/>
      <point x="1299" y="995"/>
      <point x="1299" y="807" type="qcurve"/>
      <point x="1299" y="662"/>
      <point x="1241" y="429"/>
      <point x="1136" y="250"/>
      <point x="990" y="121"/>
      <point x="815" y="39"/>
      <point x="617" y="0"/>
      <point x="512" y="0" type="qcurve"/>
      <point x="160" y="0" type="line"/>
      <point x="160" y="665" type="line"/>
      <point x="0" y="665" type="line"/>
    </contour>
    <contour>
      <point x="512" y="1289" type="qcurve"/>
      <point x="507" y="1289"/>
      <point x="496" y="1289"/>
      <point x="490" y="1288" type="qcurve"/>
      <point x="511" y="1127" type="line"/>
      <point x="511" y="888" type="line"/>
      <point x="691" y="888" type="line"/>
      <point x="691" y="665" type="line"/>
      <point x="511" y="665" type="line"/>
      <point x="511" y="230" type="line"/>
      <point x="616" y="236"/>
      <point x="763" y="296"/>
      <point x="860" y="385"/>
      <point x="915" y="496"/>
      <point x="942" y="614"/>
      <point x="948" y="729"/>
      <point x="948" y="778" type="qcurve"/>
      <point x="948" y="890"/>
      <point x="913" y="1078"/>
      <point x="817" y="1214"/>
      <point x="647" y="1289"/>
    </contour>
  </outline>
</glyph>
<glyph name="Ntilde" format="2">
  <advance width="1300"/>
  <unicode hex="00D1"/>
  <outline>
    <contour>
      <point x="884" y="0" type="line" name="mh01"/>
      <point x="400" y="950" type="line" name="mh02"/>
      <point x="390" y="950" type="line" name="mh03"/>
      <point x="452" y="649" type="line" name="mh04"/>
      <point x="452" y="0" type="line" name="ab01"/>
      <point x="129" y="0" type="line" name="ah01"/>
      <point x="129" y="1263" type="line" name="ah03"/>
      <point x="96" y="1500" type="line"/>
      <point x="422" y="1520" type="line" name="mh05"/>
      <point x="900" y="600" type="line" name="mh06"/>
      <point x="910" y="600" type="line" name="mh07"/>
      <point x="851" y="852" type="line" name="mh08"/>
      <point x="851" y="1500" type="line"/>
      <point x="1173" y="1520" type="line" name="ah04"/>
      <point x="1173" y="0" type="line" name="ah02"/>
    </contour>
    <contour>
      <point x="274" y="1627" type="line" name="sh01"/>
      <point x="278" y="1667"/>
      <point x="310" y="1758"/>
      <point x="370" y="1834"/>
      <point x="462" y="1884" name="mv01"/>
      <point x="525" y="1884" type="qcurve" name="ah05"/>
      <point x="574" y="1884"/>
      <point x="641" y="1859"/>
      <point x="695" y="1829"/>
      <point x="744" y="1804"/>
      <point x="775" y="1804" type="qcurve" name="av03"/>
      <point x="796" y="1804"/>
      <point x="824" y="1818"/>
      <point x="843" y="1842"/>
      <point x="853" y="1874"/>
      <point x="856" y="1892" type="qcurve"/>
      <point x="1023" y="1882" type="line" name="av04"/>
      <point x="1020" y="1838" name="mh09"/>
      <point x="992" y="1745"/>
      <point x="935" y="1669"/>
      <point x="845" y="1620" name="mv02"/>
      <point x="778" y="1620" type="qcurve" name="av01"/>
      <point x="732" y="1620"/>
      <point x="669" y="1645" name="hr03"/>
      <point x="617" y="1675"/>
      <point x="564" y="1700" name="hr02"/>
      <point x="529" y="1700" type="qcurve" name="av02"/>
      <point x="511" y="1700"/>
      <point x="487" y="1686"/>
      <point x="470" y="1664" name="hr01"/>
      <point x="460" y="1635" name="hr00"/>
      <point x="456" y="1620" type="qcurve" name="sh02"/>
    </contour>
  </outline>
</glyph>
<glyph name="Ograve" format="2">
  <advance width="1300"/>
  <unicode hex="00D2"/>
  <outline>
    <contour>
      <point x="623" y="-17" type="qcurve" name="ab01"/>
      <point x="525" y="-17"/>
      <point x="360" y="38"/>
      <point x="227" y="139"/>
      <point x="126" y="279"/>
      <point x="58" y="450"/>
      <point x="24" y="645"/>
      <point x="24" y="750" type="qcurve" name="ah01"/>
      <point x="24" y="907"/>
      <point x="98" y="1187"/>
      <point x="247" y="1395"/>
      <point x="472" y="1517"/>
      <point x="623" y="1517" type="qcurve" name="at01"/>
      <point x="770" y="1517"/>
      <point x="993" y="1395"/>
      <point x="1144" y="1187"/>
      <point x="1221" y="907"/>
      <point x="1221" y="750" type="qcurve" name="ah02"/>
      <point x="1221" y="645"/>
      <point x="1188" y="450"/>
      <point x="1122" y="279"/>
      <point x="1023" y="139"/>
      <point x="890" y="38"/>
      <point x="723" y="-17"/>
    </contour>
    <contour>
      <point x="871" y="721" type="qcurve" name="sh01"/>
      <point x="871" y="783"/>
      <point x="864" y="913"/>
      <point x="845" y="1036"/>
      <point x="810" y="1145"/>
      <point x="753" y="1227"/>
      <point x="672" y="1274"/>
      <point x="617" y="1274" type="qcurve" name="sv01"/>
      <point x="565" y="1274"/>
      <point x="489" y="1231"/>
      <point x="435" y="1158"/>
      <point x="400" y="1061"/>
      <point x="381" y="952"/>
      <point x="374" y="837"/>
      <point x="374" y="783" type="qcurve" name="sh02"/>
      <point x="374" y="720"/>
      <point x="381" y="589"/>
      <point x="401" y="465"/>
      <point x="436" y="356"/>
      <point x="492" y="274"/>
      <point x="573" y="226"/>
      <point x="628" y="226" type="qcurve" name="sv02"/>
      <point x="680" y="226"/>
      <point x="756" y="269"/>
      <point x="810" y="344"/>
      <point x="844" y="442"/>
      <point x="864" y="552"/>
      <point x="871" y="667" name="hr01"/>
    </contour>
    <contour>
      <point x="800" y="1600" type="line" name="av01"/>
      <point x="585" y="1600" type="line" name="hr00"/>
      <point x="300" y="1920" type="line" name="iv01"/>
      <point x="637" y="1900" type="line" name="at02"/>
    </contour>
  </outline>
</glyph>
<glyph name="Oacute" format="2">
  <advance width="1300"/>
  <unicode hex="00D3"/>
  <outline>
    <contour>
      <point x="623" y="-17" type="qcurve" name="ab01"/>
      <point x="525" y="-17"/>
      <point x="360" y="38"/>
      <point x="227" y="139"/>
      <point x="126" y="279"/>
      <point x="58" y="450"/>
      <point x="24" y="645"/>
      <point x="24" y="750" type="qcurve" name="ah01"/>
      <point x="24" y="907"/>
      <point x="98" y="1187"/>
      <point x="247" y="1395"/>
      <point x="472" y="1517"/>
      <point x="623" y="1517" type="qcurve" name="at01"/>
      <point x="770" y="1517"/>
      <point x="993" y="1395"/>
      <point x="1144" y="1187"/>
      <point x="1221" y="907"/>
      <point x="1221" y="750" type="qcurve" name="ah02"/>
      <point x="1221" y="645"/>
      <point x="1188" y="450"/>
      <point x="1122" y="279"/>
      <point x="1023" y="139"/>
      <point x="890" y="38"/>
      <point x="723" y="-17"/>
    </contour>
    <contour>
      <point x="871" y="721" type="qcurve" name="sh01"/>
      <point x="871" y="783"/>
      <point x="864" y="913"/>
      <point x="845" y="1036"/>
      <point x="810" y="1145"/>
      <point x="753" y="1227"/>
      <point x="672" y="1274"/>
      <point x="617" y="1274" type="qcurve" name="sv01"/>
      <point x="565" y="1274"/>
      <point x="489" y="1231"/>
      <point x="435" y="1158"/>
      <point x="400" y="1061"/>
      <point x="381" y="952"/>
      <point x="374" y="837"/>
      <point x="374" y="783" type="qcurve" name="sh02"/>
      <point x="374" y="720"/>
      <point x="381" y="589"/>
      <point x="401" y="465"/>
      <point x="436" y="356"/>
      <point x="492" y="274"/>
      <point x="573" y="226"/>
      <point x="628" y="226" type="qcurve" name="sv02"/>
      <point x="680" y="226"/>
      <point x="756" y="269"/>
      <point x="810" y="344"/>
      <point x="844" y="442"/>
      <point x="864" y="552"/>
      <point x="871" y="667" name="hr00"/>
    </contour>
    <contour>
      <point x="563" y="1900" type="line" name="ah03"/>
      <point x="900" y="1920" type="line" name="sh03"/>
      <point x="615" y="1600" type="line"/>
      <point x="400" y="1600" type="line" name="mh01"/>
    </contour>
  </outline>
</glyph>
<glyph name="Ocircumflex" format="2">
  <advance width="1300"/>
  <unicode hex="00D4"/>
  <outline>
    <contour>
      <point x="622" y="-17" type="qcurve" name="ab01"/>
      <point x="524" y="-17"/>
      <point x="359" y="38"/>
      <point x="226" y="139"/>
      <point x="125" y="279"/>
      <point x="57" y="450"/>
      <point x="23" y="645"/>
      <point x="23" y="750" type="qcurve" name="ah01"/>
      <point x="23" y="907"/>
      <point x="97" y="1187"/>
      <point x="246" y="1395"/>
      <point x="471" y="1517"/>
      <point x="622" y="1517" type="qcurve" name="at01"/>
      <point x="769" y="1517"/>
      <point x="992" y="1395"/>
      <point x="1143" y="1187"/>
      <point x="1220" y="907"/>
      <point x="1220" y="750" type="qcurve" name="ah02"/>
      <point x="1220" y="645"/>
      <point x="1187" y="450"/>
      <point x="1121" y="279"/>
      <point x="1022" y="139"/>
      <point x="889" y="38"/>
      <point x="722" y="-17"/>
    </contour>
    <contour>
      <point x="870" y="721" type="qcurve" name="sh01"/>
      <point x="870" y="783"/>
      <point x="863" y="913"/>
      <point x="844" y="1036"/>
      <point x="809" y="1145"/>
      <point x="752" y="1227"/>
      <point x="671" y="1274"/>
      <point x="616" y="1274" type="qcurve" name="sv01"/>
      <point x="564" y="1274"/>
      <point x="488" y="1231"/>
      <point x="434" y="1158"/>
      <point x="399" y="1061"/>
      <point x="380" y="952"/>
      <point x="373" y="837"/>
      <point x="373" y="783" type="qcurve" name="sh02"/>
      <point x="373" y="720"/>
      <point x="380" y="589"/>
      <point x="400" y="465"/>
      <point x="435" y="356"/>
      <point x="491" y="274"/>
      <point x="572" y="226"/>
      <point x="627" y="226" type="qcurve" name="sv02"/>
      <point x="679" y="226"/>
      <point x="755" y="269"/>
      <point x="809" y="344"/>
      <point x="843" y="442"/>
      <point x="863" y="552"/>
      <point x="870" y="667" name="hr00"/>
    </contour>
    <contour>
      <point x="952" y="1620" type="line" name="ah04"/>
      <point x="732" y="1620" type="line" name="sh03"/>
      <point x="662" y="1723" type="line" name="mv01"/>
      <point x="632" y="1850" type="line" name="ih01"/>
      <point x="602" y="1723" type="line" name="mh01"/>
      <point x="521" y="1620" type="line" name="sh04"/>
      <point x="282" y="1620" type="line" name="ah03"/>
      <point x="477" y="1900" type="line" name="ih02"/>
      <point x="767" y="1920" type="line" name="ih03"/>
    </contour>
  </outline>
</glyph>
<glyph name="Otilde" format="2">
  <advance width="1300"/>
  <unicode hex="00D5"/>
  <outline>
    <contour>
      <point x="623" y="-17" type="qcurve" name="ab01"/>
      <point x="525" y="-17"/>
      <point x="360" y="38"/>
      <point x="227" y="139"/>
      <point x="126" y="279"/>
      <point x="58" y="450"/>
      <point x="24" y="645"/>
      <point x="24" y="750" type="qcurve" name="ah01"/>
      <point x="24" y="907"/>
      <point x="98" y="1187"/>
      <point x="247" y="1395"/>
      <point x="472" y="1517"/>
      <point x="623" y="1517" type="qcurve" name="at01"/>
      <point x="770" y="1517"/>
      <point x="993" y="1395"/>
      <point x="1144" y="1187"/>
      <point x="1221" y="907"/>
      <point x="1221" y="750" type="qcurve" name="ah02"/>
      <point x="1221" y="645"/>
      <point x="1188" y="450"/>
      <point x="1122" y="279"/>
      <point x="1023" y="139"/>
      <point x="890" y="38"/>
      <point x="723" y="-17"/>
    </contour>
    <contour>
      <point x="871" y="721" type="qcurve" name="sh01"/>
      <point x="871" y="783"/>
      <point x="864" y="913"/>
      <point x="845" y="1036"/>
      <point x="810" y="1145"/>
      <point x="753" y="1227"/>
      <point x="672" y="1274"/>
      <point x="617" y="1274" type="qcurve" name="sv01"/>
      <point x="565" y="1274"/>
      <point x="489" y="1231"/>
      <point x="435" y="1158"/>
      <point x="400" y="1061"/>
      <point x="381" y="952"/>
      <point x="374" y="837"/>
      <point x="374" y="783" type="qcurve" name="sh02"/>
      <point x="374" y="720"/>
      <point x="381" y="589"/>
      <point x="401" y="465"/>
      <point x="436" y="356"/>
      <point x="492" y="274"/>
      <point x="573" y="226"/>
      <point x="628" y="226" type="qcurve" name="sv02"/>
      <point x="680" y="226"/>
      <point x="756" y="269"/>
      <point x="810" y="344"/>
      <point x="844" y="442"/>
      <point x="864" y="552"/>
      <point x="871" y="667"/>
    </contour>
    <contour>
      <point x="225" y="1627" type="line" name="sh03"/>
      <point x="229" y="1667"/>
      <point x="261" y="1758"/>
      <point x="321" y="1834"/>
      <point x="413" y="1884" name="mv01"/>
      <point x="476" y="1884" type="qcurve" name="ah03"/>
      <point x="525" y="1884"/>
      <point x="592" y="1859"/>
      <point x="646" y="1829"/>
      <point x="695" y="1804"/>
      <point x="726" y="1804" type="qcurve" name="av03"/>
      <point x="747" y="1804"/>
      <point x="775" y="1818"/>
      <point x="794" y="1842"/>
      <point x="804" y="1874"/>
      <point x="807" y="1892" type="qcurve"/>
      <point x="974" y="1882" type="line" name="av04"/>
      <point x="971" y="1838" name="mh01"/>
      <point x="943" y="1745"/>
      <point x="886" y="1669"/>
      <point x="796" y="1620" name="mv02"/>
      <point x="729" y="1620" type="qcurve" name="av01"/>
      <point x="683" y="1620"/>
      <point x="620" y="1645" name="hr03"/>
      <point x="568" y="1675"/>
      <point x="515" y="1700" name="hr02"/>
      <point x="480" y="1700" type="qcurve" name="av02"/>
      <point x="462" y="1700"/>
      <point x="438" y="1686"/>
      <point x="421" y="1664" name="hr01"/>
      <point x="411" y="1635" name="hr00"/>
      <point x="407" y="1620" type="qcurve" name="sh04"/>
    </contour>
  </outline>
</glyph>
<glyph name="Odieresis" format="2">
  <advance width="1300"/>
  <unicode hex="00D6"/>
  <outline>
    <contour>
      <point x="623" y="-17" type="qcurve" name="ab01"/>
      <point x="525" y="-17"/>
      <point x="360" y="38"/>
      <point x="227" y="139"/>
      <point x="126" y="279"/>
      <point x="58" y="450"/>
      <point x="24" y="645"/>
      <point x="24" y="750" type="qcurve" name="ah01"/>
      <point x="24" y="907"/>
      <point x="98" y="1187"/>
      <point x="247" y="1395"/>
      <point x="472" y="1517"/>
      <point x="623" y="1517" type="qcurve" name="at01"/>
      <point x="770" y="1517"/>
      <point x="993" y="1395"/>
      <point x="1144" y="1187"/>
      <point x="1221" y="907"/>
      <point x="1221" y="750" type="qcurve" name="ah02"/>
      <point x="1221" y="645"/>
      <point x="1188" y="450"/>
      <point x="1122" y="279"/>
      <point x="1023" y="139"/>
      <point x="890" y="38"/>
      <point x="723" y="-17"/>
    </contour>
    <contour>
      <point x="871" y="721" type="qcurve" name="sh01"/>
      <point x="871" y="783"/>
      <point x="864" y="913"/>
      <point x="845" y="1036"/>
      <point x="810" y="1145"/>
      <point x="753" y="1227"/>
      <point x="672" y="1274"/>
      <point x="617" y="1274" type="qcurve" name="sv01"/>
      <point x="565" y="1274"/>
      <point x="489" y="1231"/>
      <point x="435" y="1158"/>
      <point x="400" y="1061"/>
      <point x="381" y="952"/>
      <point x="374" y="837"/>
      <point x="374" y="783" type="qcurve" name="sh02"/>
      <point x="374" y="720"/>
      <point x="381" y="589"/>
      <point x="401" y="465"/>
      <point x="436" y="356"/>
      <point x="492" y="274"/>
      <point x="573" y="226"/>
      <point x="628" y="226" type="qcurve" name="sv02"/>
      <point x="680" y="226"/>
      <point x="756" y="269"/>
      <point x="810" y="344"/>
      <point x="844" y="442"/>
      <point x="864" y="552"/>
      <point x="871" y="667"/>
    </contour>
    <contour>
      <point x="282" y="1866" type="line" name="ah03"/>
      <point x="558" y="1866" type="line"/>
      <point x="558" y="1600" type="line" name="sv03"/>
      <point x="282" y="1600" type="line" name="mh01"/>
    </contour>
    <contour>
      <point x="682" y="1866" type="line" name="ah04"/>
      <point x="958" y="1866" type="line"/>
      <point x="958" y="1600" type="line" name="sv04"/>
      <point x="682" y="1600" type="line" name="mv01"/>
    </contour>
  </outline>
</glyph>
<glyph name="multiply" format="2">
  <advance width="1300"/>
  <unicode hex="00D7"/>
  <outline>
    <contour>
      <point x="303" y="119" type="line" name="sh01"/>
      <point x="116" y="269" type="line" name="ah01"/>
      <point x="482" y="633" type="line" name="iv01"/>
      <point x="116" y="998" type="line" name="ih02"/>
      <point x="303" y="1149" type="line" name="av01"/>
      <point x="604" y="847" type="line"/>
      <point x="674" y="729" type="line" name="ih01"/>
      <point x="696" y="847" type="line"/>
      <point x="996" y="1149" type="line" name="sh02"/>
      <point x="1183" y="998" type="line" name="ah02"/>
      <point x="818" y="633" type="line" name="iv02"/>
      <point x="1183" y="269" type="line" name="ih04"/>
      <point x="996" y="119" type="line" name="av02"/>
      <point x="696" y="419" type="line"/>
      <point x="626" y="538" type="line" name="ih03"/>
      <point x="604" y="419" type="line"/>
    </contour>
  </outline>
</glyph>
<glyph name="Oslash" format="2">
  <advance width="1300"/>
  <unicode hex="00D8"/>
  <outline>
    <contour>
      <point x="331" y="-100" type="line" name="hr00"/>
      <point x="121" y="-100" type="line"/>
      <point x="980" y="1600" type="line"/>
      <point x="1180" y="1600" type="line"/>
    </contour>
    <contour>
      <point x="649" y="-17" type="qcurve" name="hr01"/>
      <point x="551" y="-17"/>
      <point x="386" y="38"/>
      <point x="253" y="139"/>
      <point x="152" y="279"/>
      <point x="84" y="450"/>
      <point x="50" y="645"/>
      <point x="50" y="750" type="qcurve"/>
      <point x="50" y="907"/>
      <point x="124" y="1187"/>
      <point x="273" y="1395"/>
      <point x="498" y="1517"/>
      <point x="649" y="1517" type="qcurve"/>
      <point x="796" y="1517"/>
      <point x="1019" y="1395"/>
      <point x="1170" y="1187"/>
      <point x="1247" y="907"/>
      <point x="1247" y="750" type="qcurve"/>
      <point x="1247" y="645"/>
      <point x="1214" y="450"/>
      <point x="1148" y="279"/>
      <point x="1049" y="139"/>
      <point x="916" y="38"/>
      <point x="749" y="-17"/>
    </contour>
    <contour>
      <point x="897" y="721" type="qcurve"/>
      <point x="897" y="783"/>
      <point x="890" y="913"/>
      <point x="871" y="1036"/>
      <point x="836" y="1145"/>
      <point x="779" y="1227"/>
      <point x="698" y="1274"/>
      <point x="643" y="1274" type="qcurve"/>
      <point x="591" y="1274"/>
      <point x="515" y="1231"/>
      <point x="461" y="1158"/>
      <point x="426" y="1061"/>
      <point x="407" y="952"/>
      <point x="400" y="837"/>
      <point x="400" y="783" type="qcurve"/>
      <point x="400" y="720"/>
      <point x="407" y="589"/>
      <point x="427" y="465"/>
      <point x="462" y="356"/>
      <point x="518" y="274"/>
      <point x="599" y="226"/>
      <point x="654" y="226" type="qcurve"/>
      <point x="706" y="226"/>
      <point x="782" y="269"/>
      <point x="836" y="344"/>
      <point x="870" y="442"/>
      <point x="890" y="552"/>
      <point x="897" y="667"/>
    </contour>
  </outline>
</glyph>
<glyph name="Ugrave" format="2">
  <advance width="1300"/>
  <unicode hex="00D9"/>
  <outline>
    <contour>
      <point x="1160" y="1500" type="line" name="at02"/>
      <point x="1160" y="534" type="line" name="sh01"/>
      <point x="1160" y="395"/>
      <point x="1086" y="188"/>
      <point x="946" y="51"/>
      <point x="745" y="-17"/>
      <point x="619" y="-17" type="qcurve" name="ih01"/>
      <point x="483" y="-17"/>
      <point x="295" y="69"/>
      <point x="178" y="227"/>
      <point x="126" y="448"/>
      <point x="126" y="582" type="qcurve" name="sh02"/>
      <point x="126" y="1263" type="line"/>
      <point x="92" y="1500" type="line"/>
      <point x="458" y="1520" type="line" name="at01"/>
      <point x="458" y="564" type="line" name="sh03"/>
      <point x="458" y="483"/>
      <point x="471" y="355"/>
      <point x="512" y="267"/>
      <point x="587" y="221"/>
      <point x="650" y="221" type="qcurve" name="ih02"/>
      <point x="700" y="221"/>
      <point x="768" y="258"/>
      <point x="810" y="332"/>
      <point x="828" y="442"/>
      <point x="828" y="516" type="qcurve" name="ah01"/>
      <point x="828" y="1500" type="line" name="hr01"/>
    </contour>
    <contour>
      <point x="800" y="1600" type="line" name="av01"/>
      <point x="585" y="1600" type="line" name="hr00"/>
      <point x="300" y="1920" type="line" name="iv01"/>
      <point x="637" y="1900" type="line" name="at03"/>
    </contour>
  </outline>
</glyph>
<glyph name="Ucircumflex" format="2">
  <advance width="1300"/>
  <unicode hex="00DB"/>
  <outline>
    <contour>
      <point x="1160" y="1500" type="line" name="at02"/>
      <point x="1160" y="534" type="line" name="sh01"/>
      <point x="1160" y="395"/>
      <point x="1086" y="188"/>
      <point x="946" y="51"/>
      <point x="745" y="-17"/>
      <point x="619" y="-17" type="qcurve" name="ih01"/>
      <point x="483" y="-17"/>
      <point x="295" y="69"/>
      <point x="178" y="227"/>
      <point x="126" y="448"/>
      <point x="126" y="582" type="qcurve" name="sh02"/>
      <point x="126" y="1263" type="line"/>
      <point x="92" y="1500" type="line"/>
      <point x="458" y="1520" type="line" name="at01"/>
      <point x="458" y="564" type="line" name="sh03"/>
      <point x="458" y="483"/>
      <point x="471" y="355"/>
      <point x="512" y="267"/>
      <point x="587" y="221"/>
      <point x="650" y="221" type="qcurve" name="ih02"/>
      <point x="700" y="221"/>
      <point x="768" y="258"/>
      <point x="810" y="332"/>
      <point x="828" y="442"/>
      <point x="828" y="516" type="qcurve" name="ah01"/>
      <point x="828" y="1500" type="line" name="hr00"/>
    </contour>
    <contour>
      <point x="969" y="1620" type="line" name="ah03"/>
      <point x="749" y="1620" type="line" name="sh04"/>
      <point x="679" y="1723" type="line" name="mv01"/>
      <point x="649" y="1850" type="line" name="ih03"/>
      <point x="619" y="1723" type="line" name="mh01"/>
      <point x="538" y="1620" type="line" name="sh05"/>
      <point x="299" y="1620" type="line" name="ah02"/>
      <point x="494" y="1900" type="line" name="ih04"/>
      <point x="784" y="1920" type="line" name="ih05"/>
    </contour>
  </outline>
</glyph>
<glyph name="Udieresis" format="2">
  <advance width="1300"/>
  <unicode hex="00DC"/>
  <outline>
    <contour>
      <point x="1160" y="1500" type="line" name="at02"/>
      <point x="1160" y="534" type="line" name="sh01"/>
      <point x="1160" y="395"/>
      <point x="1086" y="188"/>
      <point x="946" y="51"/>
      <point x="745" y="-17"/>
      <point x="619" y="-17" type="qcurve" name="ih01"/>
      <point x="483" y="-17"/>
      <point x="295" y="69"/>
      <point x="178" y="227"/>
      <point x="126" y="448"/>
      <point x="126" y="582" type="qcurve" name="sh02"/>
      <point x="126" y="1263" type="line"/>
      <point x="92" y="1500" type="line"/>
      <point x="458" y="1520" type="line" name="at01"/>
      <point x="458" y="564" type="line" name="sh03"/>
      <point x="458" y="483"/>
      <point x="471" y="355"/>
      <point x="512" y="267"/>
      <point x="587" y="221"/>
      <point x="650" y="221" type="qcurve" name="ih02"/>
      <point x="700" y="221"/>
      <point x="768" y="258"/>
      <point x="810" y="332"/>
      <point x="828" y="442"/>
      <point x="828" y="516" type="qcurve" name="ah01"/>
      <point x="828" y="1500" type="line"/>
    </contour>
    <contour>
      <point x="311" y="1866" type="line" name="ah02"/>
      <point x="587" y="1866" type="line"/>
      <point x="587" y="1600" type="line" name="sv01"/>
      <point x="311" y="1600" type="line"/>
    </contour>
    <contour>
      <point x="711" y="1866" type="line" name="ah03"/>
      <point x="987" y="1866" type="line"/>
      <point x="987" y="1600" type="line" name="sv02"/>
      <point x="711" y="1600" type="line"/>
    </contour>
  </outline>
</glyph>
<glyph name="Yacute" format="2">
  <advance width="1300"/>
  <unicode hex="00DD"/>
  <outline>
    <contour>
      <point x="540" y="1143" type="line" name="hr00"/>
      <point x="647" y="773" type="line" name="ih01"/>
      <point x="705" y="1143" type="line"/>
      <point x="887" y="1500" type="line" name="ah02"/>
      <point x="1222" y="1500" type="line" name="sh01"/>
      <point x="789" y="650" type="line" name="ih03"/>
      <point x="789" y="0" type="line" name="sh02"/>
      <point x="438" y="0" type="line" name="ah01"/>
      <point x="438" y="650" type="line" name="ih02"/>
      <point x="9" y="1500" type="line" name="ah03"/>
      <point x="348" y="1520" type="line" name="sh03"/>
    </contour>
    <contour>
      <point x="563" y="1900" type="line" name="ah04"/>
      <point x="900" y="1920" type="line" name="sh04"/>
      <point x="615" y="1600" type="line"/>
      <point x="400" y="1600" type="line" name="mh01"/>
    </contour>
  </outline>
</glyph>
<glyph name="Thorn" format="2">
  <advance width="1300"/>
  <unicode hex="00DE"/>
  <outline>
    <contour>
      <point x="137" y="1500" type="line" name="ah01"/>
      <point x="501" y="1500" type="line" name="sh01"/>
      <point x="501" y="1311" type="line" name="av02"/>
      <point x="615" y="1311" type="line"/>
      <point x="666" y="1311"/>
      <point x="781" y="1293"/>
      <point x="892" y="1252"/>
      <point x="994" y="1186"/>
      <point x="1072" y="1090"/>
      <point x="1118" y="963"/>
      <point x="1118" y="882" type="qcurve" name="sh02"/>
      <point x="1118" y="825"/>
      <point x="1101" y="702"/>
      <point x="1047" y="584"/>
      <point x="948" y="478"/>
      <point x="866" y="438" type="qcurve"/>
      <point x="840" y="426"/>
      <point x="782" y="405"/>
      <point x="712" y="390"/>
      <point x="628" y="381"/>
      <point x="577" y="381" type="qcurve"/>
      <point x="501" y="381" type="line" name="av01"/>
      <point x="501" y="0" type="line" name="sh03"/>
      <point x="159" y="0" type="line" name="ah02"/>
      <point x="159" y="1267" type="line"/>
    </contour>
    <contour>
      <point x="501" y="1093" type="line" name="sh04"/>
      <point x="501" y="605" type="line" name="sh05"/>
      <point x="605" y="605" type="line"/>
      <point x="654" y="605"/>
      <point x="727" y="647"/>
      <point x="773" y="722"/>
      <point x="796" y="823"/>
      <point x="796" y="882" type="qcurve" name="ah03"/>
      <point x="796" y="983"/>
      <point x="683" y="1093"/>
      <point x="586" y="1093" type="qcurve"/>
    </contour>
  </outline>
</glyph>
<glyph name="germandbls" format="2">
  <advance width="1300"/>
  <unicode hex="00DF"/>
  <outline>
    <contour>
      <point x="470" y="-17" type="line" name="sh01"/>
      <point x="127" y="0" type="line" name="ah01"/>
      <point x="127" y="1073" type="line"/>
      <point x="127" y="1176"/>
      <point x="198" y="1332"/>
      <point x="327" y="1437"/>
      <point x="505" y="1489"/>
      <point x="613" y="1489" type="qcurve" name="av01"/>
      <point x="844" y="1489"/>
      <point x="954" y="1373" type="qcurve"/>
      <point x="979" y="1346"/>
      <point x="1021" y="1293"/>
      <point x="1051" y="1234"/>
      <point x="1068" y="1167"/>
      <point x="1068" y="1127" type="qcurve" name="sh02"/>
      <point x="1068" y="1074"/>
      <point x="1038" y="980"/>
      <point x="983" y="900"/>
      <point x="906" y="835"/>
      <point x="859" y="811" type="qcurve" name="sh03"/>
      <point x="922" y="790"/>
      <point x="1033" y="728"/>
      <point x="1115" y="644"/>
      <point x="1162" y="535"/>
      <point x="1162" y="466" type="qcurve" name="sh04"/>
      <point x="1162" y="380"/>
      <point x="1114" y="244"/>
      <point x="1032" y="140"/>
      <point x="923" y="67"/>
      <point x="798" y="21"/>
      <point x="665" y="0"/>
      <point x="601" y="0" type="qcurve" name="ab01"/>
      <point x="520" y="224" type="line" name="sv01"/>
      <point x="666" y="227"/>
      <point x="826" y="339"/>
      <point x="826" y="457" type="qcurve" name="ah03"/>
      <point x="826" y="516"/>
      <point x="792" y="601"/>
      <point x="730" y="655"/>
      <point x="646" y="681" name="hr03"/>
      <point x="595" y="681" type="qcurve" name="ah02"/>
      <point x="500" y="902" type="line" name="dv01"/>
      <point x="554" y="907"/>
      <point x="643" y="936"/>
      <point x="706" y="986" name="hr02"/>
      <point x="740" y="1058"/>
      <point x="740" y="1107" type="qcurve" name="ah04"/>
      <point x="740" y="1142" name="hr01"/>
      <point x="718" y="1204"/>
      <point x="682" y="1250" name="hr00"/>
      <point x="635" y="1276"/>
      <point x="610" y="1276" type="qcurve" name="sv02"/>
      <point x="539" y="1276"/>
      <point x="470" y="1203"/>
      <point x="470" y="1119" type="qcurve" name="sh05"/>
    </contour>
  </outline>
</glyph>
<glyph name="atilde" format="2">
  <advance width="1300"/>
  <unicode hex="00E3"/>
  <outline>
    <contour>
      <point x="1135" y="0" type="line" name="ab02"/>
      <point x="795" y="0" type="line" name="hr00"/>
      <point x="795" y="100" type="line" name="ah01"/>
      <point x="711" y="5" type="line" name="ah02"/>
      <point x="676" y="-6"/>
      <point x="607" y="-17"/>
      <point x="577" y="-17" type="qcurve" name="ab01"/>
      <point x="494" y="-17"/>
      <point x="326" y="32"/>
      <point x="191" y="127"/>
      <point x="106" y="267"/>
      <point x="106" y="358" type="qcurve" name="sh01"/>
      <point x="106" y="454"/>
      <point x="192" y="594"/>
      <point x="333" y="685" name="mh01"/>
      <point x="511" y="729" name="mv01"/>
      <point x="604" y="729" type="qcurve" name="dv01"/>
      <point x="661" y="729"/>
      <point x="755" y="722"/>
      <point x="795" y="715" type="qcurve" name="sh02"/>
      <point x="791" y="800"/>
      <point x="713" y="900" name="mv02"/>
      <point x="632" y="900" type="qcurve" name="sv01"/>
      <point x="588" y="900" name="mv03"/>
      <point x="499" y="890" name="mv04"/>
      <point x="417" y="872"/>
      <point x="346" y="850"/>
      <point x="319" y="838" type="qcurve" name="ih01"/>
      <point x="225" y="1023" type="line" name="mh02"/>
      <point x="271" y="1044"/>
      <point x="356" y="1079"/>
      <point x="451" y="1104" name="sh04"/>
      <point x="565" y="1117"/>
      <point x="642" y="1117" type="qcurve" name="mh03"/>
      <point x="770" y="1117" name="mv05"/>
      <point x="949" y="1054"/>
      <point x="1061" y="939"/>
      <point x="1112" y="778"/>
      <point x="1112" y="681" type="qcurve"/>
      <point x="1112" y="200" type="line" name="sh05"/>
    </contour>
    <contour>
      <point x="795" y="500" type="line" name="sh06"/>
      <point x="780" y="501"/>
      <point x="740" y="503"/>
      <point x="698" y="504"/>
      <point x="657" y="505"/>
      <point x="642" y="505" type="qcurve" name="dv02"/>
      <point x="604" y="505"/>
      <point x="529" y="491"/>
      <point x="471" y="457"/>
      <point x="435" y="401"/>
      <point x="435" y="359" type="qcurve" name="sh03"/>
      <point x="435" y="325"/>
      <point x="460" y="270"/>
      <point x="502" y="230"/>
      <point x="556" y="208"/>
      <point x="585" y="208" type="qcurve" name="sv02"/>
      <point x="642" y="208"/>
      <point x="746" y="258"/>
      <point x="795" y="300" type="qcurve"/>
    </contour>
    <contour>
      <point x="276" y="1247" type="line" name="sh07"/>
      <point x="280" y="1287"/>
      <point x="312" y="1378"/>
      <point x="372" y="1454"/>
      <point x="464" y="1504" name="mv06"/>
      <point x="527" y="1504" type="qcurve" name="ah03"/>
      <point x="576" y="1504"/>
      <point x="643" y="1479"/>
      <point x="697" y="1449"/>
      <point x="746" y="1424"/>
      <point x="777" y="1424" type="qcurve" name="av03"/>
      <point x="798" y="1424"/>
      <point x="826" y="1438"/>
      <point x="845" y="1462"/>
      <point x="855" y="1494"/>
      <point x="858" y="1512" type="qcurve"/>
      <point x="1025" y="1502" type="line" name="av04"/>
      <point x="1022" y="1458" name="mh04"/>
      <point x="994" y="1365"/>
      <point x="937" y="1289"/>
      <point x="847" y="1240" name="mv07"/>
      <point x="780" y="1240" type="qcurve" name="av01"/>
      <point x="734" y="1240"/>
      <point x="671" y="1265" name="hr04"/>
      <point x="619" y="1295"/>
      <point x="566" y="1320" name="hr03"/>
      <point x="531" y="1320" type="qcurve" name="av02"/>
      <point x="513" y="1320"/>
      <point x="489" y="1306"/>
      <point x="472" y="1284" name="hr02"/>
      <point x="462" y="1255" name="hr01"/>
      <point x="458" y="1240" type="qcurve" name="sh08"/>
    </contour>
  </outline>
</glyph>
<glyph name="adieresis" format="2">
  <advance width="1300"/>
  <unicode hex="00E4"/>
  <outline>
    <contour>
      <point x="1135" y="0" type="line" name="ab02"/>
      <point x="795" y="0" type="line" name="hr00"/>
      <point x="795" y="100" type="line" name="ah01"/>
      <point x="711" y="5" type="line" name="ah02"/>
      <point x="676" y="-6"/>
      <point x="607" y="-17"/>
      <point x="577" y="-17" type="qcurve" name="ab01"/>
      <point x="494" y="-17"/>
      <point x="326" y="32"/>
      <point x="191" y="127"/>
      <point x="106" y="267"/>
      <point x="106" y="358" type="qcurve" name="sh01"/>
      <point x="106" y="454"/>
      <point x="192" y="594"/>
      <point x="333" y="685" name="mh01"/>
      <point x="511" y="729" name="mv01"/>
      <point x="604" y="729" type="qcurve" name="dv01"/>
      <point x="661" y="729"/>
      <point x="755" y="722"/>
      <point x="795" y="715" type="qcurve" name="sh02"/>
      <point x="791" y="800"/>
      <point x="713" y="900" name="mv02"/>
      <point x="632" y="900" type="qcurve" name="sv01"/>
      <point x="588" y="900" name="mv03"/>
      <point x="499" y="890" name="mv04"/>
      <point x="417" y="872"/>
      <point x="346" y="850"/>
      <point x="319" y="838" type="qcurve" name="ih01"/>
      <point x="225" y="1023" type="line" name="mh02"/>
      <point x="271" y="1044"/>
      <point x="356" y="1079"/>
      <point x="451" y="1104" name="sh04"/>
      <point x="565" y="1117"/>
      <point x="642" y="1117" type="qcurve" name="mh03"/>
      <point x="770" y="1117" name="mv05"/>
      <point x="949" y="1054"/>
      <point x="1061" y="939"/>
      <point x="1112" y="778"/>
      <point x="1112" y="681" type="qcurve"/>
      <point x="1112" y="200" type="line" name="sh05"/>
    </contour>
    <contour>
      <point x="795" y="500" type="line" name="sh06"/>
      <point x="780" y="501"/>
      <point x="740" y="503"/>
      <point x="698" y="504"/>
      <point x="657" y="505"/>
      <point x="642" y="505" type="qcurve" name="dv02"/>
      <point x="604" y="505"/>
      <point x="529" y="491"/>
      <point x="471" y="457"/>
      <point x="435" y="401"/>
      <point x="435" y="359" type="qcurve" name="sh03"/>
      <point x="435" y="325"/>
      <point x="460" y="270"/>
      <point x="502" y="230"/>
      <point x="556" y="208"/>
      <point x="585" y="208" type="qcurve" name="sv02"/>
      <point x="642" y="208"/>
      <point x="746" y="258"/>
      <point x="795" y="300" type="qcurve"/>
    </contour>
    <contour>
      <point x="324" y="1566" type="line" name="ah03"/>
      <point x="600" y="1566" type="line"/>
      <point x="600" y="1300" type="line" name="sv03"/>
      <point x="324" y="1300" type="line"/>
    </contour>
    <contour>
      <point x="724" y="1566" type="line" name="ah04"/>
      <point x="1000" y="1566" type="line"/>
      <point x="1000" y="1300" type="line" name="sv04"/>
      <point x="724" y="1300" type="line"/>
    </contour>
  </outline>
</glyph>
<glyph name="ccedilla" format="2">
  <advance width="1300"/>
  <unicode hex="00E7"/>
  <outline>
    <contour>
      <point x="967" y="772" type="line" name="hr00"/>
      <point x="919" y="829"/>
      <point x="802" y="881"/>
      <point x="726" y="881" type="qcurve" name="sv01"/>
      <point x="665" y="881"/>
      <point x="559" y="828"/>
      <point x="480" y="738"/>
      <point x="435" y="619"/>
      <point x="435" y="553" type="qcurve" name="sh02"/>
      <point x="435" y="484"/>
      <point x="482" y="367"/>
      <point x="562" y="283"/>
      <point x="667" y="236"/>
      <point x="726" y="236" type="qcurve" name="sv02"/>
      <point x="778" y="236"/>
      <point x="863" y="255"/>
      <point x="930" y="288"/>
      <point x="981" y="330"/>
      <point x="999" y="353" type="qcurve"/>
      <point x="1123" y="137" type="line"/>
      <point x="1105" y="121"/>
      <point x="1034" y="69"/>
      <point x="928" y="19"/>
      <point x="784" y="-17"/>
      <point x="693" y="-17" type="qcurve" name="ab01"/>
      <point x="560" y="-17"/>
      <point x="343" y="79"/>
      <point x="189" y="239"/>
      <point x="105" y="450"/>
      <point x="105" y="565" type="qcurve" name="sh01"/>
      <point x="105" y="669"/>
      <point x="186" y="868"/>
      <point x="339" y="1023"/>
      <point x="559" y="1117"/>
      <point x="697" y="1117" type="qcurve" name="at01"/>
      <point x="832" y="1117"/>
      <point x="1051" y="1042"/>
      <point x="1129" y="957" type="qcurve"/>
    </contour>
    <contour>
      <point x="820" y="0" type="line" name="hr01"/>
      <point x="847" y="-20"/>
      <point x="869" y="-46" type="qcurve"/>
      <point x="888" y="-69"/>
      <point x="919" y="-132"/>
      <point x="919" y="-171" type="qcurve"/>
      <point x="919" y="-221"/>
      <point x="872" y="-307"/>
      <point x="792" y="-370"/>
      <point x="688" y="-407"/>
      <point x="631" y="-407" type="qcurve"/>
      <point x="571" y="-407"/>
      <point x="456" y="-371"/>
      <point x="408" y="-349" type="qcurve"/>
      <point x="353" y="-323"/>
      <point x="302" y="-290" type="qcurve"/>
      <point x="417" y="-131" type="line"/>
      <point x="449" y="-151"/>
      <point x="481" y="-166" type="qcurve"/>
      <point x="507" y="-179" name="hr03"/>
      <point x="566" y="-200"/>
      <point x="588" y="-200" type="qcurve"/>
      <point x="611" y="-200"/>
      <point x="652" y="-175"/>
      <point x="652" y="-147" type="qcurve"/>
      <point x="652" y="-126"/>
      <point x="628" y="-79"/>
      <point x="596" y="-37" name="hr02"/>
      <point x="565" y="-6"/>
      <point x="558" y="0" type="qcurve"/>
    </contour>
  </outline>
</glyph>
<glyph name="edieresis" format="2">
  <advance width="1300"/>
  <unicode hex="00EB"/>
  <outline>
    <contour>
      <point x="1148" y="158" type="line" name="hr00"/>
      <point x="1108" y="121"/>
      <point x="1016" y="58"/>
      <point x="904" y="11"/>
      <point x="768" y="-16"/>
      <point x="686" y="-16" type="qcurve" name="ih01"/>
      <point x="542" y="-16"/>
      <point x="323" y="78"/>
      <point x="175" y="235"/>
      <point x="100" y="439"/>
      <point x="100" y="550" type="qcurve" name="sh01"/>
      <point x="100" y="621"/>
      <point x="134" y="760"/>
      <point x="200" y="885"/>
      <point x="295" y="993"/>
      <point x="418" y="1071"/>
      <point x="567" y="1116"/>
      <point x="653" y="1116" type="qcurve" name="ih02"/>
      <point x="773" y="1116"/>
      <point x="961" y="1045"/>
      <point x="1091" y="918"/>
      <point x="1159" y="740"/>
      <point x="1159" y="632" type="qcurve" name="dh02"/>
      <point x="1159" y="605"/>
      <point x="1152" y="517"/>
      <point x="1147" y="466" type="qcurve" name="ih04"/>
      <point x="400" y="466" type="line" name="sh02"/>
      <point x="402" y="412"/>
      <point x="458" y="315"/>
      <point x="545" y="243"/>
      <point x="652" y="200"/>
      <point x="706" y="200" type="qcurve" name="ih03"/>
      <point x="757" y="200"/>
      <point x="852" y="222"/>
      <point x="929" y="254"/>
      <point x="986" y="288"/>
      <point x="1000" y="300" type="qcurve"/>
    </contour>
    <contour>
      <point x="865" y="672" type="line" name="dh01"/>
      <point x="865" y="718"/>
      <point x="838" y="800"/>
      <point x="786" y="863"/>
      <point x="708" y="900"/>
      <point x="657" y="900" type="qcurve" name="sv01"/>
      <point x="606" y="900"/>
      <point x="530" y="870"/>
      <point x="476" y="825"/>
      <point x="442" y="775"/>
      <point x="434" y="756" type="qcurve"/>
      <point x="343" y="653" type="line" name="ih05"/>
      <point x="516" y="671" type="line" name="mv01"/>
    </contour>
    <contour>
      <point x="312" y="1566" type="line" name="ah01"/>
      <point x="588" y="1566" type="line"/>
      <point x="588" y="1300" type="line" name="sv02"/>
      <point x="312" y="1300" type="line"/>
    </contour>
    <contour>
      <point x="712" y="1566" type="line" name="ah02"/>
      <point x="988" y="1566" type="line"/>
      <point x="988" y="1300" type="line" name="sv03"/>
      <point x="712" y="1300" type="line"/>
    </contour>
  </outline>
</glyph>
